<mxfile host="Electron" modified="2024-02-10T11:32:03.965Z" agent="Mozilla/5.0 (Windows NT 10.0; Win64; x64) AppleWebKit/537.36 (KHTML, like Gecko) draw.io/23.0.2 Chrome/120.0.6099.109 Electron/28.1.0 Safari/537.36" etag="Nuf1dp8OeOK_iQdPPzKU" version="23.0.2" type="device" pages="2">
  <diagram name="Online Charity Donation System" id="QcJA2m7-eTbt-cYTZbNx">
    <mxGraphModel dx="880" dy="532" grid="1" gridSize="10" guides="1" tooltips="1" connect="1" arrows="1" fold="1" page="1" pageScale="1" pageWidth="1169" pageHeight="1654" math="0" shadow="0">
      <root>
        <mxCell id="0" />
        <mxCell id="1" parent="0" />
        <mxCell id="M88rms9hJYf57tuRIVdl-257" style="edgeStyle=orthogonalEdgeStyle;rounded=0;orthogonalLoop=1;jettySize=auto;html=1;entryX=0.5;entryY=0;entryDx=0;entryDy=0;fontFamily=Poppins;fontSize=12;fontColor=default;" parent="1" source="M88rms9hJYf57tuRIVdl-80" target="M88rms9hJYf57tuRIVdl-169" edge="1">
          <mxGeometry relative="1" as="geometry" />
        </mxCell>
        <mxCell id="M88rms9hJYf57tuRIVdl-80" value="Donation" style="shape=table;startSize=30;container=1;collapsible=1;childLayout=tableLayout;fixedRows=1;rowLines=0;fontStyle=1;align=center;resizeLast=1;html=1;rounded=0;verticalAlign=middle;fontFamily=Poppins;fontSize=12;fontColor=default;fillColor=none;gradientColor=none;" parent="1" vertex="1">
          <mxGeometry x="330" y="250" width="180" height="330" as="geometry" />
        </mxCell>
        <mxCell id="M88rms9hJYf57tuRIVdl-81" value="" style="shape=tableRow;horizontal=0;startSize=0;swimlaneHead=0;swimlaneBody=0;fillColor=none;collapsible=0;dropTarget=0;points=[[0,0.5],[1,0.5]];portConstraint=eastwest;top=0;left=0;right=0;bottom=1;rounded=0;align=center;verticalAlign=middle;fontFamily=Poppins;fontSize=12;fontColor=default;html=1;" parent="M88rms9hJYf57tuRIVdl-80" vertex="1">
          <mxGeometry y="30" width="180" height="30" as="geometry" />
        </mxCell>
        <mxCell id="M88rms9hJYf57tuRIVdl-82" value="PK" style="shape=partialRectangle;connectable=0;fillColor=none;top=0;left=0;bottom=0;right=0;fontStyle=1;overflow=hidden;whiteSpace=wrap;html=1;rounded=0;align=center;verticalAlign=middle;fontFamily=Poppins;fontSize=12;fontColor=default;" parent="M88rms9hJYf57tuRIVdl-81" vertex="1">
          <mxGeometry width="30" height="30" as="geometry">
            <mxRectangle width="30" height="30" as="alternateBounds" />
          </mxGeometry>
        </mxCell>
        <mxCell id="M88rms9hJYf57tuRIVdl-83" value="DonationID" style="shape=partialRectangle;connectable=0;fillColor=none;top=0;left=0;bottom=0;right=0;align=left;spacingLeft=6;fontStyle=5;overflow=hidden;whiteSpace=wrap;html=1;rounded=0;verticalAlign=middle;fontFamily=Poppins;fontSize=12;fontColor=default;" parent="M88rms9hJYf57tuRIVdl-81" vertex="1">
          <mxGeometry x="30" width="150" height="30" as="geometry">
            <mxRectangle width="150" height="30" as="alternateBounds" />
          </mxGeometry>
        </mxCell>
        <mxCell id="M88rms9hJYf57tuRIVdl-84" value="" style="shape=tableRow;horizontal=0;startSize=0;swimlaneHead=0;swimlaneBody=0;fillColor=none;collapsible=0;dropTarget=0;points=[[0,0.5],[1,0.5]];portConstraint=eastwest;top=0;left=0;right=0;bottom=0;rounded=0;align=center;verticalAlign=middle;fontFamily=Poppins;fontSize=12;fontColor=default;html=1;" parent="M88rms9hJYf57tuRIVdl-80" vertex="1">
          <mxGeometry y="60" width="180" height="30" as="geometry" />
        </mxCell>
        <mxCell id="M88rms9hJYf57tuRIVdl-85" value="" style="shape=partialRectangle;connectable=0;fillColor=none;top=0;left=0;bottom=0;right=0;editable=1;overflow=hidden;whiteSpace=wrap;html=1;rounded=0;align=center;verticalAlign=middle;fontFamily=Poppins;fontSize=12;fontColor=default;" parent="M88rms9hJYf57tuRIVdl-84" vertex="1">
          <mxGeometry width="30" height="30" as="geometry">
            <mxRectangle width="30" height="30" as="alternateBounds" />
          </mxGeometry>
        </mxCell>
        <mxCell id="M88rms9hJYf57tuRIVdl-86" value="DonationDate" style="shape=partialRectangle;connectable=0;fillColor=none;top=0;left=0;bottom=0;right=0;align=left;spacingLeft=6;overflow=hidden;whiteSpace=wrap;html=1;rounded=0;verticalAlign=middle;fontFamily=Poppins;fontSize=12;fontColor=default;" parent="M88rms9hJYf57tuRIVdl-84" vertex="1">
          <mxGeometry x="30" width="150" height="30" as="geometry">
            <mxRectangle width="150" height="30" as="alternateBounds" />
          </mxGeometry>
        </mxCell>
        <mxCell id="M88rms9hJYf57tuRIVdl-87" value="" style="shape=tableRow;horizontal=0;startSize=0;swimlaneHead=0;swimlaneBody=0;fillColor=none;collapsible=0;dropTarget=0;points=[[0,0.5],[1,0.5]];portConstraint=eastwest;top=0;left=0;right=0;bottom=0;rounded=0;align=center;verticalAlign=middle;fontFamily=Poppins;fontSize=12;fontColor=default;html=1;" parent="M88rms9hJYf57tuRIVdl-80" vertex="1">
          <mxGeometry y="90" width="180" height="30" as="geometry" />
        </mxCell>
        <mxCell id="M88rms9hJYf57tuRIVdl-88" value="" style="shape=partialRectangle;connectable=0;fillColor=none;top=0;left=0;bottom=0;right=0;editable=1;overflow=hidden;whiteSpace=wrap;html=1;rounded=0;align=center;verticalAlign=middle;fontFamily=Poppins;fontSize=12;fontColor=default;" parent="M88rms9hJYf57tuRIVdl-87" vertex="1">
          <mxGeometry width="30" height="30" as="geometry">
            <mxRectangle width="30" height="30" as="alternateBounds" />
          </mxGeometry>
        </mxCell>
        <mxCell id="M88rms9hJYf57tuRIVdl-89" value="DonationTime" style="shape=partialRectangle;connectable=0;fillColor=none;top=0;left=0;bottom=0;right=0;align=left;spacingLeft=6;overflow=hidden;whiteSpace=wrap;html=1;rounded=0;verticalAlign=middle;fontFamily=Poppins;fontSize=12;fontColor=default;" parent="M88rms9hJYf57tuRIVdl-87" vertex="1">
          <mxGeometry x="30" width="150" height="30" as="geometry">
            <mxRectangle width="150" height="30" as="alternateBounds" />
          </mxGeometry>
        </mxCell>
        <mxCell id="M88rms9hJYf57tuRIVdl-90" value="" style="shape=tableRow;horizontal=0;startSize=0;swimlaneHead=0;swimlaneBody=0;fillColor=none;collapsible=0;dropTarget=0;points=[[0,0.5],[1,0.5]];portConstraint=eastwest;top=0;left=0;right=0;bottom=0;rounded=0;align=center;verticalAlign=middle;fontFamily=Poppins;fontSize=12;fontColor=default;html=1;" parent="M88rms9hJYf57tuRIVdl-80" vertex="1">
          <mxGeometry y="120" width="180" height="30" as="geometry" />
        </mxCell>
        <mxCell id="M88rms9hJYf57tuRIVdl-91" value="" style="shape=partialRectangle;connectable=0;fillColor=none;top=0;left=0;bottom=0;right=0;editable=1;overflow=hidden;whiteSpace=wrap;html=1;rounded=0;align=center;verticalAlign=middle;fontFamily=Poppins;fontSize=12;fontColor=default;" parent="M88rms9hJYf57tuRIVdl-90" vertex="1">
          <mxGeometry width="30" height="30" as="geometry">
            <mxRectangle width="30" height="30" as="alternateBounds" />
          </mxGeometry>
        </mxCell>
        <mxCell id="M88rms9hJYf57tuRIVdl-92" value="ItemID" style="shape=partialRectangle;connectable=0;fillColor=none;top=0;left=0;bottom=0;right=0;align=left;spacingLeft=6;overflow=hidden;whiteSpace=wrap;html=1;rounded=0;verticalAlign=middle;fontFamily=Poppins;fontSize=12;fontColor=default;" parent="M88rms9hJYf57tuRIVdl-90" vertex="1">
          <mxGeometry x="30" width="150" height="30" as="geometry">
            <mxRectangle width="150" height="30" as="alternateBounds" />
          </mxGeometry>
        </mxCell>
        <mxCell id="M88rms9hJYf57tuRIVdl-166" value="" style="shape=tableRow;horizontal=0;startSize=0;swimlaneHead=0;swimlaneBody=0;fillColor=none;collapsible=0;dropTarget=0;points=[[0,0.5],[1,0.5]];portConstraint=eastwest;top=0;left=0;right=0;bottom=0;rounded=0;align=center;verticalAlign=middle;fontFamily=Poppins;fontSize=12;fontColor=default;html=1;" parent="M88rms9hJYf57tuRIVdl-80" vertex="1">
          <mxGeometry y="150" width="180" height="30" as="geometry" />
        </mxCell>
        <mxCell id="M88rms9hJYf57tuRIVdl-167" value="" style="shape=partialRectangle;connectable=0;fillColor=none;top=0;left=0;bottom=0;right=0;editable=1;overflow=hidden;whiteSpace=wrap;html=1;rounded=0;align=center;verticalAlign=middle;fontFamily=Poppins;fontSize=12;fontColor=default;" parent="M88rms9hJYf57tuRIVdl-166" vertex="1">
          <mxGeometry width="30" height="30" as="geometry">
            <mxRectangle width="30" height="30" as="alternateBounds" />
          </mxGeometry>
        </mxCell>
        <mxCell id="M88rms9hJYf57tuRIVdl-168" value="DonationQuantity" style="shape=partialRectangle;connectable=0;fillColor=none;top=0;left=0;bottom=0;right=0;align=left;spacingLeft=6;overflow=hidden;whiteSpace=wrap;html=1;rounded=0;verticalAlign=middle;fontFamily=Poppins;fontSize=12;fontColor=default;" parent="M88rms9hJYf57tuRIVdl-166" vertex="1">
          <mxGeometry x="30" width="150" height="30" as="geometry">
            <mxRectangle width="150" height="30" as="alternateBounds" />
          </mxGeometry>
        </mxCell>
        <mxCell id="M88rms9hJYf57tuRIVdl-248" value="" style="shape=tableRow;horizontal=0;startSize=0;swimlaneHead=0;swimlaneBody=0;fillColor=none;collapsible=0;dropTarget=0;points=[[0,0.5],[1,0.5]];portConstraint=eastwest;top=0;left=0;right=0;bottom=0;rounded=0;align=center;verticalAlign=middle;fontFamily=Poppins;fontSize=12;fontColor=default;html=1;" parent="M88rms9hJYf57tuRIVdl-80" vertex="1">
          <mxGeometry y="180" width="180" height="30" as="geometry" />
        </mxCell>
        <mxCell id="M88rms9hJYf57tuRIVdl-249" value="" style="shape=partialRectangle;connectable=0;fillColor=none;top=0;left=0;bottom=0;right=0;editable=1;overflow=hidden;whiteSpace=wrap;html=1;rounded=0;align=center;verticalAlign=middle;fontFamily=Poppins;fontSize=12;fontColor=default;" parent="M88rms9hJYf57tuRIVdl-248" vertex="1">
          <mxGeometry width="30" height="30" as="geometry">
            <mxRectangle width="30" height="30" as="alternateBounds" />
          </mxGeometry>
        </mxCell>
        <mxCell id="M88rms9hJYf57tuRIVdl-250" value="DonationStatus" style="shape=partialRectangle;connectable=0;fillColor=none;top=0;left=0;bottom=0;right=0;align=left;spacingLeft=6;overflow=hidden;whiteSpace=wrap;html=1;rounded=0;verticalAlign=middle;fontFamily=Poppins;fontSize=12;fontColor=default;" parent="M88rms9hJYf57tuRIVdl-248" vertex="1">
          <mxGeometry x="30" width="150" height="30" as="geometry">
            <mxRectangle width="150" height="30" as="alternateBounds" />
          </mxGeometry>
        </mxCell>
        <mxCell id="M88rms9hJYf57tuRIVdl-93" value="" style="shape=tableRow;horizontal=0;startSize=0;swimlaneHead=0;swimlaneBody=0;fillColor=none;collapsible=0;dropTarget=0;points=[[0,0.5],[1,0.5]];portConstraint=eastwest;top=0;left=0;right=0;bottom=0;rounded=0;align=center;verticalAlign=middle;fontFamily=Poppins;fontSize=12;fontColor=default;html=1;" parent="M88rms9hJYf57tuRIVdl-80" vertex="1">
          <mxGeometry y="210" width="180" height="30" as="geometry" />
        </mxCell>
        <mxCell id="M88rms9hJYf57tuRIVdl-94" value="FK" style="shape=partialRectangle;connectable=0;fillColor=none;top=0;left=0;bottom=0;right=0;editable=1;overflow=hidden;whiteSpace=wrap;html=1;rounded=0;align=center;verticalAlign=middle;fontFamily=Poppins;fontSize=12;fontColor=default;" parent="M88rms9hJYf57tuRIVdl-93" vertex="1">
          <mxGeometry width="30" height="30" as="geometry">
            <mxRectangle width="30" height="30" as="alternateBounds" />
          </mxGeometry>
        </mxCell>
        <mxCell id="M88rms9hJYf57tuRIVdl-95" value="CharityID" style="shape=partialRectangle;connectable=0;fillColor=none;top=0;left=0;bottom=0;right=0;align=left;spacingLeft=6;overflow=hidden;whiteSpace=wrap;html=1;rounded=0;verticalAlign=middle;fontFamily=Poppins;fontSize=12;fontColor=default;" parent="M88rms9hJYf57tuRIVdl-93" vertex="1">
          <mxGeometry x="30" width="150" height="30" as="geometry">
            <mxRectangle width="150" height="30" as="alternateBounds" />
          </mxGeometry>
        </mxCell>
        <mxCell id="M88rms9hJYf57tuRIVdl-132" value="" style="shape=tableRow;horizontal=0;startSize=0;swimlaneHead=0;swimlaneBody=0;fillColor=none;collapsible=0;dropTarget=0;points=[[0,0.5],[1,0.5]];portConstraint=eastwest;top=0;left=0;right=0;bottom=0;rounded=0;align=center;verticalAlign=middle;fontFamily=Poppins;fontSize=12;fontColor=default;html=1;" parent="M88rms9hJYf57tuRIVdl-80" vertex="1">
          <mxGeometry y="240" width="180" height="30" as="geometry" />
        </mxCell>
        <mxCell id="M88rms9hJYf57tuRIVdl-133" value="FK" style="shape=partialRectangle;connectable=0;fillColor=none;top=0;left=0;bottom=0;right=0;editable=1;overflow=hidden;whiteSpace=wrap;html=1;rounded=0;align=center;verticalAlign=middle;fontFamily=Poppins;fontSize=12;fontColor=default;" parent="M88rms9hJYf57tuRIVdl-132" vertex="1">
          <mxGeometry width="30" height="30" as="geometry">
            <mxRectangle width="30" height="30" as="alternateBounds" />
          </mxGeometry>
        </mxCell>
        <mxCell id="M88rms9hJYf57tuRIVdl-134" value="ItemID" style="shape=partialRectangle;connectable=0;fillColor=none;top=0;left=0;bottom=0;right=0;align=left;spacingLeft=6;overflow=hidden;whiteSpace=wrap;html=1;rounded=0;verticalAlign=middle;fontFamily=Poppins;fontSize=12;fontColor=default;" parent="M88rms9hJYf57tuRIVdl-132" vertex="1">
          <mxGeometry x="30" width="150" height="30" as="geometry">
            <mxRectangle width="150" height="30" as="alternateBounds" />
          </mxGeometry>
        </mxCell>
        <mxCell id="M88rms9hJYf57tuRIVdl-135" value="" style="shape=tableRow;horizontal=0;startSize=0;swimlaneHead=0;swimlaneBody=0;fillColor=none;collapsible=0;dropTarget=0;points=[[0,0.5],[1,0.5]];portConstraint=eastwest;top=0;left=0;right=0;bottom=0;rounded=0;align=center;verticalAlign=middle;fontFamily=Poppins;fontSize=12;fontColor=default;html=1;" parent="M88rms9hJYf57tuRIVdl-80" vertex="1">
          <mxGeometry y="270" width="180" height="30" as="geometry" />
        </mxCell>
        <mxCell id="M88rms9hJYf57tuRIVdl-136" value="FK" style="shape=partialRectangle;connectable=0;fillColor=none;top=0;left=0;bottom=0;right=0;editable=1;overflow=hidden;whiteSpace=wrap;html=1;rounded=0;align=center;verticalAlign=middle;fontFamily=Poppins;fontSize=12;fontColor=default;" parent="M88rms9hJYf57tuRIVdl-135" vertex="1">
          <mxGeometry width="30" height="30" as="geometry">
            <mxRectangle width="30" height="30" as="alternateBounds" />
          </mxGeometry>
        </mxCell>
        <mxCell id="M88rms9hJYf57tuRIVdl-137" value="DonorID" style="shape=partialRectangle;connectable=0;fillColor=none;top=0;left=0;bottom=0;right=0;align=left;spacingLeft=6;overflow=hidden;whiteSpace=wrap;html=1;rounded=0;verticalAlign=middle;fontFamily=Poppins;fontSize=12;fontColor=default;" parent="M88rms9hJYf57tuRIVdl-135" vertex="1">
          <mxGeometry x="30" width="150" height="30" as="geometry">
            <mxRectangle width="150" height="30" as="alternateBounds" />
          </mxGeometry>
        </mxCell>
        <mxCell id="M88rms9hJYf57tuRIVdl-163" value="" style="shape=tableRow;horizontal=0;startSize=0;swimlaneHead=0;swimlaneBody=0;fillColor=none;collapsible=0;dropTarget=0;points=[[0,0.5],[1,0.5]];portConstraint=eastwest;top=0;left=0;right=0;bottom=0;rounded=0;align=center;verticalAlign=middle;fontFamily=Poppins;fontSize=12;fontColor=default;html=1;" parent="M88rms9hJYf57tuRIVdl-80" vertex="1">
          <mxGeometry y="300" width="180" height="30" as="geometry" />
        </mxCell>
        <mxCell id="M88rms9hJYf57tuRIVdl-164" value="FK" style="shape=partialRectangle;connectable=0;fillColor=none;top=0;left=0;bottom=0;right=0;editable=1;overflow=hidden;whiteSpace=wrap;html=1;rounded=0;align=center;verticalAlign=middle;fontFamily=Poppins;fontSize=12;fontColor=default;" parent="M88rms9hJYf57tuRIVdl-163" vertex="1">
          <mxGeometry width="30" height="30" as="geometry">
            <mxRectangle width="30" height="30" as="alternateBounds" />
          </mxGeometry>
        </mxCell>
        <mxCell id="M88rms9hJYf57tuRIVdl-165" value="RecipientID" style="shape=partialRectangle;connectable=0;fillColor=none;top=0;left=0;bottom=0;right=0;align=left;spacingLeft=6;overflow=hidden;whiteSpace=wrap;html=1;rounded=0;verticalAlign=middle;fontFamily=Poppins;fontSize=12;fontColor=default;" parent="M88rms9hJYf57tuRIVdl-163" vertex="1">
          <mxGeometry x="30" width="150" height="30" as="geometry">
            <mxRectangle width="150" height="30" as="alternateBounds" />
          </mxGeometry>
        </mxCell>
        <mxCell id="M88rms9hJYf57tuRIVdl-262" style="edgeStyle=orthogonalEdgeStyle;rounded=0;orthogonalLoop=1;jettySize=auto;html=1;entryX=0.5;entryY=0;entryDx=0;entryDy=0;fontFamily=Poppins;fontSize=12;fontColor=default;" parent="1" source="M88rms9hJYf57tuRIVdl-96" target="M88rms9hJYf57tuRIVdl-144" edge="1">
          <mxGeometry relative="1" as="geometry" />
        </mxCell>
        <mxCell id="M88rms9hJYf57tuRIVdl-96" value="User" style="shape=table;startSize=30;container=1;collapsible=1;childLayout=tableLayout;fixedRows=1;rowLines=0;fontStyle=1;align=center;resizeLast=1;html=1;rounded=0;verticalAlign=middle;fontFamily=Poppins;fontSize=12;fontColor=default;fillColor=none;gradientColor=none;" parent="1" vertex="1">
          <mxGeometry x="570" y="250" width="180" height="300" as="geometry" />
        </mxCell>
        <mxCell id="M88rms9hJYf57tuRIVdl-97" value="" style="shape=tableRow;horizontal=0;startSize=0;swimlaneHead=0;swimlaneBody=0;fillColor=none;collapsible=0;dropTarget=0;points=[[0,0.5],[1,0.5]];portConstraint=eastwest;top=0;left=0;right=0;bottom=1;rounded=0;align=center;verticalAlign=middle;fontFamily=Poppins;fontSize=12;fontColor=default;html=1;" parent="M88rms9hJYf57tuRIVdl-96" vertex="1">
          <mxGeometry y="30" width="180" height="30" as="geometry" />
        </mxCell>
        <mxCell id="M88rms9hJYf57tuRIVdl-98" value="PK" style="shape=partialRectangle;connectable=0;fillColor=none;top=0;left=0;bottom=0;right=0;fontStyle=1;overflow=hidden;whiteSpace=wrap;html=1;rounded=0;align=center;verticalAlign=middle;fontFamily=Poppins;fontSize=12;fontColor=default;" parent="M88rms9hJYf57tuRIVdl-97" vertex="1">
          <mxGeometry width="30" height="30" as="geometry">
            <mxRectangle width="30" height="30" as="alternateBounds" />
          </mxGeometry>
        </mxCell>
        <mxCell id="M88rms9hJYf57tuRIVdl-99" value="UserID" style="shape=partialRectangle;connectable=0;fillColor=none;top=0;left=0;bottom=0;right=0;align=left;spacingLeft=6;fontStyle=5;overflow=hidden;whiteSpace=wrap;html=1;rounded=0;verticalAlign=middle;fontFamily=Poppins;fontSize=12;fontColor=default;" parent="M88rms9hJYf57tuRIVdl-97" vertex="1">
          <mxGeometry x="30" width="150" height="30" as="geometry">
            <mxRectangle width="150" height="30" as="alternateBounds" />
          </mxGeometry>
        </mxCell>
        <mxCell id="M88rms9hJYf57tuRIVdl-100" value="" style="shape=tableRow;horizontal=0;startSize=0;swimlaneHead=0;swimlaneBody=0;fillColor=none;collapsible=0;dropTarget=0;points=[[0,0.5],[1,0.5]];portConstraint=eastwest;top=0;left=0;right=0;bottom=0;rounded=0;align=center;verticalAlign=middle;fontFamily=Poppins;fontSize=12;fontColor=default;html=1;" parent="M88rms9hJYf57tuRIVdl-96" vertex="1">
          <mxGeometry y="60" width="180" height="30" as="geometry" />
        </mxCell>
        <mxCell id="M88rms9hJYf57tuRIVdl-101" value="" style="shape=partialRectangle;connectable=0;fillColor=none;top=0;left=0;bottom=0;right=0;editable=1;overflow=hidden;whiteSpace=wrap;html=1;rounded=0;align=center;verticalAlign=middle;fontFamily=Poppins;fontSize=12;fontColor=default;" parent="M88rms9hJYf57tuRIVdl-100" vertex="1">
          <mxGeometry width="30" height="30" as="geometry">
            <mxRectangle width="30" height="30" as="alternateBounds" />
          </mxGeometry>
        </mxCell>
        <mxCell id="M88rms9hJYf57tuRIVdl-102" value="UserName" style="shape=partialRectangle;connectable=0;fillColor=none;top=0;left=0;bottom=0;right=0;align=left;spacingLeft=6;overflow=hidden;whiteSpace=wrap;html=1;rounded=0;verticalAlign=middle;fontFamily=Poppins;fontSize=12;fontColor=default;" parent="M88rms9hJYf57tuRIVdl-100" vertex="1">
          <mxGeometry x="30" width="150" height="30" as="geometry">
            <mxRectangle width="150" height="30" as="alternateBounds" />
          </mxGeometry>
        </mxCell>
        <mxCell id="M88rms9hJYf57tuRIVdl-103" value="" style="shape=tableRow;horizontal=0;startSize=0;swimlaneHead=0;swimlaneBody=0;fillColor=none;collapsible=0;dropTarget=0;points=[[0,0.5],[1,0.5]];portConstraint=eastwest;top=0;left=0;right=0;bottom=0;rounded=0;align=center;verticalAlign=middle;fontFamily=Poppins;fontSize=12;fontColor=default;html=1;" parent="M88rms9hJYf57tuRIVdl-96" vertex="1">
          <mxGeometry y="90" width="180" height="30" as="geometry" />
        </mxCell>
        <mxCell id="M88rms9hJYf57tuRIVdl-104" value="" style="shape=partialRectangle;connectable=0;fillColor=none;top=0;left=0;bottom=0;right=0;editable=1;overflow=hidden;whiteSpace=wrap;html=1;rounded=0;align=center;verticalAlign=middle;fontFamily=Poppins;fontSize=12;fontColor=default;" parent="M88rms9hJYf57tuRIVdl-103" vertex="1">
          <mxGeometry width="30" height="30" as="geometry">
            <mxRectangle width="30" height="30" as="alternateBounds" />
          </mxGeometry>
        </mxCell>
        <mxCell id="M88rms9hJYf57tuRIVdl-105" value="UserEmail" style="shape=partialRectangle;connectable=0;fillColor=none;top=0;left=0;bottom=0;right=0;align=left;spacingLeft=6;overflow=hidden;whiteSpace=wrap;html=1;rounded=0;verticalAlign=middle;fontFamily=Poppins;fontSize=12;fontColor=default;" parent="M88rms9hJYf57tuRIVdl-103" vertex="1">
          <mxGeometry x="30" width="150" height="30" as="geometry">
            <mxRectangle width="150" height="30" as="alternateBounds" />
          </mxGeometry>
        </mxCell>
        <mxCell id="M88rms9hJYf57tuRIVdl-106" value="" style="shape=tableRow;horizontal=0;startSize=0;swimlaneHead=0;swimlaneBody=0;fillColor=none;collapsible=0;dropTarget=0;points=[[0,0.5],[1,0.5]];portConstraint=eastwest;top=0;left=0;right=0;bottom=0;rounded=0;align=center;verticalAlign=middle;fontFamily=Poppins;fontSize=12;fontColor=default;html=1;" parent="M88rms9hJYf57tuRIVdl-96" vertex="1">
          <mxGeometry y="120" width="180" height="30" as="geometry" />
        </mxCell>
        <mxCell id="M88rms9hJYf57tuRIVdl-107" value="" style="shape=partialRectangle;connectable=0;fillColor=none;top=0;left=0;bottom=0;right=0;editable=1;overflow=hidden;whiteSpace=wrap;html=1;rounded=0;align=center;verticalAlign=middle;fontFamily=Poppins;fontSize=12;fontColor=default;" parent="M88rms9hJYf57tuRIVdl-106" vertex="1">
          <mxGeometry width="30" height="30" as="geometry">
            <mxRectangle width="30" height="30" as="alternateBounds" />
          </mxGeometry>
        </mxCell>
        <mxCell id="M88rms9hJYf57tuRIVdl-108" value="UserPassword" style="shape=partialRectangle;connectable=0;fillColor=none;top=0;left=0;bottom=0;right=0;align=left;spacingLeft=6;overflow=hidden;whiteSpace=wrap;html=1;rounded=0;verticalAlign=middle;fontFamily=Poppins;fontSize=12;fontColor=default;" parent="M88rms9hJYf57tuRIVdl-106" vertex="1">
          <mxGeometry x="30" width="150" height="30" as="geometry">
            <mxRectangle width="150" height="30" as="alternateBounds" />
          </mxGeometry>
        </mxCell>
        <mxCell id="M88rms9hJYf57tuRIVdl-112" value="" style="shape=tableRow;horizontal=0;startSize=0;swimlaneHead=0;swimlaneBody=0;fillColor=none;collapsible=0;dropTarget=0;points=[[0,0.5],[1,0.5]];portConstraint=eastwest;top=0;left=0;right=0;bottom=0;rounded=0;align=center;verticalAlign=middle;fontFamily=Poppins;fontSize=12;fontColor=default;html=1;" parent="M88rms9hJYf57tuRIVdl-96" vertex="1">
          <mxGeometry y="150" width="180" height="30" as="geometry" />
        </mxCell>
        <mxCell id="M88rms9hJYf57tuRIVdl-113" value="" style="shape=partialRectangle;connectable=0;fillColor=none;top=0;left=0;bottom=0;right=0;editable=1;overflow=hidden;whiteSpace=wrap;html=1;rounded=0;align=center;verticalAlign=middle;fontFamily=Poppins;fontSize=12;fontColor=default;" parent="M88rms9hJYf57tuRIVdl-112" vertex="1">
          <mxGeometry width="30" height="30" as="geometry">
            <mxRectangle width="30" height="30" as="alternateBounds" />
          </mxGeometry>
        </mxCell>
        <mxCell id="M88rms9hJYf57tuRIVdl-114" value="UserAddress" style="shape=partialRectangle;connectable=0;fillColor=none;top=0;left=0;bottom=0;right=0;align=left;spacingLeft=6;overflow=hidden;whiteSpace=wrap;html=1;rounded=0;verticalAlign=middle;fontFamily=Poppins;fontSize=12;fontColor=default;" parent="M88rms9hJYf57tuRIVdl-112" vertex="1">
          <mxGeometry x="30" width="150" height="30" as="geometry">
            <mxRectangle width="150" height="30" as="alternateBounds" />
          </mxGeometry>
        </mxCell>
        <mxCell id="M88rms9hJYf57tuRIVdl-109" value="" style="shape=tableRow;horizontal=0;startSize=0;swimlaneHead=0;swimlaneBody=0;fillColor=none;collapsible=0;dropTarget=0;points=[[0,0.5],[1,0.5]];portConstraint=eastwest;top=0;left=0;right=0;bottom=0;rounded=0;align=center;verticalAlign=middle;fontFamily=Poppins;fontSize=12;fontColor=default;html=1;" parent="M88rms9hJYf57tuRIVdl-96" vertex="1">
          <mxGeometry y="180" width="180" height="30" as="geometry" />
        </mxCell>
        <mxCell id="M88rms9hJYf57tuRIVdl-110" value="" style="shape=partialRectangle;connectable=0;fillColor=none;top=0;left=0;bottom=0;right=0;editable=1;overflow=hidden;whiteSpace=wrap;html=1;rounded=0;align=center;verticalAlign=middle;fontFamily=Poppins;fontSize=12;fontColor=default;" parent="M88rms9hJYf57tuRIVdl-109" vertex="1">
          <mxGeometry width="30" height="30" as="geometry">
            <mxRectangle width="30" height="30" as="alternateBounds" />
          </mxGeometry>
        </mxCell>
        <mxCell id="M88rms9hJYf57tuRIVdl-111" value="UserProfileImage" style="shape=partialRectangle;connectable=0;fillColor=none;top=0;left=0;bottom=0;right=0;align=left;spacingLeft=6;overflow=hidden;whiteSpace=wrap;html=1;rounded=0;verticalAlign=middle;fontFamily=Poppins;fontSize=12;fontColor=default;" parent="M88rms9hJYf57tuRIVdl-109" vertex="1">
          <mxGeometry x="30" width="150" height="30" as="geometry">
            <mxRectangle width="150" height="30" as="alternateBounds" />
          </mxGeometry>
        </mxCell>
        <mxCell id="M88rms9hJYf57tuRIVdl-251" value="" style="shape=tableRow;horizontal=0;startSize=0;swimlaneHead=0;swimlaneBody=0;fillColor=none;collapsible=0;dropTarget=0;points=[[0,0.5],[1,0.5]];portConstraint=eastwest;top=0;left=0;right=0;bottom=0;rounded=0;align=center;verticalAlign=middle;fontFamily=Poppins;fontSize=12;fontColor=default;html=1;" parent="M88rms9hJYf57tuRIVdl-96" vertex="1">
          <mxGeometry y="210" width="180" height="30" as="geometry" />
        </mxCell>
        <mxCell id="M88rms9hJYf57tuRIVdl-252" value="" style="shape=partialRectangle;connectable=0;fillColor=none;top=0;left=0;bottom=0;right=0;editable=1;overflow=hidden;whiteSpace=wrap;html=1;rounded=0;align=center;verticalAlign=middle;fontFamily=Poppins;fontSize=12;fontColor=default;" parent="M88rms9hJYf57tuRIVdl-251" vertex="1">
          <mxGeometry width="30" height="30" as="geometry">
            <mxRectangle width="30" height="30" as="alternateBounds" />
          </mxGeometry>
        </mxCell>
        <mxCell id="M88rms9hJYf57tuRIVdl-253" value="UserLastAccess" style="shape=partialRectangle;connectable=0;fillColor=none;top=0;left=0;bottom=0;right=0;align=left;spacingLeft=6;overflow=hidden;whiteSpace=wrap;html=1;rounded=0;verticalAlign=middle;fontFamily=Poppins;fontSize=12;fontColor=default;" parent="M88rms9hJYf57tuRIVdl-251" vertex="1">
          <mxGeometry x="30" width="150" height="30" as="geometry">
            <mxRectangle width="150" height="30" as="alternateBounds" />
          </mxGeometry>
        </mxCell>
        <mxCell id="M88rms9hJYf57tuRIVdl-254" value="" style="shape=tableRow;horizontal=0;startSize=0;swimlaneHead=0;swimlaneBody=0;fillColor=none;collapsible=0;dropTarget=0;points=[[0,0.5],[1,0.5]];portConstraint=eastwest;top=0;left=0;right=0;bottom=0;rounded=0;align=center;verticalAlign=middle;fontFamily=Poppins;fontSize=12;fontColor=default;html=1;" parent="M88rms9hJYf57tuRIVdl-96" vertex="1">
          <mxGeometry y="240" width="180" height="30" as="geometry" />
        </mxCell>
        <mxCell id="M88rms9hJYf57tuRIVdl-255" value="" style="shape=partialRectangle;connectable=0;fillColor=none;top=0;left=0;bottom=0;right=0;editable=1;overflow=hidden;whiteSpace=wrap;html=1;rounded=0;align=center;verticalAlign=middle;fontFamily=Poppins;fontSize=12;fontColor=default;" parent="M88rms9hJYf57tuRIVdl-254" vertex="1">
          <mxGeometry width="30" height="30" as="geometry">
            <mxRectangle width="30" height="30" as="alternateBounds" />
          </mxGeometry>
        </mxCell>
        <mxCell id="M88rms9hJYf57tuRIVdl-256" value="UserLastUpdate" style="shape=partialRectangle;connectable=0;fillColor=none;top=0;left=0;bottom=0;right=0;align=left;spacingLeft=6;overflow=hidden;whiteSpace=wrap;html=1;rounded=0;verticalAlign=middle;fontFamily=Poppins;fontSize=12;fontColor=default;" parent="M88rms9hJYf57tuRIVdl-254" vertex="1">
          <mxGeometry x="30" width="150" height="30" as="geometry">
            <mxRectangle width="150" height="30" as="alternateBounds" />
          </mxGeometry>
        </mxCell>
        <mxCell id="M88rms9hJYf57tuRIVdl-266" value="" style="shape=tableRow;horizontal=0;startSize=0;swimlaneHead=0;swimlaneBody=0;fillColor=none;collapsible=0;dropTarget=0;points=[[0,0.5],[1,0.5]];portConstraint=eastwest;top=0;left=0;right=0;bottom=0;rounded=0;align=center;verticalAlign=middle;fontFamily=Poppins;fontSize=12;fontColor=default;html=1;" parent="M88rms9hJYf57tuRIVdl-96" vertex="1">
          <mxGeometry y="270" width="180" height="30" as="geometry" />
        </mxCell>
        <mxCell id="M88rms9hJYf57tuRIVdl-267" value="" style="shape=partialRectangle;connectable=0;fillColor=none;top=0;left=0;bottom=0;right=0;editable=1;overflow=hidden;whiteSpace=wrap;html=1;rounded=0;align=center;verticalAlign=middle;fontFamily=Poppins;fontSize=12;fontColor=default;" parent="M88rms9hJYf57tuRIVdl-266" vertex="1">
          <mxGeometry width="30" height="30" as="geometry">
            <mxRectangle width="30" height="30" as="alternateBounds" />
          </mxGeometry>
        </mxCell>
        <mxCell id="M88rms9hJYf57tuRIVdl-268" value="AdminID" style="shape=partialRectangle;connectable=0;fillColor=none;top=0;left=0;bottom=0;right=0;align=left;spacingLeft=6;overflow=hidden;whiteSpace=wrap;html=1;rounded=0;verticalAlign=middle;fontFamily=Poppins;fontSize=12;fontColor=default;" parent="M88rms9hJYf57tuRIVdl-266" vertex="1">
          <mxGeometry x="30" width="150" height="30" as="geometry">
            <mxRectangle width="150" height="30" as="alternateBounds" />
          </mxGeometry>
        </mxCell>
        <mxCell id="M88rms9hJYf57tuRIVdl-115" value="&lt;h1&gt;Online Charity Donation System&lt;/h1&gt;&lt;p&gt;This system is implemented to support SDG goal 3: good health and well-being&lt;/p&gt;" style="text;html=1;strokeColor=none;fillColor=none;spacing=5;spacingTop=-20;whiteSpace=wrap;overflow=hidden;rounded=0;fontSize=12;fontFamily=Poppins;fontColor=default;" parent="1" vertex="1">
          <mxGeometry x="110" y="120" width="660" height="120" as="geometry" />
        </mxCell>
        <mxCell id="M88rms9hJYf57tuRIVdl-261" style="edgeStyle=orthogonalEdgeStyle;rounded=0;orthogonalLoop=1;jettySize=auto;html=1;entryX=0.5;entryY=0;entryDx=0;entryDy=0;fontFamily=Poppins;fontSize=12;fontColor=default;" parent="1" source="M88rms9hJYf57tuRIVdl-116" target="M88rms9hJYf57tuRIVdl-188" edge="1">
          <mxGeometry relative="1" as="geometry" />
        </mxCell>
        <mxCell id="M88rms9hJYf57tuRIVdl-116" value="Item" style="shape=table;startSize=30;container=1;collapsible=1;childLayout=tableLayout;fixedRows=1;rowLines=0;fontStyle=1;align=center;resizeLast=1;html=1;rounded=0;verticalAlign=middle;fontFamily=Poppins;fontSize=12;fontColor=default;fillColor=none;gradientColor=none;" parent="1" vertex="1">
          <mxGeometry x="110" y="250" width="180" height="210" as="geometry" />
        </mxCell>
        <mxCell id="M88rms9hJYf57tuRIVdl-117" value="" style="shape=tableRow;horizontal=0;startSize=0;swimlaneHead=0;swimlaneBody=0;fillColor=none;collapsible=0;dropTarget=0;points=[[0,0.5],[1,0.5]];portConstraint=eastwest;top=0;left=0;right=0;bottom=1;rounded=0;align=center;verticalAlign=middle;fontFamily=Poppins;fontSize=12;fontColor=default;html=1;" parent="M88rms9hJYf57tuRIVdl-116" vertex="1">
          <mxGeometry y="30" width="180" height="30" as="geometry" />
        </mxCell>
        <mxCell id="M88rms9hJYf57tuRIVdl-118" value="PK" style="shape=partialRectangle;connectable=0;fillColor=none;top=0;left=0;bottom=0;right=0;fontStyle=1;overflow=hidden;whiteSpace=wrap;html=1;rounded=0;align=center;verticalAlign=middle;fontFamily=Poppins;fontSize=12;fontColor=default;" parent="M88rms9hJYf57tuRIVdl-117" vertex="1">
          <mxGeometry width="30" height="30" as="geometry">
            <mxRectangle width="30" height="30" as="alternateBounds" />
          </mxGeometry>
        </mxCell>
        <mxCell id="M88rms9hJYf57tuRIVdl-119" value="ItemID" style="shape=partialRectangle;connectable=0;fillColor=none;top=0;left=0;bottom=0;right=0;align=left;spacingLeft=6;fontStyle=5;overflow=hidden;whiteSpace=wrap;html=1;rounded=0;verticalAlign=middle;fontFamily=Poppins;fontSize=12;fontColor=default;" parent="M88rms9hJYf57tuRIVdl-117" vertex="1">
          <mxGeometry x="30" width="150" height="30" as="geometry">
            <mxRectangle width="150" height="30" as="alternateBounds" />
          </mxGeometry>
        </mxCell>
        <mxCell id="M88rms9hJYf57tuRIVdl-120" value="" style="shape=tableRow;horizontal=0;startSize=0;swimlaneHead=0;swimlaneBody=0;fillColor=none;collapsible=0;dropTarget=0;points=[[0,0.5],[1,0.5]];portConstraint=eastwest;top=0;left=0;right=0;bottom=0;rounded=0;align=center;verticalAlign=middle;fontFamily=Poppins;fontSize=12;fontColor=default;html=1;" parent="M88rms9hJYf57tuRIVdl-116" vertex="1">
          <mxGeometry y="60" width="180" height="30" as="geometry" />
        </mxCell>
        <mxCell id="M88rms9hJYf57tuRIVdl-121" value="" style="shape=partialRectangle;connectable=0;fillColor=none;top=0;left=0;bottom=0;right=0;editable=1;overflow=hidden;whiteSpace=wrap;html=1;rounded=0;align=center;verticalAlign=middle;fontFamily=Poppins;fontSize=12;fontColor=default;" parent="M88rms9hJYf57tuRIVdl-120" vertex="1">
          <mxGeometry width="30" height="30" as="geometry">
            <mxRectangle width="30" height="30" as="alternateBounds" />
          </mxGeometry>
        </mxCell>
        <mxCell id="M88rms9hJYf57tuRIVdl-122" value="ItemName" style="shape=partialRectangle;connectable=0;fillColor=none;top=0;left=0;bottom=0;right=0;align=left;spacingLeft=6;overflow=hidden;whiteSpace=wrap;html=1;rounded=0;verticalAlign=middle;fontFamily=Poppins;fontSize=12;fontColor=default;" parent="M88rms9hJYf57tuRIVdl-120" vertex="1">
          <mxGeometry x="30" width="150" height="30" as="geometry">
            <mxRectangle width="150" height="30" as="alternateBounds" />
          </mxGeometry>
        </mxCell>
        <mxCell id="M88rms9hJYf57tuRIVdl-123" value="" style="shape=tableRow;horizontal=0;startSize=0;swimlaneHead=0;swimlaneBody=0;fillColor=none;collapsible=0;dropTarget=0;points=[[0,0.5],[1,0.5]];portConstraint=eastwest;top=0;left=0;right=0;bottom=0;rounded=0;align=center;verticalAlign=middle;fontFamily=Poppins;fontSize=12;fontColor=default;html=1;" parent="M88rms9hJYf57tuRIVdl-116" vertex="1">
          <mxGeometry y="90" width="180" height="30" as="geometry" />
        </mxCell>
        <mxCell id="M88rms9hJYf57tuRIVdl-124" value="" style="shape=partialRectangle;connectable=0;fillColor=none;top=0;left=0;bottom=0;right=0;editable=1;overflow=hidden;whiteSpace=wrap;html=1;rounded=0;align=center;verticalAlign=middle;fontFamily=Poppins;fontSize=12;fontColor=default;" parent="M88rms9hJYf57tuRIVdl-123" vertex="1">
          <mxGeometry width="30" height="30" as="geometry">
            <mxRectangle width="30" height="30" as="alternateBounds" />
          </mxGeometry>
        </mxCell>
        <mxCell id="M88rms9hJYf57tuRIVdl-125" value="ItemQuantity" style="shape=partialRectangle;connectable=0;fillColor=none;top=0;left=0;bottom=0;right=0;align=left;spacingLeft=6;overflow=hidden;whiteSpace=wrap;html=1;rounded=0;verticalAlign=middle;fontFamily=Poppins;fontSize=12;fontColor=default;" parent="M88rms9hJYf57tuRIVdl-123" vertex="1">
          <mxGeometry x="30" width="150" height="30" as="geometry">
            <mxRectangle width="150" height="30" as="alternateBounds" />
          </mxGeometry>
        </mxCell>
        <mxCell id="M88rms9hJYf57tuRIVdl-141" value="" style="shape=tableRow;horizontal=0;startSize=0;swimlaneHead=0;swimlaneBody=0;fillColor=none;collapsible=0;dropTarget=0;points=[[0,0.5],[1,0.5]];portConstraint=eastwest;top=0;left=0;right=0;bottom=0;rounded=0;align=center;verticalAlign=middle;fontFamily=Poppins;fontSize=12;fontColor=default;html=1;" parent="M88rms9hJYf57tuRIVdl-116" vertex="1">
          <mxGeometry y="120" width="180" height="30" as="geometry" />
        </mxCell>
        <mxCell id="M88rms9hJYf57tuRIVdl-142" value="" style="shape=partialRectangle;connectable=0;fillColor=none;top=0;left=0;bottom=0;right=0;editable=1;overflow=hidden;whiteSpace=wrap;html=1;rounded=0;align=center;verticalAlign=middle;fontFamily=Poppins;fontSize=12;fontColor=default;" parent="M88rms9hJYf57tuRIVdl-141" vertex="1">
          <mxGeometry width="30" height="30" as="geometry">
            <mxRectangle width="30" height="30" as="alternateBounds" />
          </mxGeometry>
        </mxCell>
        <mxCell id="M88rms9hJYf57tuRIVdl-143" value="ItemImage" style="shape=partialRectangle;connectable=0;fillColor=none;top=0;left=0;bottom=0;right=0;align=left;spacingLeft=6;overflow=hidden;whiteSpace=wrap;html=1;rounded=0;verticalAlign=middle;fontFamily=Poppins;fontSize=12;fontColor=default;" parent="M88rms9hJYf57tuRIVdl-141" vertex="1">
          <mxGeometry x="30" width="150" height="30" as="geometry">
            <mxRectangle width="150" height="30" as="alternateBounds" />
          </mxGeometry>
        </mxCell>
        <mxCell id="M88rms9hJYf57tuRIVdl-126" value="" style="shape=tableRow;horizontal=0;startSize=0;swimlaneHead=0;swimlaneBody=0;fillColor=none;collapsible=0;dropTarget=0;points=[[0,0.5],[1,0.5]];portConstraint=eastwest;top=0;left=0;right=0;bottom=0;rounded=0;align=center;verticalAlign=middle;fontFamily=Poppins;fontSize=12;fontColor=default;html=1;" parent="M88rms9hJYf57tuRIVdl-116" vertex="1">
          <mxGeometry y="150" width="180" height="30" as="geometry" />
        </mxCell>
        <mxCell id="M88rms9hJYf57tuRIVdl-127" value="FK" style="shape=partialRectangle;connectable=0;fillColor=none;top=0;left=0;bottom=0;right=0;editable=1;overflow=hidden;whiteSpace=wrap;html=1;rounded=0;align=center;verticalAlign=middle;fontFamily=Poppins;fontSize=12;fontColor=default;" parent="M88rms9hJYf57tuRIVdl-126" vertex="1">
          <mxGeometry width="30" height="30" as="geometry">
            <mxRectangle width="30" height="30" as="alternateBounds" />
          </mxGeometry>
        </mxCell>
        <mxCell id="M88rms9hJYf57tuRIVdl-128" value="CategoryID" style="shape=partialRectangle;connectable=0;fillColor=none;top=0;left=0;bottom=0;right=0;align=left;spacingLeft=6;overflow=hidden;whiteSpace=wrap;html=1;rounded=0;verticalAlign=middle;fontFamily=Poppins;fontSize=12;fontColor=default;" parent="M88rms9hJYf57tuRIVdl-126" vertex="1">
          <mxGeometry x="30" width="150" height="30" as="geometry">
            <mxRectangle width="150" height="30" as="alternateBounds" />
          </mxGeometry>
        </mxCell>
        <mxCell id="M88rms9hJYf57tuRIVdl-129" value="" style="shape=tableRow;horizontal=0;startSize=0;swimlaneHead=0;swimlaneBody=0;fillColor=none;collapsible=0;dropTarget=0;points=[[0,0.5],[1,0.5]];portConstraint=eastwest;top=0;left=0;right=0;bottom=0;rounded=0;align=center;verticalAlign=middle;fontFamily=Poppins;fontSize=12;fontColor=default;html=1;" parent="M88rms9hJYf57tuRIVdl-116" vertex="1">
          <mxGeometry y="180" width="180" height="30" as="geometry" />
        </mxCell>
        <mxCell id="M88rms9hJYf57tuRIVdl-130" value="FK" style="shape=partialRectangle;connectable=0;fillColor=none;top=0;left=0;bottom=0;right=0;editable=1;overflow=hidden;whiteSpace=wrap;html=1;rounded=0;align=center;verticalAlign=middle;fontFamily=Poppins;fontSize=12;fontColor=default;" parent="M88rms9hJYf57tuRIVdl-129" vertex="1">
          <mxGeometry width="30" height="30" as="geometry">
            <mxRectangle width="30" height="30" as="alternateBounds" />
          </mxGeometry>
        </mxCell>
        <mxCell id="M88rms9hJYf57tuRIVdl-131" value="UserID" style="shape=partialRectangle;connectable=0;fillColor=none;top=0;left=0;bottom=0;right=0;align=left;spacingLeft=6;overflow=hidden;whiteSpace=wrap;html=1;rounded=0;verticalAlign=middle;fontFamily=Poppins;fontSize=12;fontColor=default;" parent="M88rms9hJYf57tuRIVdl-129" vertex="1">
          <mxGeometry x="30" width="150" height="30" as="geometry">
            <mxRectangle width="150" height="30" as="alternateBounds" />
          </mxGeometry>
        </mxCell>
        <mxCell id="M88rms9hJYf57tuRIVdl-144" value="Conversation" style="shape=table;startSize=30;container=1;collapsible=1;childLayout=tableLayout;fixedRows=1;rowLines=0;fontStyle=1;align=center;resizeLast=1;html=1;rounded=0;verticalAlign=middle;fontFamily=Poppins;fontSize=12;fontColor=default;fillColor=none;gradientColor=none;" parent="1" vertex="1">
          <mxGeometry x="570" y="660" width="180" height="210" as="geometry" />
        </mxCell>
        <mxCell id="M88rms9hJYf57tuRIVdl-145" value="" style="shape=tableRow;horizontal=0;startSize=0;swimlaneHead=0;swimlaneBody=0;fillColor=none;collapsible=0;dropTarget=0;points=[[0,0.5],[1,0.5]];portConstraint=eastwest;top=0;left=0;right=0;bottom=1;rounded=0;align=center;verticalAlign=middle;fontFamily=Poppins;fontSize=12;fontColor=default;html=1;" parent="M88rms9hJYf57tuRIVdl-144" vertex="1">
          <mxGeometry y="30" width="180" height="30" as="geometry" />
        </mxCell>
        <mxCell id="M88rms9hJYf57tuRIVdl-146" value="PK" style="shape=partialRectangle;connectable=0;fillColor=none;top=0;left=0;bottom=0;right=0;fontStyle=1;overflow=hidden;whiteSpace=wrap;html=1;rounded=0;align=center;verticalAlign=middle;fontFamily=Poppins;fontSize=12;fontColor=default;" parent="M88rms9hJYf57tuRIVdl-145" vertex="1">
          <mxGeometry width="30" height="30" as="geometry">
            <mxRectangle width="30" height="30" as="alternateBounds" />
          </mxGeometry>
        </mxCell>
        <mxCell id="M88rms9hJYf57tuRIVdl-147" value="MessageID" style="shape=partialRectangle;connectable=0;fillColor=none;top=0;left=0;bottom=0;right=0;align=left;spacingLeft=6;fontStyle=5;overflow=hidden;whiteSpace=wrap;html=1;rounded=0;verticalAlign=middle;fontFamily=Poppins;fontSize=12;fontColor=default;" parent="M88rms9hJYf57tuRIVdl-145" vertex="1">
          <mxGeometry x="30" width="150" height="30" as="geometry">
            <mxRectangle width="150" height="30" as="alternateBounds" />
          </mxGeometry>
        </mxCell>
        <mxCell id="M88rms9hJYf57tuRIVdl-148" value="" style="shape=tableRow;horizontal=0;startSize=0;swimlaneHead=0;swimlaneBody=0;fillColor=none;collapsible=0;dropTarget=0;points=[[0,0.5],[1,0.5]];portConstraint=eastwest;top=0;left=0;right=0;bottom=0;rounded=0;align=center;verticalAlign=middle;fontFamily=Poppins;fontSize=12;fontColor=default;html=1;" parent="M88rms9hJYf57tuRIVdl-144" vertex="1">
          <mxGeometry y="60" width="180" height="30" as="geometry" />
        </mxCell>
        <mxCell id="M88rms9hJYf57tuRIVdl-149" value="" style="shape=partialRectangle;connectable=0;fillColor=none;top=0;left=0;bottom=0;right=0;editable=1;overflow=hidden;whiteSpace=wrap;html=1;rounded=0;align=center;verticalAlign=middle;fontFamily=Poppins;fontSize=12;fontColor=default;" parent="M88rms9hJYf57tuRIVdl-148" vertex="1">
          <mxGeometry width="30" height="30" as="geometry">
            <mxRectangle width="30" height="30" as="alternateBounds" />
          </mxGeometry>
        </mxCell>
        <mxCell id="M88rms9hJYf57tuRIVdl-150" value="MessageContent" style="shape=partialRectangle;connectable=0;fillColor=none;top=0;left=0;bottom=0;right=0;align=left;spacingLeft=6;overflow=hidden;whiteSpace=wrap;html=1;rounded=0;verticalAlign=middle;fontFamily=Poppins;fontSize=12;fontColor=default;" parent="M88rms9hJYf57tuRIVdl-148" vertex="1">
          <mxGeometry x="30" width="150" height="30" as="geometry">
            <mxRectangle width="150" height="30" as="alternateBounds" />
          </mxGeometry>
        </mxCell>
        <mxCell id="M88rms9hJYf57tuRIVdl-151" value="" style="shape=tableRow;horizontal=0;startSize=0;swimlaneHead=0;swimlaneBody=0;fillColor=none;collapsible=0;dropTarget=0;points=[[0,0.5],[1,0.5]];portConstraint=eastwest;top=0;left=0;right=0;bottom=0;rounded=0;align=center;verticalAlign=middle;fontFamily=Poppins;fontSize=12;fontColor=default;html=1;" parent="M88rms9hJYf57tuRIVdl-144" vertex="1">
          <mxGeometry y="90" width="180" height="30" as="geometry" />
        </mxCell>
        <mxCell id="M88rms9hJYf57tuRIVdl-152" value="" style="shape=partialRectangle;connectable=0;fillColor=none;top=0;left=0;bottom=0;right=0;editable=1;overflow=hidden;whiteSpace=wrap;html=1;rounded=0;align=center;verticalAlign=middle;fontFamily=Poppins;fontSize=12;fontColor=default;" parent="M88rms9hJYf57tuRIVdl-151" vertex="1">
          <mxGeometry width="30" height="30" as="geometry">
            <mxRectangle width="30" height="30" as="alternateBounds" />
          </mxGeometry>
        </mxCell>
        <mxCell id="M88rms9hJYf57tuRIVdl-153" value="SentTime" style="shape=partialRectangle;connectable=0;fillColor=none;top=0;left=0;bottom=0;right=0;align=left;spacingLeft=6;overflow=hidden;whiteSpace=wrap;html=1;rounded=0;verticalAlign=middle;fontFamily=Poppins;fontSize=12;fontColor=default;" parent="M88rms9hJYf57tuRIVdl-151" vertex="1">
          <mxGeometry x="30" width="150" height="30" as="geometry">
            <mxRectangle width="150" height="30" as="alternateBounds" />
          </mxGeometry>
        </mxCell>
        <mxCell id="M88rms9hJYf57tuRIVdl-154" value="" style="shape=tableRow;horizontal=0;startSize=0;swimlaneHead=0;swimlaneBody=0;fillColor=none;collapsible=0;dropTarget=0;points=[[0,0.5],[1,0.5]];portConstraint=eastwest;top=0;left=0;right=0;bottom=0;rounded=0;align=center;verticalAlign=middle;fontFamily=Poppins;fontSize=12;fontColor=default;html=1;" parent="M88rms9hJYf57tuRIVdl-144" vertex="1">
          <mxGeometry y="120" width="180" height="30" as="geometry" />
        </mxCell>
        <mxCell id="M88rms9hJYf57tuRIVdl-155" value="" style="shape=partialRectangle;connectable=0;fillColor=none;top=0;left=0;bottom=0;right=0;editable=1;overflow=hidden;whiteSpace=wrap;html=1;rounded=0;align=center;verticalAlign=middle;fontFamily=Poppins;fontSize=12;fontColor=default;" parent="M88rms9hJYf57tuRIVdl-154" vertex="1">
          <mxGeometry width="30" height="30" as="geometry">
            <mxRectangle width="30" height="30" as="alternateBounds" />
          </mxGeometry>
        </mxCell>
        <mxCell id="M88rms9hJYf57tuRIVdl-156" value="ReceivedTime" style="shape=partialRectangle;connectable=0;fillColor=none;top=0;left=0;bottom=0;right=0;align=left;spacingLeft=6;overflow=hidden;whiteSpace=wrap;html=1;rounded=0;verticalAlign=middle;fontFamily=Poppins;fontSize=12;fontColor=default;" parent="M88rms9hJYf57tuRIVdl-154" vertex="1">
          <mxGeometry x="30" width="150" height="30" as="geometry">
            <mxRectangle width="150" height="30" as="alternateBounds" />
          </mxGeometry>
        </mxCell>
        <mxCell id="M88rms9hJYf57tuRIVdl-157" value="" style="shape=tableRow;horizontal=0;startSize=0;swimlaneHead=0;swimlaneBody=0;fillColor=none;collapsible=0;dropTarget=0;points=[[0,0.5],[1,0.5]];portConstraint=eastwest;top=0;left=0;right=0;bottom=0;rounded=0;align=center;verticalAlign=middle;fontFamily=Poppins;fontSize=12;fontColor=default;html=1;" parent="M88rms9hJYf57tuRIVdl-144" vertex="1">
          <mxGeometry y="150" width="180" height="30" as="geometry" />
        </mxCell>
        <mxCell id="M88rms9hJYf57tuRIVdl-158" value="" style="shape=partialRectangle;connectable=0;fillColor=none;top=0;left=0;bottom=0;right=0;editable=1;overflow=hidden;whiteSpace=wrap;html=1;rounded=0;align=center;verticalAlign=middle;fontFamily=Poppins;fontSize=12;fontColor=default;" parent="M88rms9hJYf57tuRIVdl-157" vertex="1">
          <mxGeometry width="30" height="30" as="geometry">
            <mxRectangle width="30" height="30" as="alternateBounds" />
          </mxGeometry>
        </mxCell>
        <mxCell id="M88rms9hJYf57tuRIVdl-159" value="SeenTime" style="shape=partialRectangle;connectable=0;fillColor=none;top=0;left=0;bottom=0;right=0;align=left;spacingLeft=6;overflow=hidden;whiteSpace=wrap;html=1;rounded=0;verticalAlign=middle;fontFamily=Poppins;fontSize=12;fontColor=default;" parent="M88rms9hJYf57tuRIVdl-157" vertex="1">
          <mxGeometry x="30" width="150" height="30" as="geometry">
            <mxRectangle width="150" height="30" as="alternateBounds" />
          </mxGeometry>
        </mxCell>
        <mxCell id="M88rms9hJYf57tuRIVdl-160" value="" style="shape=tableRow;horizontal=0;startSize=0;swimlaneHead=0;swimlaneBody=0;fillColor=none;collapsible=0;dropTarget=0;points=[[0,0.5],[1,0.5]];portConstraint=eastwest;top=0;left=0;right=0;bottom=0;rounded=0;align=center;verticalAlign=middle;fontFamily=Poppins;fontSize=12;fontColor=default;html=1;" parent="M88rms9hJYf57tuRIVdl-144" vertex="1">
          <mxGeometry y="180" width="180" height="30" as="geometry" />
        </mxCell>
        <mxCell id="M88rms9hJYf57tuRIVdl-161" value="" style="shape=partialRectangle;connectable=0;fillColor=none;top=0;left=0;bottom=0;right=0;editable=1;overflow=hidden;whiteSpace=wrap;html=1;rounded=0;align=center;verticalAlign=middle;fontFamily=Poppins;fontSize=12;fontColor=default;" parent="M88rms9hJYf57tuRIVdl-160" vertex="1">
          <mxGeometry width="30" height="30" as="geometry">
            <mxRectangle width="30" height="30" as="alternateBounds" />
          </mxGeometry>
        </mxCell>
        <mxCell id="M88rms9hJYf57tuRIVdl-162" value="UserAddress" style="shape=partialRectangle;connectable=0;fillColor=none;top=0;left=0;bottom=0;right=0;align=left;spacingLeft=6;overflow=hidden;whiteSpace=wrap;html=1;rounded=0;verticalAlign=middle;fontFamily=Poppins;fontSize=12;fontColor=default;" parent="M88rms9hJYf57tuRIVdl-160" vertex="1">
          <mxGeometry x="30" width="150" height="30" as="geometry">
            <mxRectangle width="150" height="30" as="alternateBounds" />
          </mxGeometry>
        </mxCell>
        <mxCell id="M88rms9hJYf57tuRIVdl-169" value="Charity" style="shape=table;startSize=30;container=1;collapsible=1;childLayout=tableLayout;fixedRows=1;rowLines=0;fontStyle=1;align=center;resizeLast=1;html=1;rounded=0;verticalAlign=middle;fontFamily=Poppins;fontSize=12;fontColor=default;fillColor=none;gradientColor=none;" parent="1" vertex="1">
          <mxGeometry x="330" y="660" width="180" height="300" as="geometry" />
        </mxCell>
        <mxCell id="M88rms9hJYf57tuRIVdl-170" value="" style="shape=tableRow;horizontal=0;startSize=0;swimlaneHead=0;swimlaneBody=0;fillColor=none;collapsible=0;dropTarget=0;points=[[0,0.5],[1,0.5]];portConstraint=eastwest;top=0;left=0;right=0;bottom=1;rounded=0;align=center;verticalAlign=middle;fontFamily=Poppins;fontSize=12;fontColor=default;html=1;" parent="M88rms9hJYf57tuRIVdl-169" vertex="1">
          <mxGeometry y="30" width="180" height="30" as="geometry" />
        </mxCell>
        <mxCell id="M88rms9hJYf57tuRIVdl-171" value="PK" style="shape=partialRectangle;connectable=0;fillColor=none;top=0;left=0;bottom=0;right=0;fontStyle=1;overflow=hidden;whiteSpace=wrap;html=1;rounded=0;align=center;verticalAlign=middle;fontFamily=Poppins;fontSize=12;fontColor=default;" parent="M88rms9hJYf57tuRIVdl-170" vertex="1">
          <mxGeometry width="30" height="30" as="geometry">
            <mxRectangle width="30" height="30" as="alternateBounds" />
          </mxGeometry>
        </mxCell>
        <mxCell id="M88rms9hJYf57tuRIVdl-172" value="CharityID" style="shape=partialRectangle;connectable=0;fillColor=none;top=0;left=0;bottom=0;right=0;align=left;spacingLeft=6;fontStyle=5;overflow=hidden;whiteSpace=wrap;html=1;rounded=0;verticalAlign=middle;fontFamily=Poppins;fontSize=12;fontColor=default;" parent="M88rms9hJYf57tuRIVdl-170" vertex="1">
          <mxGeometry x="30" width="150" height="30" as="geometry">
            <mxRectangle width="150" height="30" as="alternateBounds" />
          </mxGeometry>
        </mxCell>
        <mxCell id="M88rms9hJYf57tuRIVdl-173" value="" style="shape=tableRow;horizontal=0;startSize=0;swimlaneHead=0;swimlaneBody=0;fillColor=none;collapsible=0;dropTarget=0;points=[[0,0.5],[1,0.5]];portConstraint=eastwest;top=0;left=0;right=0;bottom=0;rounded=0;align=center;verticalAlign=middle;fontFamily=Poppins;fontSize=12;fontColor=default;html=1;" parent="M88rms9hJYf57tuRIVdl-169" vertex="1">
          <mxGeometry y="60" width="180" height="30" as="geometry" />
        </mxCell>
        <mxCell id="M88rms9hJYf57tuRIVdl-174" value="" style="shape=partialRectangle;connectable=0;fillColor=none;top=0;left=0;bottom=0;right=0;editable=1;overflow=hidden;whiteSpace=wrap;html=1;rounded=0;align=center;verticalAlign=middle;fontFamily=Poppins;fontSize=12;fontColor=default;" parent="M88rms9hJYf57tuRIVdl-173" vertex="1">
          <mxGeometry width="30" height="30" as="geometry">
            <mxRectangle width="30" height="30" as="alternateBounds" />
          </mxGeometry>
        </mxCell>
        <mxCell id="M88rms9hJYf57tuRIVdl-175" value="CharityName" style="shape=partialRectangle;connectable=0;fillColor=none;top=0;left=0;bottom=0;right=0;align=left;spacingLeft=6;overflow=hidden;whiteSpace=wrap;html=1;rounded=0;verticalAlign=middle;fontFamily=Poppins;fontSize=12;fontColor=default;" parent="M88rms9hJYf57tuRIVdl-173" vertex="1">
          <mxGeometry x="30" width="150" height="30" as="geometry">
            <mxRectangle width="150" height="30" as="alternateBounds" />
          </mxGeometry>
        </mxCell>
        <mxCell id="M88rms9hJYf57tuRIVdl-277" value="" style="shape=tableRow;horizontal=0;startSize=0;swimlaneHead=0;swimlaneBody=0;fillColor=none;collapsible=0;dropTarget=0;points=[[0,0.5],[1,0.5]];portConstraint=eastwest;top=0;left=0;right=0;bottom=0;rounded=0;align=center;verticalAlign=middle;fontFamily=Poppins;fontSize=12;fontColor=default;html=1;" parent="M88rms9hJYf57tuRIVdl-169" vertex="1">
          <mxGeometry y="90" width="180" height="30" as="geometry" />
        </mxCell>
        <mxCell id="M88rms9hJYf57tuRIVdl-278" value="" style="shape=partialRectangle;connectable=0;fillColor=none;top=0;left=0;bottom=0;right=0;editable=1;overflow=hidden;whiteSpace=wrap;html=1;rounded=0;align=center;verticalAlign=middle;fontFamily=Poppins;fontSize=12;fontColor=default;" parent="M88rms9hJYf57tuRIVdl-277" vertex="1">
          <mxGeometry width="30" height="30" as="geometry">
            <mxRectangle width="30" height="30" as="alternateBounds" />
          </mxGeometry>
        </mxCell>
        <mxCell id="M88rms9hJYf57tuRIVdl-279" value="CharityEmail" style="shape=partialRectangle;connectable=0;fillColor=none;top=0;left=0;bottom=0;right=0;align=left;spacingLeft=6;overflow=hidden;whiteSpace=wrap;html=1;rounded=0;verticalAlign=middle;fontFamily=Poppins;fontSize=12;fontColor=default;" parent="M88rms9hJYf57tuRIVdl-277" vertex="1">
          <mxGeometry x="30" width="150" height="30" as="geometry">
            <mxRectangle width="150" height="30" as="alternateBounds" />
          </mxGeometry>
        </mxCell>
        <mxCell id="M88rms9hJYf57tuRIVdl-283" value="" style="shape=tableRow;horizontal=0;startSize=0;swimlaneHead=0;swimlaneBody=0;fillColor=none;collapsible=0;dropTarget=0;points=[[0,0.5],[1,0.5]];portConstraint=eastwest;top=0;left=0;right=0;bottom=0;rounded=0;align=center;verticalAlign=middle;fontFamily=Poppins;fontSize=12;fontColor=default;html=1;" parent="M88rms9hJYf57tuRIVdl-169" vertex="1">
          <mxGeometry y="120" width="180" height="30" as="geometry" />
        </mxCell>
        <mxCell id="M88rms9hJYf57tuRIVdl-284" value="" style="shape=partialRectangle;connectable=0;fillColor=none;top=0;left=0;bottom=0;right=0;editable=1;overflow=hidden;whiteSpace=wrap;html=1;rounded=0;align=center;verticalAlign=middle;fontFamily=Poppins;fontSize=12;fontColor=default;" parent="M88rms9hJYf57tuRIVdl-283" vertex="1">
          <mxGeometry width="30" height="30" as="geometry">
            <mxRectangle width="30" height="30" as="alternateBounds" />
          </mxGeometry>
        </mxCell>
        <mxCell id="M88rms9hJYf57tuRIVdl-285" value="CharityPhone" style="shape=partialRectangle;connectable=0;fillColor=none;top=0;left=0;bottom=0;right=0;align=left;spacingLeft=6;overflow=hidden;whiteSpace=wrap;html=1;rounded=0;verticalAlign=middle;fontFamily=Poppins;fontSize=12;fontColor=default;" parent="M88rms9hJYf57tuRIVdl-283" vertex="1">
          <mxGeometry x="30" width="150" height="30" as="geometry">
            <mxRectangle width="150" height="30" as="alternateBounds" />
          </mxGeometry>
        </mxCell>
        <mxCell id="M88rms9hJYf57tuRIVdl-176" value="" style="shape=tableRow;horizontal=0;startSize=0;swimlaneHead=0;swimlaneBody=0;fillColor=none;collapsible=0;dropTarget=0;points=[[0,0.5],[1,0.5]];portConstraint=eastwest;top=0;left=0;right=0;bottom=0;rounded=0;align=center;verticalAlign=middle;fontFamily=Poppins;fontSize=12;fontColor=default;html=1;" parent="M88rms9hJYf57tuRIVdl-169" vertex="1">
          <mxGeometry y="150" width="180" height="30" as="geometry" />
        </mxCell>
        <mxCell id="M88rms9hJYf57tuRIVdl-177" value="" style="shape=partialRectangle;connectable=0;fillColor=none;top=0;left=0;bottom=0;right=0;editable=1;overflow=hidden;whiteSpace=wrap;html=1;rounded=0;align=center;verticalAlign=middle;fontFamily=Poppins;fontSize=12;fontColor=default;" parent="M88rms9hJYf57tuRIVdl-176" vertex="1">
          <mxGeometry width="30" height="30" as="geometry">
            <mxRectangle width="30" height="30" as="alternateBounds" />
          </mxGeometry>
        </mxCell>
        <mxCell id="M88rms9hJYf57tuRIVdl-178" value="CharityAddress" style="shape=partialRectangle;connectable=0;fillColor=none;top=0;left=0;bottom=0;right=0;align=left;spacingLeft=6;overflow=hidden;whiteSpace=wrap;html=1;rounded=0;verticalAlign=middle;fontFamily=Poppins;fontSize=12;fontColor=default;" parent="M88rms9hJYf57tuRIVdl-176" vertex="1">
          <mxGeometry x="30" width="150" height="30" as="geometry">
            <mxRectangle width="150" height="30" as="alternateBounds" />
          </mxGeometry>
        </mxCell>
        <mxCell id="M88rms9hJYf57tuRIVdl-179" value="" style="shape=tableRow;horizontal=0;startSize=0;swimlaneHead=0;swimlaneBody=0;fillColor=none;collapsible=0;dropTarget=0;points=[[0,0.5],[1,0.5]];portConstraint=eastwest;top=0;left=0;right=0;bottom=0;rounded=0;align=center;verticalAlign=middle;fontFamily=Poppins;fontSize=12;fontColor=default;html=1;" parent="M88rms9hJYf57tuRIVdl-169" vertex="1">
          <mxGeometry y="180" width="180" height="30" as="geometry" />
        </mxCell>
        <mxCell id="M88rms9hJYf57tuRIVdl-180" value="" style="shape=partialRectangle;connectable=0;fillColor=none;top=0;left=0;bottom=0;right=0;editable=1;overflow=hidden;whiteSpace=wrap;html=1;rounded=0;align=center;verticalAlign=middle;fontFamily=Poppins;fontSize=12;fontColor=default;" parent="M88rms9hJYf57tuRIVdl-179" vertex="1">
          <mxGeometry width="30" height="30" as="geometry">
            <mxRectangle width="30" height="30" as="alternateBounds" />
          </mxGeometry>
        </mxCell>
        <mxCell id="M88rms9hJYf57tuRIVdl-181" value="CharityCity" style="shape=partialRectangle;connectable=0;fillColor=none;top=0;left=0;bottom=0;right=0;align=left;spacingLeft=6;overflow=hidden;whiteSpace=wrap;html=1;rounded=0;verticalAlign=middle;fontFamily=Poppins;fontSize=12;fontColor=default;" parent="M88rms9hJYf57tuRIVdl-179" vertex="1">
          <mxGeometry x="30" width="150" height="30" as="geometry">
            <mxRectangle width="150" height="30" as="alternateBounds" />
          </mxGeometry>
        </mxCell>
        <mxCell id="M88rms9hJYf57tuRIVdl-280" value="" style="shape=tableRow;horizontal=0;startSize=0;swimlaneHead=0;swimlaneBody=0;fillColor=none;collapsible=0;dropTarget=0;points=[[0,0.5],[1,0.5]];portConstraint=eastwest;top=0;left=0;right=0;bottom=0;rounded=0;align=center;verticalAlign=middle;fontFamily=Poppins;fontSize=12;fontColor=default;html=1;" parent="M88rms9hJYf57tuRIVdl-169" vertex="1">
          <mxGeometry y="210" width="180" height="30" as="geometry" />
        </mxCell>
        <mxCell id="M88rms9hJYf57tuRIVdl-281" value="" style="shape=partialRectangle;connectable=0;fillColor=none;top=0;left=0;bottom=0;right=0;editable=1;overflow=hidden;whiteSpace=wrap;html=1;rounded=0;align=center;verticalAlign=middle;fontFamily=Poppins;fontSize=12;fontColor=default;" parent="M88rms9hJYf57tuRIVdl-280" vertex="1">
          <mxGeometry width="30" height="30" as="geometry">
            <mxRectangle width="30" height="30" as="alternateBounds" />
          </mxGeometry>
        </mxCell>
        <mxCell id="M88rms9hJYf57tuRIVdl-282" value="CharityState" style="shape=partialRectangle;connectable=0;fillColor=none;top=0;left=0;bottom=0;right=0;align=left;spacingLeft=6;overflow=hidden;whiteSpace=wrap;html=1;rounded=0;verticalAlign=middle;fontFamily=Poppins;fontSize=12;fontColor=default;" parent="M88rms9hJYf57tuRIVdl-280" vertex="1">
          <mxGeometry x="30" width="150" height="30" as="geometry">
            <mxRectangle width="150" height="30" as="alternateBounds" />
          </mxGeometry>
        </mxCell>
        <mxCell id="M88rms9hJYf57tuRIVdl-286" value="" style="shape=tableRow;horizontal=0;startSize=0;swimlaneHead=0;swimlaneBody=0;fillColor=none;collapsible=0;dropTarget=0;points=[[0,0.5],[1,0.5]];portConstraint=eastwest;top=0;left=0;right=0;bottom=0;rounded=0;align=center;verticalAlign=middle;fontFamily=Poppins;fontSize=12;fontColor=default;html=1;" parent="M88rms9hJYf57tuRIVdl-169" vertex="1">
          <mxGeometry y="240" width="180" height="30" as="geometry" />
        </mxCell>
        <mxCell id="M88rms9hJYf57tuRIVdl-287" value="" style="shape=partialRectangle;connectable=0;fillColor=none;top=0;left=0;bottom=0;right=0;editable=1;overflow=hidden;whiteSpace=wrap;html=1;rounded=0;align=center;verticalAlign=middle;fontFamily=Poppins;fontSize=12;fontColor=default;" parent="M88rms9hJYf57tuRIVdl-286" vertex="1">
          <mxGeometry width="30" height="30" as="geometry">
            <mxRectangle width="30" height="30" as="alternateBounds" />
          </mxGeometry>
        </mxCell>
        <mxCell id="M88rms9hJYf57tuRIVdl-288" value="CharityCountry" style="shape=partialRectangle;connectable=0;fillColor=none;top=0;left=0;bottom=0;right=0;align=left;spacingLeft=6;overflow=hidden;whiteSpace=wrap;html=1;rounded=0;verticalAlign=middle;fontFamily=Poppins;fontSize=12;fontColor=default;" parent="M88rms9hJYf57tuRIVdl-286" vertex="1">
          <mxGeometry x="30" width="150" height="30" as="geometry">
            <mxRectangle width="150" height="30" as="alternateBounds" />
          </mxGeometry>
        </mxCell>
        <mxCell id="M88rms9hJYf57tuRIVdl-289" value="" style="shape=tableRow;horizontal=0;startSize=0;swimlaneHead=0;swimlaneBody=0;fillColor=none;collapsible=0;dropTarget=0;points=[[0,0.5],[1,0.5]];portConstraint=eastwest;top=0;left=0;right=0;bottom=0;rounded=0;align=center;verticalAlign=middle;fontFamily=Poppins;fontSize=12;fontColor=default;html=1;" parent="M88rms9hJYf57tuRIVdl-169" vertex="1">
          <mxGeometry y="270" width="180" height="30" as="geometry" />
        </mxCell>
        <mxCell id="M88rms9hJYf57tuRIVdl-290" value="" style="shape=partialRectangle;connectable=0;fillColor=none;top=0;left=0;bottom=0;right=0;editable=1;overflow=hidden;whiteSpace=wrap;html=1;rounded=0;align=center;verticalAlign=middle;fontFamily=Poppins;fontSize=12;fontColor=default;" parent="M88rms9hJYf57tuRIVdl-289" vertex="1">
          <mxGeometry width="30" height="30" as="geometry">
            <mxRectangle width="30" height="30" as="alternateBounds" />
          </mxGeometry>
        </mxCell>
        <mxCell id="M88rms9hJYf57tuRIVdl-291" value="CharityEmail" style="shape=partialRectangle;connectable=0;fillColor=none;top=0;left=0;bottom=0;right=0;align=left;spacingLeft=6;overflow=hidden;whiteSpace=wrap;html=1;rounded=0;verticalAlign=middle;fontFamily=Poppins;fontSize=12;fontColor=default;" parent="M88rms9hJYf57tuRIVdl-289" vertex="1">
          <mxGeometry x="30" width="150" height="30" as="geometry">
            <mxRectangle width="150" height="30" as="alternateBounds" />
          </mxGeometry>
        </mxCell>
        <mxCell id="M88rms9hJYf57tuRIVdl-188" value="Category" style="shape=table;startSize=30;container=1;collapsible=1;childLayout=tableLayout;fixedRows=1;rowLines=0;fontStyle=1;align=center;resizeLast=1;html=1;rounded=0;verticalAlign=middle;fontFamily=Poppins;fontSize=12;fontColor=default;fillColor=none;gradientColor=none;" parent="1" vertex="1">
          <mxGeometry x="110" y="660" width="180" height="120" as="geometry" />
        </mxCell>
        <mxCell id="M88rms9hJYf57tuRIVdl-189" value="" style="shape=tableRow;horizontal=0;startSize=0;swimlaneHead=0;swimlaneBody=0;fillColor=none;collapsible=0;dropTarget=0;points=[[0,0.5],[1,0.5]];portConstraint=eastwest;top=0;left=0;right=0;bottom=1;rounded=0;align=center;verticalAlign=middle;fontFamily=Poppins;fontSize=12;fontColor=default;html=1;" parent="M88rms9hJYf57tuRIVdl-188" vertex="1">
          <mxGeometry y="30" width="180" height="30" as="geometry" />
        </mxCell>
        <mxCell id="M88rms9hJYf57tuRIVdl-190" value="PK" style="shape=partialRectangle;connectable=0;fillColor=none;top=0;left=0;bottom=0;right=0;fontStyle=1;overflow=hidden;whiteSpace=wrap;html=1;rounded=0;align=center;verticalAlign=middle;fontFamily=Poppins;fontSize=12;fontColor=default;" parent="M88rms9hJYf57tuRIVdl-189" vertex="1">
          <mxGeometry width="30" height="30" as="geometry">
            <mxRectangle width="30" height="30" as="alternateBounds" />
          </mxGeometry>
        </mxCell>
        <mxCell id="M88rms9hJYf57tuRIVdl-191" value="CategoryID" style="shape=partialRectangle;connectable=0;fillColor=none;top=0;left=0;bottom=0;right=0;align=left;spacingLeft=6;fontStyle=5;overflow=hidden;whiteSpace=wrap;html=1;rounded=0;verticalAlign=middle;fontFamily=Poppins;fontSize=12;fontColor=default;" parent="M88rms9hJYf57tuRIVdl-189" vertex="1">
          <mxGeometry x="30" width="150" height="30" as="geometry">
            <mxRectangle width="150" height="30" as="alternateBounds" />
          </mxGeometry>
        </mxCell>
        <mxCell id="M88rms9hJYf57tuRIVdl-192" value="" style="shape=tableRow;horizontal=0;startSize=0;swimlaneHead=0;swimlaneBody=0;fillColor=none;collapsible=0;dropTarget=0;points=[[0,0.5],[1,0.5]];portConstraint=eastwest;top=0;left=0;right=0;bottom=0;rounded=0;align=center;verticalAlign=middle;fontFamily=Poppins;fontSize=12;fontColor=default;html=1;" parent="M88rms9hJYf57tuRIVdl-188" vertex="1">
          <mxGeometry y="60" width="180" height="30" as="geometry" />
        </mxCell>
        <mxCell id="M88rms9hJYf57tuRIVdl-193" value="" style="shape=partialRectangle;connectable=0;fillColor=none;top=0;left=0;bottom=0;right=0;editable=1;overflow=hidden;whiteSpace=wrap;html=1;rounded=0;align=center;verticalAlign=middle;fontFamily=Poppins;fontSize=12;fontColor=default;" parent="M88rms9hJYf57tuRIVdl-192" vertex="1">
          <mxGeometry width="30" height="30" as="geometry">
            <mxRectangle width="30" height="30" as="alternateBounds" />
          </mxGeometry>
        </mxCell>
        <mxCell id="M88rms9hJYf57tuRIVdl-194" value="CategoryName" style="shape=partialRectangle;connectable=0;fillColor=none;top=0;left=0;bottom=0;right=0;align=left;spacingLeft=6;overflow=hidden;whiteSpace=wrap;html=1;rounded=0;verticalAlign=middle;fontFamily=Poppins;fontSize=12;fontColor=default;" parent="M88rms9hJYf57tuRIVdl-192" vertex="1">
          <mxGeometry x="30" width="150" height="30" as="geometry">
            <mxRectangle width="150" height="30" as="alternateBounds" />
          </mxGeometry>
        </mxCell>
        <mxCell id="M88rms9hJYf57tuRIVdl-195" value="" style="shape=tableRow;horizontal=0;startSize=0;swimlaneHead=0;swimlaneBody=0;fillColor=none;collapsible=0;dropTarget=0;points=[[0,0.5],[1,0.5]];portConstraint=eastwest;top=0;left=0;right=0;bottom=0;rounded=0;align=center;verticalAlign=middle;fontFamily=Poppins;fontSize=12;fontColor=default;html=1;" parent="M88rms9hJYf57tuRIVdl-188" vertex="1">
          <mxGeometry y="90" width="180" height="30" as="geometry" />
        </mxCell>
        <mxCell id="M88rms9hJYf57tuRIVdl-196" value="" style="shape=partialRectangle;connectable=0;fillColor=none;top=0;left=0;bottom=0;right=0;editable=1;overflow=hidden;whiteSpace=wrap;html=1;rounded=0;align=center;verticalAlign=middle;fontFamily=Poppins;fontSize=12;fontColor=default;" parent="M88rms9hJYf57tuRIVdl-195" vertex="1">
          <mxGeometry width="30" height="30" as="geometry">
            <mxRectangle width="30" height="30" as="alternateBounds" />
          </mxGeometry>
        </mxCell>
        <mxCell id="M88rms9hJYf57tuRIVdl-197" value="CategoryDescription" style="shape=partialRectangle;connectable=0;fillColor=none;top=0;left=0;bottom=0;right=0;align=left;spacingLeft=6;overflow=hidden;whiteSpace=wrap;html=1;rounded=0;verticalAlign=middle;fontFamily=Poppins;fontSize=12;fontColor=default;" parent="M88rms9hJYf57tuRIVdl-195" vertex="1">
          <mxGeometry x="30" width="150" height="30" as="geometry">
            <mxRectangle width="150" height="30" as="alternateBounds" />
          </mxGeometry>
        </mxCell>
        <mxCell id="M88rms9hJYf57tuRIVdl-201" value="Notification" style="shape=table;startSize=30;container=1;collapsible=1;childLayout=tableLayout;fixedRows=1;rowLines=0;fontStyle=1;align=center;resizeLast=1;html=1;rounded=0;verticalAlign=middle;fontFamily=Poppins;fontSize=12;fontColor=default;fillColor=none;gradientColor=none;" parent="1" vertex="1">
          <mxGeometry x="810" y="250" width="180" height="240" as="geometry" />
        </mxCell>
        <mxCell id="M88rms9hJYf57tuRIVdl-202" value="" style="shape=tableRow;horizontal=0;startSize=0;swimlaneHead=0;swimlaneBody=0;fillColor=none;collapsible=0;dropTarget=0;points=[[0,0.5],[1,0.5]];portConstraint=eastwest;top=0;left=0;right=0;bottom=1;rounded=0;align=center;verticalAlign=middle;fontFamily=Poppins;fontSize=12;fontColor=default;html=1;" parent="M88rms9hJYf57tuRIVdl-201" vertex="1">
          <mxGeometry y="30" width="180" height="30" as="geometry" />
        </mxCell>
        <mxCell id="M88rms9hJYf57tuRIVdl-203" value="PK" style="shape=partialRectangle;connectable=0;fillColor=none;top=0;left=0;bottom=0;right=0;fontStyle=1;overflow=hidden;whiteSpace=wrap;html=1;rounded=0;align=center;verticalAlign=middle;fontFamily=Poppins;fontSize=12;fontColor=default;" parent="M88rms9hJYf57tuRIVdl-202" vertex="1">
          <mxGeometry width="30" height="30" as="geometry">
            <mxRectangle width="30" height="30" as="alternateBounds" />
          </mxGeometry>
        </mxCell>
        <mxCell id="M88rms9hJYf57tuRIVdl-204" value="NotifyID" style="shape=partialRectangle;connectable=0;fillColor=none;top=0;left=0;bottom=0;right=0;align=left;spacingLeft=6;fontStyle=5;overflow=hidden;whiteSpace=wrap;html=1;rounded=0;verticalAlign=middle;fontFamily=Poppins;fontSize=12;fontColor=default;" parent="M88rms9hJYf57tuRIVdl-202" vertex="1">
          <mxGeometry x="30" width="150" height="30" as="geometry">
            <mxRectangle width="150" height="30" as="alternateBounds" />
          </mxGeometry>
        </mxCell>
        <mxCell id="M88rms9hJYf57tuRIVdl-205" value="" style="shape=tableRow;horizontal=0;startSize=0;swimlaneHead=0;swimlaneBody=0;fillColor=none;collapsible=0;dropTarget=0;points=[[0,0.5],[1,0.5]];portConstraint=eastwest;top=0;left=0;right=0;bottom=0;rounded=0;align=center;verticalAlign=middle;fontFamily=Poppins;fontSize=12;fontColor=default;html=1;" parent="M88rms9hJYf57tuRIVdl-201" vertex="1">
          <mxGeometry y="60" width="180" height="30" as="geometry" />
        </mxCell>
        <mxCell id="M88rms9hJYf57tuRIVdl-206" value="" style="shape=partialRectangle;connectable=0;fillColor=none;top=0;left=0;bottom=0;right=0;editable=1;overflow=hidden;whiteSpace=wrap;html=1;rounded=0;align=center;verticalAlign=middle;fontFamily=Poppins;fontSize=12;fontColor=default;" parent="M88rms9hJYf57tuRIVdl-205" vertex="1">
          <mxGeometry width="30" height="30" as="geometry">
            <mxRectangle width="30" height="30" as="alternateBounds" />
          </mxGeometry>
        </mxCell>
        <mxCell id="M88rms9hJYf57tuRIVdl-207" value="NotifyDescription" style="shape=partialRectangle;connectable=0;fillColor=none;top=0;left=0;bottom=0;right=0;align=left;spacingLeft=6;overflow=hidden;whiteSpace=wrap;html=1;rounded=0;verticalAlign=middle;fontFamily=Poppins;fontSize=12;fontColor=default;" parent="M88rms9hJYf57tuRIVdl-205" vertex="1">
          <mxGeometry x="30" width="150" height="30" as="geometry">
            <mxRectangle width="150" height="30" as="alternateBounds" />
          </mxGeometry>
        </mxCell>
        <mxCell id="M88rms9hJYf57tuRIVdl-208" value="" style="shape=tableRow;horizontal=0;startSize=0;swimlaneHead=0;swimlaneBody=0;fillColor=none;collapsible=0;dropTarget=0;points=[[0,0.5],[1,0.5]];portConstraint=eastwest;top=0;left=0;right=0;bottom=0;rounded=0;align=center;verticalAlign=middle;fontFamily=Poppins;fontSize=12;fontColor=default;html=1;" parent="M88rms9hJYf57tuRIVdl-201" vertex="1">
          <mxGeometry y="90" width="180" height="30" as="geometry" />
        </mxCell>
        <mxCell id="M88rms9hJYf57tuRIVdl-209" value="" style="shape=partialRectangle;connectable=0;fillColor=none;top=0;left=0;bottom=0;right=0;editable=1;overflow=hidden;whiteSpace=wrap;html=1;rounded=0;align=center;verticalAlign=middle;fontFamily=Poppins;fontSize=12;fontColor=default;" parent="M88rms9hJYf57tuRIVdl-208" vertex="1">
          <mxGeometry width="30" height="30" as="geometry">
            <mxRectangle width="30" height="30" as="alternateBounds" />
          </mxGeometry>
        </mxCell>
        <mxCell id="M88rms9hJYf57tuRIVdl-210" value="NotifyTime" style="shape=partialRectangle;connectable=0;fillColor=none;top=0;left=0;bottom=0;right=0;align=left;spacingLeft=6;overflow=hidden;whiteSpace=wrap;html=1;rounded=0;verticalAlign=middle;fontFamily=Poppins;fontSize=12;fontColor=default;" parent="M88rms9hJYf57tuRIVdl-208" vertex="1">
          <mxGeometry x="30" width="150" height="30" as="geometry">
            <mxRectangle width="150" height="30" as="alternateBounds" />
          </mxGeometry>
        </mxCell>
        <mxCell id="M88rms9hJYf57tuRIVdl-211" value="" style="shape=tableRow;horizontal=0;startSize=0;swimlaneHead=0;swimlaneBody=0;fillColor=none;collapsible=0;dropTarget=0;points=[[0,0.5],[1,0.5]];portConstraint=eastwest;top=0;left=0;right=0;bottom=0;rounded=0;align=center;verticalAlign=middle;fontFamily=Poppins;fontSize=12;fontColor=default;html=1;" parent="M88rms9hJYf57tuRIVdl-201" vertex="1">
          <mxGeometry y="120" width="180" height="30" as="geometry" />
        </mxCell>
        <mxCell id="M88rms9hJYf57tuRIVdl-212" value="" style="shape=partialRectangle;connectable=0;fillColor=none;top=0;left=0;bottom=0;right=0;editable=1;overflow=hidden;whiteSpace=wrap;html=1;rounded=0;align=center;verticalAlign=middle;fontFamily=Poppins;fontSize=12;fontColor=default;" parent="M88rms9hJYf57tuRIVdl-211" vertex="1">
          <mxGeometry width="30" height="30" as="geometry">
            <mxRectangle width="30" height="30" as="alternateBounds" />
          </mxGeometry>
        </mxCell>
        <mxCell id="M88rms9hJYf57tuRIVdl-213" value="NotifyDate" style="shape=partialRectangle;connectable=0;fillColor=none;top=0;left=0;bottom=0;right=0;align=left;spacingLeft=6;overflow=hidden;whiteSpace=wrap;html=1;rounded=0;verticalAlign=middle;fontFamily=Poppins;fontSize=12;fontColor=default;" parent="M88rms9hJYf57tuRIVdl-211" vertex="1">
          <mxGeometry x="30" width="150" height="30" as="geometry">
            <mxRectangle width="150" height="30" as="alternateBounds" />
          </mxGeometry>
        </mxCell>
        <mxCell id="M88rms9hJYf57tuRIVdl-271" value="" style="shape=tableRow;horizontal=0;startSize=0;swimlaneHead=0;swimlaneBody=0;fillColor=none;collapsible=0;dropTarget=0;points=[[0,0.5],[1,0.5]];portConstraint=eastwest;top=0;left=0;right=0;bottom=0;rounded=0;align=center;verticalAlign=middle;fontFamily=Poppins;fontSize=12;fontColor=default;html=1;" parent="M88rms9hJYf57tuRIVdl-201" vertex="1">
          <mxGeometry y="150" width="180" height="30" as="geometry" />
        </mxCell>
        <mxCell id="M88rms9hJYf57tuRIVdl-272" value="" style="shape=partialRectangle;connectable=0;fillColor=none;top=0;left=0;bottom=0;right=0;editable=1;overflow=hidden;whiteSpace=wrap;html=1;rounded=0;align=center;verticalAlign=middle;fontFamily=Poppins;fontSize=12;fontColor=default;" parent="M88rms9hJYf57tuRIVdl-271" vertex="1">
          <mxGeometry width="30" height="30" as="geometry">
            <mxRectangle width="30" height="30" as="alternateBounds" />
          </mxGeometry>
        </mxCell>
        <mxCell id="M88rms9hJYf57tuRIVdl-273" value="NotifyType" style="shape=partialRectangle;connectable=0;fillColor=none;top=0;left=0;bottom=0;right=0;align=left;spacingLeft=6;overflow=hidden;whiteSpace=wrap;html=1;rounded=0;verticalAlign=middle;fontFamily=Poppins;fontSize=12;fontColor=default;" parent="M88rms9hJYf57tuRIVdl-271" vertex="1">
          <mxGeometry x="30" width="150" height="30" as="geometry">
            <mxRectangle width="150" height="30" as="alternateBounds" />
          </mxGeometry>
        </mxCell>
        <mxCell id="M88rms9hJYf57tuRIVdl-214" value="" style="shape=tableRow;horizontal=0;startSize=0;swimlaneHead=0;swimlaneBody=0;fillColor=none;collapsible=0;dropTarget=0;points=[[0,0.5],[1,0.5]];portConstraint=eastwest;top=0;left=0;right=0;bottom=0;rounded=0;align=center;verticalAlign=middle;fontFamily=Poppins;fontSize=12;fontColor=default;html=1;" parent="M88rms9hJYf57tuRIVdl-201" vertex="1">
          <mxGeometry y="180" width="180" height="30" as="geometry" />
        </mxCell>
        <mxCell id="M88rms9hJYf57tuRIVdl-215" value="" style="shape=partialRectangle;connectable=0;fillColor=none;top=0;left=0;bottom=0;right=0;editable=1;overflow=hidden;whiteSpace=wrap;html=1;rounded=0;align=center;verticalAlign=middle;fontFamily=Poppins;fontSize=12;fontColor=default;" parent="M88rms9hJYf57tuRIVdl-214" vertex="1">
          <mxGeometry width="30" height="30" as="geometry">
            <mxRectangle width="30" height="30" as="alternateBounds" />
          </mxGeometry>
        </mxCell>
        <mxCell id="M88rms9hJYf57tuRIVdl-216" value="ReadStatus" style="shape=partialRectangle;connectable=0;fillColor=none;top=0;left=0;bottom=0;right=0;align=left;spacingLeft=6;overflow=hidden;whiteSpace=wrap;html=1;rounded=0;verticalAlign=middle;fontFamily=Poppins;fontSize=12;fontColor=default;" parent="M88rms9hJYf57tuRIVdl-214" vertex="1">
          <mxGeometry x="30" width="150" height="30" as="geometry">
            <mxRectangle width="150" height="30" as="alternateBounds" />
          </mxGeometry>
        </mxCell>
        <mxCell id="M88rms9hJYf57tuRIVdl-217" value="" style="shape=tableRow;horizontal=0;startSize=0;swimlaneHead=0;swimlaneBody=0;fillColor=none;collapsible=0;dropTarget=0;points=[[0,0.5],[1,0.5]];portConstraint=eastwest;top=0;left=0;right=0;bottom=0;rounded=0;align=center;verticalAlign=middle;fontFamily=Poppins;fontSize=12;fontColor=default;html=1;" parent="M88rms9hJYf57tuRIVdl-201" vertex="1">
          <mxGeometry y="210" width="180" height="30" as="geometry" />
        </mxCell>
        <mxCell id="M88rms9hJYf57tuRIVdl-218" value="" style="shape=partialRectangle;connectable=0;fillColor=none;top=0;left=0;bottom=0;right=0;editable=1;overflow=hidden;whiteSpace=wrap;html=1;rounded=0;align=center;verticalAlign=middle;fontFamily=Poppins;fontSize=12;fontColor=default;" parent="M88rms9hJYf57tuRIVdl-217" vertex="1">
          <mxGeometry width="30" height="30" as="geometry">
            <mxRectangle width="30" height="30" as="alternateBounds" />
          </mxGeometry>
        </mxCell>
        <mxCell id="M88rms9hJYf57tuRIVdl-219" value="ReceiverID" style="shape=partialRectangle;connectable=0;fillColor=none;top=0;left=0;bottom=0;right=0;align=left;spacingLeft=6;overflow=hidden;whiteSpace=wrap;html=1;rounded=0;verticalAlign=middle;fontFamily=Poppins;fontSize=12;fontColor=default;" parent="M88rms9hJYf57tuRIVdl-217" vertex="1">
          <mxGeometry x="30" width="150" height="30" as="geometry">
            <mxRectangle width="150" height="30" as="alternateBounds" />
          </mxGeometry>
        </mxCell>
        <mxCell id="M88rms9hJYf57tuRIVdl-269" style="edgeStyle=orthogonalEdgeStyle;rounded=0;orthogonalLoop=1;jettySize=auto;html=1;entryX=1;entryY=0.5;entryDx=0;entryDy=0;fontFamily=Poppins;fontSize=12;fontColor=default;" parent="1" source="M88rms9hJYf57tuRIVdl-90" target="M88rms9hJYf57tuRIVdl-141" edge="1">
          <mxGeometry relative="1" as="geometry" />
        </mxCell>
        <mxCell id="M88rms9hJYf57tuRIVdl-270" style="edgeStyle=orthogonalEdgeStyle;rounded=0;orthogonalLoop=1;jettySize=auto;html=1;entryX=1;entryY=0.5;entryDx=0;entryDy=0;fontFamily=Poppins;fontSize=12;fontColor=default;" parent="1" source="M88rms9hJYf57tuRIVdl-106" target="M88rms9hJYf57tuRIVdl-90" edge="1">
          <mxGeometry relative="1" as="geometry" />
        </mxCell>
        <mxCell id="M88rms9hJYf57tuRIVdl-276" style="edgeStyle=orthogonalEdgeStyle;rounded=0;orthogonalLoop=1;jettySize=auto;html=1;entryX=0;entryY=0.5;entryDx=0;entryDy=0;fontFamily=Poppins;fontSize=12;fontColor=default;" parent="1" source="M88rms9hJYf57tuRIVdl-106" target="M88rms9hJYf57tuRIVdl-211" edge="1">
          <mxGeometry relative="1" as="geometry" />
        </mxCell>
      </root>
    </mxGraphModel>
  </diagram>
  <diagram id="meMRMFvZ7A-V25ei0Dnw" name="Digital Online Education System">
    <mxGraphModel dx="926" dy="560" grid="1" gridSize="10" guides="1" tooltips="1" connect="1" arrows="1" fold="1" page="1" pageScale="1" pageWidth="1169" pageHeight="1654" math="0" shadow="0">
      <root>
        <mxCell id="0" />
        <mxCell id="1" parent="0" />
        <mxCell id="hD2iWOSfK55j_Wc6uJmR-1" value="&lt;h1&gt;&lt;span style=&quot;background-color: initial;&quot;&gt;Digital Online Education System&amp;nbsp;&lt;/span&gt;&lt;/h1&gt;&lt;h1&gt;&lt;span style=&quot;background-color: initial; font-size: 12px; font-weight: normal;&quot;&gt;This project is developed which aims to support SDG 4: Quality Education with target 4.1 and 4.2.&lt;/span&gt;&lt;br&gt;&lt;/h1&gt;" style="text;html=1;strokeColor=none;fillColor=none;spacing=5;spacingTop=-20;whiteSpace=wrap;overflow=hidden;rounded=0;fontSize=12;fontFamily=Poppins;fontColor=default;" parent="1" vertex="1">
          <mxGeometry x="90" y="100" width="600" height="90" as="geometry" />
        </mxCell>
        <mxCell id="eKXbSN614G5rHu4DSbe3-212" style="edgeStyle=orthogonalEdgeStyle;rounded=0;orthogonalLoop=1;jettySize=auto;html=1;entryX=0;entryY=0.5;entryDx=0;entryDy=0;fontFamily=Poppins;fontSize=12;fontColor=default;strokeWidth=2;endArrow=ERoneToMany;endFill=0;startArrow=ERmandOne;startFill=0;" parent="1" source="eKXbSN614G5rHu4DSbe3-1" target="eKXbSN614G5rHu4DSbe3-190" edge="1">
          <mxGeometry relative="1" as="geometry" />
        </mxCell>
        <mxCell id="w9iqEN3ytlrPj38V60GT-3" value="Upload" style="edgeLabel;html=1;align=center;verticalAlign=middle;resizable=0;points=[];fontFamily=Poppins;" parent="eKXbSN614G5rHu4DSbe3-212" vertex="1" connectable="0">
          <mxGeometry x="0.1399" y="2" relative="1" as="geometry">
            <mxPoint as="offset" />
          </mxGeometry>
        </mxCell>
        <mxCell id="eKXbSN614G5rHu4DSbe3-220" style="edgeStyle=orthogonalEdgeStyle;rounded=0;orthogonalLoop=1;jettySize=auto;html=1;entryX=0.5;entryY=0;entryDx=0;entryDy=0;fontFamily=Poppins;fontSize=12;fontColor=default;dashed=1;strokeWidth=2;endArrow=ERzeroToMany;endFill=0;startArrow=ERmandOne;startFill=0;" parent="1" source="eKXbSN614G5rHu4DSbe3-1" target="eKXbSN614G5rHu4DSbe3-119" edge="1">
          <mxGeometry relative="1" as="geometry" />
        </mxCell>
        <mxCell id="w9iqEN3ytlrPj38V60GT-1" value="Fill in/ filled by" style="edgeLabel;html=1;align=center;verticalAlign=middle;resizable=0;points=[];fontFamily=Poppins;" parent="eKXbSN614G5rHu4DSbe3-220" vertex="1" connectable="0">
          <mxGeometry x="-0.3667" y="3" relative="1" as="geometry">
            <mxPoint as="offset" />
          </mxGeometry>
        </mxCell>
        <mxCell id="eKXbSN614G5rHu4DSbe3-1" value="Student" style="shape=table;startSize=30;container=1;collapsible=1;childLayout=tableLayout;fixedRows=1;rowLines=0;fontStyle=1;align=center;resizeLast=1;html=1;rounded=0;verticalAlign=middle;fontFamily=Poppins;fontSize=12;fontColor=default;fillColor=none;gradientColor=none;" parent="1" vertex="1">
          <mxGeometry x="410" y="230" width="180" height="360" as="geometry" />
        </mxCell>
        <mxCell id="eKXbSN614G5rHu4DSbe3-2" value="" style="shape=tableRow;horizontal=0;startSize=0;swimlaneHead=0;swimlaneBody=0;fillColor=none;collapsible=0;dropTarget=0;points=[[0,0.5],[1,0.5]];portConstraint=eastwest;top=0;left=0;right=0;bottom=1;rounded=0;align=center;verticalAlign=middle;fontFamily=Poppins;fontSize=12;fontColor=default;html=1;" parent="eKXbSN614G5rHu4DSbe3-1" vertex="1">
          <mxGeometry y="30" width="180" height="30" as="geometry" />
        </mxCell>
        <mxCell id="eKXbSN614G5rHu4DSbe3-3" value="PK" style="shape=partialRectangle;connectable=0;fillColor=none;top=0;left=0;bottom=0;right=0;fontStyle=1;overflow=hidden;whiteSpace=wrap;html=1;rounded=0;align=center;verticalAlign=middle;fontFamily=Poppins;fontSize=12;fontColor=default;" parent="eKXbSN614G5rHu4DSbe3-2" vertex="1">
          <mxGeometry width="30" height="30" as="geometry">
            <mxRectangle width="30" height="30" as="alternateBounds" />
          </mxGeometry>
        </mxCell>
        <mxCell id="eKXbSN614G5rHu4DSbe3-4" value="StudentID" style="shape=partialRectangle;connectable=0;fillColor=none;top=0;left=0;bottom=0;right=0;align=left;spacingLeft=6;fontStyle=5;overflow=hidden;whiteSpace=wrap;html=1;rounded=0;verticalAlign=middle;fontFamily=Poppins;fontSize=12;fontColor=default;" parent="eKXbSN614G5rHu4DSbe3-2" vertex="1">
          <mxGeometry x="30" width="150" height="30" as="geometry">
            <mxRectangle width="150" height="30" as="alternateBounds" />
          </mxGeometry>
        </mxCell>
        <mxCell id="eKXbSN614G5rHu4DSbe3-5" value="" style="shape=tableRow;horizontal=0;startSize=0;swimlaneHead=0;swimlaneBody=0;fillColor=none;collapsible=0;dropTarget=0;points=[[0,0.5],[1,0.5]];portConstraint=eastwest;top=0;left=0;right=0;bottom=0;rounded=0;align=center;verticalAlign=middle;fontFamily=Poppins;fontSize=12;fontColor=default;html=1;" parent="eKXbSN614G5rHu4DSbe3-1" vertex="1">
          <mxGeometry y="60" width="180" height="30" as="geometry" />
        </mxCell>
        <mxCell id="eKXbSN614G5rHu4DSbe3-6" value="" style="shape=partialRectangle;connectable=0;fillColor=none;top=0;left=0;bottom=0;right=0;editable=1;overflow=hidden;whiteSpace=wrap;html=1;rounded=0;align=center;verticalAlign=middle;fontFamily=Poppins;fontSize=12;fontColor=default;" parent="eKXbSN614G5rHu4DSbe3-5" vertex="1">
          <mxGeometry width="30" height="30" as="geometry">
            <mxRectangle width="30" height="30" as="alternateBounds" />
          </mxGeometry>
        </mxCell>
        <mxCell id="eKXbSN614G5rHu4DSbe3-7" value="StudentMatricNo" style="shape=partialRectangle;connectable=0;fillColor=none;top=0;left=0;bottom=0;right=0;align=left;spacingLeft=6;overflow=hidden;whiteSpace=wrap;html=1;rounded=0;verticalAlign=middle;fontFamily=Poppins;fontSize=12;fontColor=default;" parent="eKXbSN614G5rHu4DSbe3-5" vertex="1">
          <mxGeometry x="30" width="150" height="30" as="geometry">
            <mxRectangle width="150" height="30" as="alternateBounds" />
          </mxGeometry>
        </mxCell>
        <mxCell id="eKXbSN614G5rHu4DSbe3-8" value="" style="shape=tableRow;horizontal=0;startSize=0;swimlaneHead=0;swimlaneBody=0;fillColor=none;collapsible=0;dropTarget=0;points=[[0,0.5],[1,0.5]];portConstraint=eastwest;top=0;left=0;right=0;bottom=0;rounded=0;align=center;verticalAlign=middle;fontFamily=Poppins;fontSize=12;fontColor=default;html=1;" parent="eKXbSN614G5rHu4DSbe3-1" vertex="1">
          <mxGeometry y="90" width="180" height="30" as="geometry" />
        </mxCell>
        <mxCell id="eKXbSN614G5rHu4DSbe3-9" value="" style="shape=partialRectangle;connectable=0;fillColor=none;top=0;left=0;bottom=0;right=0;editable=1;overflow=hidden;whiteSpace=wrap;html=1;rounded=0;align=center;verticalAlign=middle;fontFamily=Poppins;fontSize=12;fontColor=default;" parent="eKXbSN614G5rHu4DSbe3-8" vertex="1">
          <mxGeometry width="30" height="30" as="geometry">
            <mxRectangle width="30" height="30" as="alternateBounds" />
          </mxGeometry>
        </mxCell>
        <mxCell id="eKXbSN614G5rHu4DSbe3-10" value="StudentName" style="shape=partialRectangle;connectable=0;fillColor=none;top=0;left=0;bottom=0;right=0;align=left;spacingLeft=6;overflow=hidden;whiteSpace=wrap;html=1;rounded=0;verticalAlign=middle;fontFamily=Poppins;fontSize=12;fontColor=default;" parent="eKXbSN614G5rHu4DSbe3-8" vertex="1">
          <mxGeometry x="30" width="150" height="30" as="geometry">
            <mxRectangle width="150" height="30" as="alternateBounds" />
          </mxGeometry>
        </mxCell>
        <mxCell id="eKXbSN614G5rHu4DSbe3-11" value="" style="shape=tableRow;horizontal=0;startSize=0;swimlaneHead=0;swimlaneBody=0;fillColor=none;collapsible=0;dropTarget=0;points=[[0,0.5],[1,0.5]];portConstraint=eastwest;top=0;left=0;right=0;bottom=0;rounded=0;align=center;verticalAlign=middle;fontFamily=Poppins;fontSize=12;fontColor=default;html=1;" parent="eKXbSN614G5rHu4DSbe3-1" vertex="1">
          <mxGeometry y="120" width="180" height="30" as="geometry" />
        </mxCell>
        <mxCell id="eKXbSN614G5rHu4DSbe3-12" value="" style="shape=partialRectangle;connectable=0;fillColor=none;top=0;left=0;bottom=0;right=0;editable=1;overflow=hidden;whiteSpace=wrap;html=1;rounded=0;align=center;verticalAlign=middle;fontFamily=Poppins;fontSize=12;fontColor=default;" parent="eKXbSN614G5rHu4DSbe3-11" vertex="1">
          <mxGeometry width="30" height="30" as="geometry">
            <mxRectangle width="30" height="30" as="alternateBounds" />
          </mxGeometry>
        </mxCell>
        <mxCell id="eKXbSN614G5rHu4DSbe3-13" value="StudentIC" style="shape=partialRectangle;connectable=0;fillColor=none;top=0;left=0;bottom=0;right=0;align=left;spacingLeft=6;overflow=hidden;whiteSpace=wrap;html=1;rounded=0;verticalAlign=middle;fontFamily=Poppins;fontSize=12;fontColor=default;" parent="eKXbSN614G5rHu4DSbe3-11" vertex="1">
          <mxGeometry x="30" width="150" height="30" as="geometry">
            <mxRectangle width="150" height="30" as="alternateBounds" />
          </mxGeometry>
        </mxCell>
        <mxCell id="eKXbSN614G5rHu4DSbe3-14" value="" style="shape=tableRow;horizontal=0;startSize=0;swimlaneHead=0;swimlaneBody=0;fillColor=none;collapsible=0;dropTarget=0;points=[[0,0.5],[1,0.5]];portConstraint=eastwest;top=0;left=0;right=0;bottom=0;rounded=0;align=center;verticalAlign=middle;fontFamily=Poppins;fontSize=12;fontColor=default;html=1;" parent="eKXbSN614G5rHu4DSbe3-1" vertex="1">
          <mxGeometry y="150" width="180" height="30" as="geometry" />
        </mxCell>
        <mxCell id="eKXbSN614G5rHu4DSbe3-15" value="" style="shape=partialRectangle;connectable=0;fillColor=none;top=0;left=0;bottom=0;right=0;editable=1;overflow=hidden;whiteSpace=wrap;html=1;rounded=0;align=center;verticalAlign=middle;fontFamily=Poppins;fontSize=12;fontColor=default;" parent="eKXbSN614G5rHu4DSbe3-14" vertex="1">
          <mxGeometry width="30" height="30" as="geometry">
            <mxRectangle width="30" height="30" as="alternateBounds" />
          </mxGeometry>
        </mxCell>
        <mxCell id="eKXbSN614G5rHu4DSbe3-16" value="StudentAge" style="shape=partialRectangle;connectable=0;fillColor=none;top=0;left=0;bottom=0;right=0;align=left;spacingLeft=6;overflow=hidden;whiteSpace=wrap;html=1;rounded=0;verticalAlign=middle;fontFamily=Poppins;fontSize=12;fontColor=default;" parent="eKXbSN614G5rHu4DSbe3-14" vertex="1">
          <mxGeometry x="30" width="150" height="30" as="geometry">
            <mxRectangle width="150" height="30" as="alternateBounds" />
          </mxGeometry>
        </mxCell>
        <mxCell id="eKXbSN614G5rHu4DSbe3-17" value="" style="shape=tableRow;horizontal=0;startSize=0;swimlaneHead=0;swimlaneBody=0;fillColor=none;collapsible=0;dropTarget=0;points=[[0,0.5],[1,0.5]];portConstraint=eastwest;top=0;left=0;right=0;bottom=0;rounded=0;align=center;verticalAlign=middle;fontFamily=Poppins;fontSize=12;fontColor=default;html=1;" parent="eKXbSN614G5rHu4DSbe3-1" vertex="1">
          <mxGeometry y="180" width="180" height="30" as="geometry" />
        </mxCell>
        <mxCell id="eKXbSN614G5rHu4DSbe3-18" value="" style="shape=partialRectangle;connectable=0;fillColor=none;top=0;left=0;bottom=0;right=0;editable=1;overflow=hidden;whiteSpace=wrap;html=1;rounded=0;align=center;verticalAlign=middle;fontFamily=Poppins;fontSize=12;fontColor=default;" parent="eKXbSN614G5rHu4DSbe3-17" vertex="1">
          <mxGeometry width="30" height="30" as="geometry">
            <mxRectangle width="30" height="30" as="alternateBounds" />
          </mxGeometry>
        </mxCell>
        <mxCell id="eKXbSN614G5rHu4DSbe3-19" value="StudentGender" style="shape=partialRectangle;connectable=0;fillColor=none;top=0;left=0;bottom=0;right=0;align=left;spacingLeft=6;overflow=hidden;whiteSpace=wrap;html=1;rounded=0;verticalAlign=middle;fontFamily=Poppins;fontSize=12;fontColor=default;" parent="eKXbSN614G5rHu4DSbe3-17" vertex="1">
          <mxGeometry x="30" width="150" height="30" as="geometry">
            <mxRectangle width="150" height="30" as="alternateBounds" />
          </mxGeometry>
        </mxCell>
        <mxCell id="eKXbSN614G5rHu4DSbe3-26" value="" style="shape=tableRow;horizontal=0;startSize=0;swimlaneHead=0;swimlaneBody=0;fillColor=none;collapsible=0;dropTarget=0;points=[[0,0.5],[1,0.5]];portConstraint=eastwest;top=0;left=0;right=0;bottom=0;rounded=0;align=center;verticalAlign=middle;fontFamily=Poppins;fontSize=12;fontColor=default;html=1;" parent="eKXbSN614G5rHu4DSbe3-1" vertex="1">
          <mxGeometry y="210" width="180" height="30" as="geometry" />
        </mxCell>
        <mxCell id="eKXbSN614G5rHu4DSbe3-27" value="" style="shape=partialRectangle;connectable=0;fillColor=none;top=0;left=0;bottom=0;right=0;editable=1;overflow=hidden;whiteSpace=wrap;html=1;rounded=0;align=center;verticalAlign=middle;fontFamily=Poppins;fontSize=12;fontColor=default;" parent="eKXbSN614G5rHu4DSbe3-26" vertex="1">
          <mxGeometry width="30" height="30" as="geometry">
            <mxRectangle width="30" height="30" as="alternateBounds" />
          </mxGeometry>
        </mxCell>
        <mxCell id="eKXbSN614G5rHu4DSbe3-28" value="StudentAddress" style="shape=partialRectangle;connectable=0;fillColor=none;top=0;left=0;bottom=0;right=0;align=left;spacingLeft=6;overflow=hidden;whiteSpace=wrap;html=1;rounded=0;verticalAlign=middle;fontFamily=Poppins;fontSize=12;fontColor=default;" parent="eKXbSN614G5rHu4DSbe3-26" vertex="1">
          <mxGeometry x="30" width="150" height="30" as="geometry">
            <mxRectangle width="150" height="30" as="alternateBounds" />
          </mxGeometry>
        </mxCell>
        <mxCell id="eKXbSN614G5rHu4DSbe3-29" value="" style="shape=tableRow;horizontal=0;startSize=0;swimlaneHead=0;swimlaneBody=0;fillColor=none;collapsible=0;dropTarget=0;points=[[0,0.5],[1,0.5]];portConstraint=eastwest;top=0;left=0;right=0;bottom=0;rounded=0;align=center;verticalAlign=middle;fontFamily=Poppins;fontSize=12;fontColor=default;html=1;" parent="eKXbSN614G5rHu4DSbe3-1" vertex="1">
          <mxGeometry y="240" width="180" height="30" as="geometry" />
        </mxCell>
        <mxCell id="eKXbSN614G5rHu4DSbe3-30" value="" style="shape=partialRectangle;connectable=0;fillColor=none;top=0;left=0;bottom=0;right=0;editable=1;overflow=hidden;whiteSpace=wrap;html=1;rounded=0;align=center;verticalAlign=middle;fontFamily=Poppins;fontSize=12;fontColor=default;" parent="eKXbSN614G5rHu4DSbe3-29" vertex="1">
          <mxGeometry width="30" height="30" as="geometry">
            <mxRectangle width="30" height="30" as="alternateBounds" />
          </mxGeometry>
        </mxCell>
        <mxCell id="eKXbSN614G5rHu4DSbe3-31" value="StudentContact" style="shape=partialRectangle;connectable=0;fillColor=none;top=0;left=0;bottom=0;right=0;align=left;spacingLeft=6;overflow=hidden;whiteSpace=wrap;html=1;rounded=0;verticalAlign=middle;fontFamily=Poppins;fontSize=12;fontColor=default;" parent="eKXbSN614G5rHu4DSbe3-29" vertex="1">
          <mxGeometry x="30" width="150" height="30" as="geometry">
            <mxRectangle width="150" height="30" as="alternateBounds" />
          </mxGeometry>
        </mxCell>
        <mxCell id="eKXbSN614G5rHu4DSbe3-20" value="" style="shape=tableRow;horizontal=0;startSize=0;swimlaneHead=0;swimlaneBody=0;fillColor=none;collapsible=0;dropTarget=0;points=[[0,0.5],[1,0.5]];portConstraint=eastwest;top=0;left=0;right=0;bottom=0;rounded=0;align=center;verticalAlign=middle;fontFamily=Poppins;fontSize=12;fontColor=default;html=1;" parent="eKXbSN614G5rHu4DSbe3-1" vertex="1">
          <mxGeometry y="270" width="180" height="30" as="geometry" />
        </mxCell>
        <mxCell id="eKXbSN614G5rHu4DSbe3-21" value="" style="shape=partialRectangle;connectable=0;fillColor=none;top=0;left=0;bottom=0;right=0;editable=1;overflow=hidden;whiteSpace=wrap;html=1;rounded=0;align=center;verticalAlign=middle;fontFamily=Poppins;fontSize=12;fontColor=default;" parent="eKXbSN614G5rHu4DSbe3-20" vertex="1">
          <mxGeometry width="30" height="30" as="geometry">
            <mxRectangle width="30" height="30" as="alternateBounds" />
          </mxGeometry>
        </mxCell>
        <mxCell id="eKXbSN614G5rHu4DSbe3-22" value="StudentEmail" style="shape=partialRectangle;connectable=0;fillColor=none;top=0;left=0;bottom=0;right=0;align=left;spacingLeft=6;overflow=hidden;whiteSpace=wrap;html=1;rounded=0;verticalAlign=middle;fontFamily=Poppins;fontSize=12;fontColor=default;" parent="eKXbSN614G5rHu4DSbe3-20" vertex="1">
          <mxGeometry x="30" width="150" height="30" as="geometry">
            <mxRectangle width="150" height="30" as="alternateBounds" />
          </mxGeometry>
        </mxCell>
        <mxCell id="eKXbSN614G5rHu4DSbe3-23" value="" style="shape=tableRow;horizontal=0;startSize=0;swimlaneHead=0;swimlaneBody=0;fillColor=none;collapsible=0;dropTarget=0;points=[[0,0.5],[1,0.5]];portConstraint=eastwest;top=0;left=0;right=0;bottom=0;rounded=0;align=center;verticalAlign=middle;fontFamily=Poppins;fontSize=12;fontColor=default;html=1;" parent="eKXbSN614G5rHu4DSbe3-1" vertex="1">
          <mxGeometry y="300" width="180" height="30" as="geometry" />
        </mxCell>
        <mxCell id="eKXbSN614G5rHu4DSbe3-24" value="" style="shape=partialRectangle;connectable=0;fillColor=none;top=0;left=0;bottom=0;right=0;editable=1;overflow=hidden;whiteSpace=wrap;html=1;rounded=0;align=center;verticalAlign=middle;fontFamily=Poppins;fontSize=12;fontColor=default;" parent="eKXbSN614G5rHu4DSbe3-23" vertex="1">
          <mxGeometry width="30" height="30" as="geometry">
            <mxRectangle width="30" height="30" as="alternateBounds" />
          </mxGeometry>
        </mxCell>
        <mxCell id="eKXbSN614G5rHu4DSbe3-25" value="StudentPassword" style="shape=partialRectangle;connectable=0;fillColor=none;top=0;left=0;bottom=0;right=0;align=left;spacingLeft=6;overflow=hidden;whiteSpace=wrap;html=1;rounded=0;verticalAlign=middle;fontFamily=Poppins;fontSize=12;fontColor=default;" parent="eKXbSN614G5rHu4DSbe3-23" vertex="1">
          <mxGeometry x="30" width="150" height="30" as="geometry">
            <mxRectangle width="150" height="30" as="alternateBounds" />
          </mxGeometry>
        </mxCell>
        <mxCell id="eKXbSN614G5rHu4DSbe3-199" value="" style="shape=tableRow;horizontal=0;startSize=0;swimlaneHead=0;swimlaneBody=0;fillColor=none;collapsible=0;dropTarget=0;points=[[0,0.5],[1,0.5]];portConstraint=eastwest;top=0;left=0;right=0;bottom=0;rounded=0;align=center;verticalAlign=middle;fontFamily=Poppins;fontSize=12;fontColor=default;html=1;" parent="eKXbSN614G5rHu4DSbe3-1" vertex="1">
          <mxGeometry y="330" width="180" height="30" as="geometry" />
        </mxCell>
        <mxCell id="eKXbSN614G5rHu4DSbe3-200" value="" style="shape=partialRectangle;connectable=0;fillColor=none;top=0;left=0;bottom=0;right=0;editable=1;overflow=hidden;whiteSpace=wrap;html=1;rounded=0;align=center;verticalAlign=middle;fontFamily=Poppins;fontSize=12;fontColor=default;" parent="eKXbSN614G5rHu4DSbe3-199" vertex="1">
          <mxGeometry width="30" height="30" as="geometry">
            <mxRectangle width="30" height="30" as="alternateBounds" />
          </mxGeometry>
        </mxCell>
        <mxCell id="eKXbSN614G5rHu4DSbe3-201" value="StudentImage" style="shape=partialRectangle;connectable=0;fillColor=none;top=0;left=0;bottom=0;right=0;align=left;spacingLeft=6;overflow=hidden;whiteSpace=wrap;html=1;rounded=0;verticalAlign=middle;fontFamily=Poppins;fontSize=12;fontColor=default;" parent="eKXbSN614G5rHu4DSbe3-199" vertex="1">
          <mxGeometry x="30" width="150" height="30" as="geometry">
            <mxRectangle width="150" height="30" as="alternateBounds" />
          </mxGeometry>
        </mxCell>
        <mxCell id="eKXbSN614G5rHu4DSbe3-217" style="edgeStyle=orthogonalEdgeStyle;rounded=0;orthogonalLoop=1;jettySize=auto;html=1;fontFamily=Poppins;fontSize=12;fontColor=default;strokeWidth=2;startArrow=ERmandOne;startFill=0;endArrow=ERoneToMany;endFill=0;endSize=15;entryX=-0.001;entryY=0.36;entryDx=0;entryDy=0;entryPerimeter=0;startSize=8;" parent="1" source="w9iqEN3ytlrPj38V60GT-21" target="eKXbSN614G5rHu4DSbe3-57" edge="1">
          <mxGeometry relative="1" as="geometry">
            <mxPoint x="720" y="1060" as="targetPoint" />
            <Array as="points">
              <mxPoint x="650" y="1070" />
              <mxPoint x="650" y="861" />
            </Array>
          </mxGeometry>
        </mxCell>
        <mxCell id="w9iqEN3ytlrPj38V60GT-6" value="Conduct / Conducted by" style="edgeLabel;html=1;align=center;verticalAlign=middle;resizable=0;points=[];fontFamily=Poppins;" parent="eKXbSN614G5rHu4DSbe3-217" vertex="1" connectable="0">
          <mxGeometry x="0.3247" y="-3" relative="1" as="geometry">
            <mxPoint x="-23" y="15" as="offset" />
          </mxGeometry>
        </mxCell>
        <mxCell id="eKXbSN614G5rHu4DSbe3-41" value="Lecturer" style="shape=table;startSize=30;container=1;collapsible=1;childLayout=tableLayout;fixedRows=1;rowLines=0;fontStyle=1;align=center;resizeLast=1;html=1;rounded=0;verticalAlign=middle;fontFamily=Poppins;fontSize=12;fontColor=default;fillColor=none;gradientColor=none;" parent="1" vertex="1">
          <mxGeometry x="705" y="700" width="190" height="270" as="geometry" />
        </mxCell>
        <mxCell id="eKXbSN614G5rHu4DSbe3-42" value="" style="shape=tableRow;horizontal=0;startSize=0;swimlaneHead=0;swimlaneBody=0;fillColor=none;collapsible=0;dropTarget=0;points=[[0,0.5],[1,0.5]];portConstraint=eastwest;top=0;left=0;right=0;bottom=1;rounded=0;align=center;verticalAlign=middle;fontFamily=Poppins;fontSize=12;fontColor=default;html=1;" parent="eKXbSN614G5rHu4DSbe3-41" vertex="1">
          <mxGeometry y="30" width="190" height="30" as="geometry" />
        </mxCell>
        <mxCell id="eKXbSN614G5rHu4DSbe3-43" value="PK" style="shape=partialRectangle;connectable=0;fillColor=none;top=0;left=0;bottom=0;right=0;fontStyle=1;overflow=hidden;whiteSpace=wrap;html=1;rounded=0;align=center;verticalAlign=middle;fontFamily=Poppins;fontSize=12;fontColor=default;" parent="eKXbSN614G5rHu4DSbe3-42" vertex="1">
          <mxGeometry width="30" height="30" as="geometry">
            <mxRectangle width="30" height="30" as="alternateBounds" />
          </mxGeometry>
        </mxCell>
        <mxCell id="eKXbSN614G5rHu4DSbe3-44" value="LecturerID" style="shape=partialRectangle;connectable=0;fillColor=none;top=0;left=0;bottom=0;right=0;align=left;spacingLeft=6;fontStyle=5;overflow=hidden;whiteSpace=wrap;html=1;rounded=0;verticalAlign=middle;fontFamily=Poppins;fontSize=12;fontColor=default;" parent="eKXbSN614G5rHu4DSbe3-42" vertex="1">
          <mxGeometry x="30" width="160" height="30" as="geometry">
            <mxRectangle width="160" height="30" as="alternateBounds" />
          </mxGeometry>
        </mxCell>
        <mxCell id="eKXbSN614G5rHu4DSbe3-48" value="" style="shape=tableRow;horizontal=0;startSize=0;swimlaneHead=0;swimlaneBody=0;fillColor=none;collapsible=0;dropTarget=0;points=[[0,0.5],[1,0.5]];portConstraint=eastwest;top=0;left=0;right=0;bottom=0;rounded=0;align=center;verticalAlign=middle;fontFamily=Poppins;fontSize=12;fontColor=default;html=1;" parent="eKXbSN614G5rHu4DSbe3-41" vertex="1">
          <mxGeometry y="60" width="190" height="30" as="geometry" />
        </mxCell>
        <mxCell id="eKXbSN614G5rHu4DSbe3-49" value="" style="shape=partialRectangle;connectable=0;fillColor=none;top=0;left=0;bottom=0;right=0;editable=1;overflow=hidden;whiteSpace=wrap;html=1;rounded=0;align=center;verticalAlign=middle;fontFamily=Poppins;fontSize=12;fontColor=default;" parent="eKXbSN614G5rHu4DSbe3-48" vertex="1">
          <mxGeometry width="30" height="30" as="geometry">
            <mxRectangle width="30" height="30" as="alternateBounds" />
          </mxGeometry>
        </mxCell>
        <mxCell id="eKXbSN614G5rHu4DSbe3-50" value="LecturerName" style="shape=partialRectangle;connectable=0;fillColor=none;top=0;left=0;bottom=0;right=0;align=left;spacingLeft=6;overflow=hidden;whiteSpace=wrap;html=1;rounded=0;verticalAlign=middle;fontFamily=Poppins;fontSize=12;fontColor=default;" parent="eKXbSN614G5rHu4DSbe3-48" vertex="1">
          <mxGeometry x="30" width="160" height="30" as="geometry">
            <mxRectangle width="160" height="30" as="alternateBounds" />
          </mxGeometry>
        </mxCell>
        <mxCell id="eKXbSN614G5rHu4DSbe3-51" value="" style="shape=tableRow;horizontal=0;startSize=0;swimlaneHead=0;swimlaneBody=0;fillColor=none;collapsible=0;dropTarget=0;points=[[0,0.5],[1,0.5]];portConstraint=eastwest;top=0;left=0;right=0;bottom=0;rounded=0;align=center;verticalAlign=middle;fontFamily=Poppins;fontSize=12;fontColor=default;html=1;" parent="eKXbSN614G5rHu4DSbe3-41" vertex="1">
          <mxGeometry y="90" width="190" height="30" as="geometry" />
        </mxCell>
        <mxCell id="eKXbSN614G5rHu4DSbe3-52" value="" style="shape=partialRectangle;connectable=0;fillColor=none;top=0;left=0;bottom=0;right=0;editable=1;overflow=hidden;whiteSpace=wrap;html=1;rounded=0;align=center;verticalAlign=middle;fontFamily=Poppins;fontSize=12;fontColor=default;" parent="eKXbSN614G5rHu4DSbe3-51" vertex="1">
          <mxGeometry width="30" height="30" as="geometry">
            <mxRectangle width="30" height="30" as="alternateBounds" />
          </mxGeometry>
        </mxCell>
        <mxCell id="eKXbSN614G5rHu4DSbe3-53" value="LecturerGender" style="shape=partialRectangle;connectable=0;fillColor=none;top=0;left=0;bottom=0;right=0;align=left;spacingLeft=6;overflow=hidden;whiteSpace=wrap;html=1;rounded=0;verticalAlign=middle;fontFamily=Poppins;fontSize=12;fontColor=default;" parent="eKXbSN614G5rHu4DSbe3-51" vertex="1">
          <mxGeometry x="30" width="160" height="30" as="geometry">
            <mxRectangle width="160" height="30" as="alternateBounds" />
          </mxGeometry>
        </mxCell>
        <mxCell id="eKXbSN614G5rHu4DSbe3-54" value="" style="shape=tableRow;horizontal=0;startSize=0;swimlaneHead=0;swimlaneBody=0;fillColor=none;collapsible=0;dropTarget=0;points=[[0,0.5],[1,0.5]];portConstraint=eastwest;top=0;left=0;right=0;bottom=0;rounded=0;align=center;verticalAlign=middle;fontFamily=Poppins;fontSize=12;fontColor=default;html=1;" parent="eKXbSN614G5rHu4DSbe3-41" vertex="1">
          <mxGeometry y="120" width="190" height="30" as="geometry" />
        </mxCell>
        <mxCell id="eKXbSN614G5rHu4DSbe3-55" value="" style="shape=partialRectangle;connectable=0;fillColor=none;top=0;left=0;bottom=0;right=0;editable=1;overflow=hidden;whiteSpace=wrap;html=1;rounded=0;align=center;verticalAlign=middle;fontFamily=Poppins;fontSize=12;fontColor=default;" parent="eKXbSN614G5rHu4DSbe3-54" vertex="1">
          <mxGeometry width="30" height="30" as="geometry">
            <mxRectangle width="30" height="30" as="alternateBounds" />
          </mxGeometry>
        </mxCell>
        <mxCell id="eKXbSN614G5rHu4DSbe3-56" value="LecturerContact" style="shape=partialRectangle;connectable=0;fillColor=none;top=0;left=0;bottom=0;right=0;align=left;spacingLeft=6;overflow=hidden;whiteSpace=wrap;html=1;rounded=0;verticalAlign=middle;fontFamily=Poppins;fontSize=12;fontColor=default;" parent="eKXbSN614G5rHu4DSbe3-54" vertex="1">
          <mxGeometry x="30" width="160" height="30" as="geometry">
            <mxRectangle width="160" height="30" as="alternateBounds" />
          </mxGeometry>
        </mxCell>
        <mxCell id="eKXbSN614G5rHu4DSbe3-57" value="" style="shape=tableRow;horizontal=0;startSize=0;swimlaneHead=0;swimlaneBody=0;fillColor=none;collapsible=0;dropTarget=0;points=[[0,0.5],[1,0.5]];portConstraint=eastwest;top=0;left=0;right=0;bottom=0;rounded=0;align=center;verticalAlign=middle;fontFamily=Poppins;fontSize=12;fontColor=default;html=1;" parent="eKXbSN614G5rHu4DSbe3-41" vertex="1">
          <mxGeometry y="150" width="190" height="30" as="geometry" />
        </mxCell>
        <mxCell id="eKXbSN614G5rHu4DSbe3-58" value="" style="shape=partialRectangle;connectable=0;fillColor=none;top=0;left=0;bottom=0;right=0;editable=1;overflow=hidden;whiteSpace=wrap;html=1;rounded=0;align=center;verticalAlign=middle;fontFamily=Poppins;fontSize=12;fontColor=default;" parent="eKXbSN614G5rHu4DSbe3-57" vertex="1">
          <mxGeometry width="30" height="30" as="geometry">
            <mxRectangle width="30" height="30" as="alternateBounds" />
          </mxGeometry>
        </mxCell>
        <mxCell id="eKXbSN614G5rHu4DSbe3-59" value="LecturerEmail" style="shape=partialRectangle;connectable=0;fillColor=none;top=0;left=0;bottom=0;right=0;align=left;spacingLeft=6;overflow=hidden;whiteSpace=wrap;html=1;rounded=0;verticalAlign=middle;fontFamily=Poppins;fontSize=12;fontColor=default;" parent="eKXbSN614G5rHu4DSbe3-57" vertex="1">
          <mxGeometry x="30" width="160" height="30" as="geometry">
            <mxRectangle width="160" height="30" as="alternateBounds" />
          </mxGeometry>
        </mxCell>
        <mxCell id="eKXbSN614G5rHu4DSbe3-60" value="" style="shape=tableRow;horizontal=0;startSize=0;swimlaneHead=0;swimlaneBody=0;fillColor=none;collapsible=0;dropTarget=0;points=[[0,0.5],[1,0.5]];portConstraint=eastwest;top=0;left=0;right=0;bottom=0;rounded=0;align=center;verticalAlign=middle;fontFamily=Poppins;fontSize=12;fontColor=default;html=1;" parent="eKXbSN614G5rHu4DSbe3-41" vertex="1">
          <mxGeometry y="180" width="190" height="30" as="geometry" />
        </mxCell>
        <mxCell id="eKXbSN614G5rHu4DSbe3-61" value="" style="shape=partialRectangle;connectable=0;fillColor=none;top=0;left=0;bottom=0;right=0;editable=1;overflow=hidden;whiteSpace=wrap;html=1;rounded=0;align=center;verticalAlign=middle;fontFamily=Poppins;fontSize=12;fontColor=default;" parent="eKXbSN614G5rHu4DSbe3-60" vertex="1">
          <mxGeometry width="30" height="30" as="geometry">
            <mxRectangle width="30" height="30" as="alternateBounds" />
          </mxGeometry>
        </mxCell>
        <mxCell id="eKXbSN614G5rHu4DSbe3-62" value="LecturerPassword" style="shape=partialRectangle;connectable=0;fillColor=none;top=0;left=0;bottom=0;right=0;align=left;spacingLeft=6;overflow=hidden;whiteSpace=wrap;html=1;rounded=0;verticalAlign=middle;fontFamily=Poppins;fontSize=12;fontColor=default;" parent="eKXbSN614G5rHu4DSbe3-60" vertex="1">
          <mxGeometry x="30" width="160" height="30" as="geometry">
            <mxRectangle width="160" height="30" as="alternateBounds" />
          </mxGeometry>
        </mxCell>
        <mxCell id="eKXbSN614G5rHu4DSbe3-63" value="" style="shape=tableRow;horizontal=0;startSize=0;swimlaneHead=0;swimlaneBody=0;fillColor=none;collapsible=0;dropTarget=0;points=[[0,0.5],[1,0.5]];portConstraint=eastwest;top=0;left=0;right=0;bottom=0;rounded=0;align=center;verticalAlign=middle;fontFamily=Poppins;fontSize=12;fontColor=default;html=1;" parent="eKXbSN614G5rHu4DSbe3-41" vertex="1">
          <mxGeometry y="210" width="190" height="30" as="geometry" />
        </mxCell>
        <mxCell id="eKXbSN614G5rHu4DSbe3-64" value="" style="shape=partialRectangle;connectable=0;fillColor=none;top=0;left=0;bottom=0;right=0;editable=1;overflow=hidden;whiteSpace=wrap;html=1;rounded=0;align=center;verticalAlign=middle;fontFamily=Poppins;fontSize=12;fontColor=default;" parent="eKXbSN614G5rHu4DSbe3-63" vertex="1">
          <mxGeometry width="30" height="30" as="geometry">
            <mxRectangle width="30" height="30" as="alternateBounds" />
          </mxGeometry>
        </mxCell>
        <mxCell id="eKXbSN614G5rHu4DSbe3-65" value="LecturerAcademic" style="shape=partialRectangle;connectable=0;fillColor=none;top=0;left=0;bottom=0;right=0;align=left;spacingLeft=6;overflow=hidden;whiteSpace=wrap;html=1;rounded=0;verticalAlign=middle;fontFamily=Poppins;fontSize=12;fontColor=default;" parent="eKXbSN614G5rHu4DSbe3-63" vertex="1">
          <mxGeometry x="30" width="160" height="30" as="geometry">
            <mxRectangle width="160" height="30" as="alternateBounds" />
          </mxGeometry>
        </mxCell>
        <mxCell id="eKXbSN614G5rHu4DSbe3-202" value="" style="shape=tableRow;horizontal=0;startSize=0;swimlaneHead=0;swimlaneBody=0;fillColor=none;collapsible=0;dropTarget=0;points=[[0,0.5],[1,0.5]];portConstraint=eastwest;top=0;left=0;right=0;bottom=0;rounded=0;align=center;verticalAlign=middle;fontFamily=Poppins;fontSize=12;fontColor=default;html=1;" parent="eKXbSN614G5rHu4DSbe3-41" vertex="1">
          <mxGeometry y="240" width="190" height="30" as="geometry" />
        </mxCell>
        <mxCell id="eKXbSN614G5rHu4DSbe3-203" value="" style="shape=partialRectangle;connectable=0;fillColor=none;top=0;left=0;bottom=0;right=0;editable=1;overflow=hidden;whiteSpace=wrap;html=1;rounded=0;align=center;verticalAlign=middle;fontFamily=Poppins;fontSize=12;fontColor=default;" parent="eKXbSN614G5rHu4DSbe3-202" vertex="1">
          <mxGeometry width="30" height="30" as="geometry">
            <mxRectangle width="30" height="30" as="alternateBounds" />
          </mxGeometry>
        </mxCell>
        <mxCell id="eKXbSN614G5rHu4DSbe3-204" value="LecturerImage" style="shape=partialRectangle;connectable=0;fillColor=none;top=0;left=0;bottom=0;right=0;align=left;spacingLeft=6;overflow=hidden;whiteSpace=wrap;html=1;rounded=0;verticalAlign=middle;fontFamily=Poppins;fontSize=12;fontColor=default;" parent="eKXbSN614G5rHu4DSbe3-202" vertex="1">
          <mxGeometry x="30" width="160" height="30" as="geometry">
            <mxRectangle width="160" height="30" as="alternateBounds" />
          </mxGeometry>
        </mxCell>
        <mxCell id="eKXbSN614G5rHu4DSbe3-247" style="edgeStyle=orthogonalEdgeStyle;rounded=0;orthogonalLoop=1;jettySize=auto;html=1;fontFamily=Poppins;fontSize=12;fontColor=default;strokeWidth=2;endArrow=ERoneToMany;endFill=0;startArrow=ERmandOne;startFill=0;entryX=0;entryY=0.5;entryDx=0;entryDy=0;" parent="1" source="eKXbSN614G5rHu4DSbe3-75" target="w9iqEN3ytlrPj38V60GT-28" edge="1">
          <mxGeometry relative="1" as="geometry">
            <Array as="points">
              <mxPoint x="330" y="520" />
              <mxPoint x="330" y="1095" />
            </Array>
            <mxPoint x="390" y="1080" as="targetPoint" />
          </mxGeometry>
        </mxCell>
        <mxCell id="w9iqEN3ytlrPj38V60GT-7" value="Consist / included" style="edgeLabel;html=1;align=center;verticalAlign=middle;resizable=0;points=[];fontFamily=Poppins;" parent="eKXbSN614G5rHu4DSbe3-247" vertex="1" connectable="0">
          <mxGeometry x="0.002" y="-4" relative="1" as="geometry">
            <mxPoint as="offset" />
          </mxGeometry>
        </mxCell>
        <mxCell id="eKXbSN614G5rHu4DSbe3-75" value="Subject" style="shape=table;startSize=30;container=1;collapsible=1;childLayout=tableLayout;fixedRows=1;rowLines=0;fontStyle=1;align=center;resizeLast=1;html=1;rounded=0;verticalAlign=middle;fontFamily=Poppins;fontSize=12;fontColor=default;fillColor=none;gradientColor=none;" parent="1" vertex="1">
          <mxGeometry x="90" y="460" width="180" height="150" as="geometry" />
        </mxCell>
        <mxCell id="eKXbSN614G5rHu4DSbe3-76" value="" style="shape=tableRow;horizontal=0;startSize=0;swimlaneHead=0;swimlaneBody=0;fillColor=none;collapsible=0;dropTarget=0;points=[[0,0.5],[1,0.5]];portConstraint=eastwest;top=0;left=0;right=0;bottom=1;rounded=0;align=center;verticalAlign=middle;fontFamily=Poppins;fontSize=12;fontColor=default;html=1;" parent="eKXbSN614G5rHu4DSbe3-75" vertex="1">
          <mxGeometry y="30" width="180" height="30" as="geometry" />
        </mxCell>
        <mxCell id="eKXbSN614G5rHu4DSbe3-77" value="PK" style="shape=partialRectangle;connectable=0;fillColor=none;top=0;left=0;bottom=0;right=0;fontStyle=1;overflow=hidden;whiteSpace=wrap;html=1;rounded=0;align=center;verticalAlign=middle;fontFamily=Poppins;fontSize=12;fontColor=default;" parent="eKXbSN614G5rHu4DSbe3-76" vertex="1">
          <mxGeometry width="30" height="30" as="geometry">
            <mxRectangle width="30" height="30" as="alternateBounds" />
          </mxGeometry>
        </mxCell>
        <mxCell id="eKXbSN614G5rHu4DSbe3-78" value="SubjectID" style="shape=partialRectangle;connectable=0;fillColor=none;top=0;left=0;bottom=0;right=0;align=left;spacingLeft=6;fontStyle=5;overflow=hidden;whiteSpace=wrap;html=1;rounded=0;verticalAlign=middle;fontFamily=Poppins;fontSize=12;fontColor=default;" parent="eKXbSN614G5rHu4DSbe3-76" vertex="1">
          <mxGeometry x="30" width="150" height="30" as="geometry">
            <mxRectangle width="150" height="30" as="alternateBounds" />
          </mxGeometry>
        </mxCell>
        <mxCell id="eKXbSN614G5rHu4DSbe3-79" value="" style="shape=tableRow;horizontal=0;startSize=0;swimlaneHead=0;swimlaneBody=0;fillColor=none;collapsible=0;dropTarget=0;points=[[0,0.5],[1,0.5]];portConstraint=eastwest;top=0;left=0;right=0;bottom=0;rounded=0;align=center;verticalAlign=middle;fontFamily=Poppins;fontSize=12;fontColor=default;html=1;" parent="eKXbSN614G5rHu4DSbe3-75" vertex="1">
          <mxGeometry y="60" width="180" height="30" as="geometry" />
        </mxCell>
        <mxCell id="eKXbSN614G5rHu4DSbe3-80" value="" style="shape=partialRectangle;connectable=0;fillColor=none;top=0;left=0;bottom=0;right=0;editable=1;overflow=hidden;whiteSpace=wrap;html=1;rounded=0;align=center;verticalAlign=middle;fontFamily=Poppins;fontSize=12;fontColor=default;" parent="eKXbSN614G5rHu4DSbe3-79" vertex="1">
          <mxGeometry width="30" height="30" as="geometry">
            <mxRectangle width="30" height="30" as="alternateBounds" />
          </mxGeometry>
        </mxCell>
        <mxCell id="eKXbSN614G5rHu4DSbe3-81" value="SubjectCode" style="shape=partialRectangle;connectable=0;fillColor=none;top=0;left=0;bottom=0;right=0;align=left;spacingLeft=6;overflow=hidden;whiteSpace=wrap;html=1;rounded=0;verticalAlign=middle;fontFamily=Poppins;fontSize=12;fontColor=default;" parent="eKXbSN614G5rHu4DSbe3-79" vertex="1">
          <mxGeometry x="30" width="150" height="30" as="geometry">
            <mxRectangle width="150" height="30" as="alternateBounds" />
          </mxGeometry>
        </mxCell>
        <mxCell id="novxVzTpgfSCEXgnaY3T-1" value="" style="shape=tableRow;horizontal=0;startSize=0;swimlaneHead=0;swimlaneBody=0;fillColor=none;collapsible=0;dropTarget=0;points=[[0,0.5],[1,0.5]];portConstraint=eastwest;top=0;left=0;right=0;bottom=0;rounded=0;align=center;verticalAlign=middle;fontFamily=Poppins;fontSize=12;fontColor=default;html=1;" vertex="1" parent="eKXbSN614G5rHu4DSbe3-75">
          <mxGeometry y="90" width="180" height="30" as="geometry" />
        </mxCell>
        <mxCell id="novxVzTpgfSCEXgnaY3T-2" value="" style="shape=partialRectangle;connectable=0;fillColor=none;top=0;left=0;bottom=0;right=0;editable=1;overflow=hidden;whiteSpace=wrap;html=1;rounded=0;align=center;verticalAlign=middle;fontFamily=Poppins;fontSize=12;fontColor=default;" vertex="1" parent="novxVzTpgfSCEXgnaY3T-1">
          <mxGeometry width="30" height="30" as="geometry">
            <mxRectangle width="30" height="30" as="alternateBounds" />
          </mxGeometry>
        </mxCell>
        <mxCell id="novxVzTpgfSCEXgnaY3T-3" value="SubjectName" style="shape=partialRectangle;connectable=0;fillColor=none;top=0;left=0;bottom=0;right=0;align=left;spacingLeft=6;overflow=hidden;whiteSpace=wrap;html=1;rounded=0;verticalAlign=middle;fontFamily=Poppins;fontSize=12;fontColor=default;" vertex="1" parent="novxVzTpgfSCEXgnaY3T-1">
          <mxGeometry x="30" width="150" height="30" as="geometry">
            <mxRectangle width="150" height="30" as="alternateBounds" />
          </mxGeometry>
        </mxCell>
        <mxCell id="eKXbSN614G5rHu4DSbe3-82" value="" style="shape=tableRow;horizontal=0;startSize=0;swimlaneHead=0;swimlaneBody=0;fillColor=none;collapsible=0;dropTarget=0;points=[[0,0.5],[1,0.5]];portConstraint=eastwest;top=0;left=0;right=0;bottom=0;rounded=0;align=center;verticalAlign=middle;fontFamily=Poppins;fontSize=12;fontColor=default;html=1;" parent="eKXbSN614G5rHu4DSbe3-75" vertex="1">
          <mxGeometry y="120" width="180" height="30" as="geometry" />
        </mxCell>
        <mxCell id="eKXbSN614G5rHu4DSbe3-83" value="" style="shape=partialRectangle;connectable=0;fillColor=none;top=0;left=0;bottom=0;right=0;editable=1;overflow=hidden;whiteSpace=wrap;html=1;rounded=0;align=center;verticalAlign=middle;fontFamily=Poppins;fontSize=12;fontColor=default;" parent="eKXbSN614G5rHu4DSbe3-82" vertex="1">
          <mxGeometry width="30" height="30" as="geometry">
            <mxRectangle width="30" height="30" as="alternateBounds" />
          </mxGeometry>
        </mxCell>
        <mxCell id="eKXbSN614G5rHu4DSbe3-84" value="SubjectDescription" style="shape=partialRectangle;connectable=0;fillColor=none;top=0;left=0;bottom=0;right=0;align=left;spacingLeft=6;overflow=hidden;whiteSpace=wrap;html=1;rounded=0;verticalAlign=middle;fontFamily=Poppins;fontSize=12;fontColor=default;" parent="eKXbSN614G5rHu4DSbe3-82" vertex="1">
          <mxGeometry x="30" width="150" height="30" as="geometry">
            <mxRectangle width="150" height="30" as="alternateBounds" />
          </mxGeometry>
        </mxCell>
        <mxCell id="eKXbSN614G5rHu4DSbe3-219" style="edgeStyle=orthogonalEdgeStyle;rounded=0;orthogonalLoop=1;jettySize=auto;html=1;entryX=0.5;entryY=0;entryDx=0;entryDy=0;fontFamily=Poppins;fontSize=12;fontColor=default;dashed=1;strokeWidth=2;endArrow=ERmandOne;endFill=0;startArrow=ERzeroToMany;startFill=0;" parent="1" source="eKXbSN614G5rHu4DSbe3-119" target="w9iqEN3ytlrPj38V60GT-21" edge="1">
          <mxGeometry relative="1" as="geometry">
            <mxPoint x="500" y="940" as="targetPoint" />
          </mxGeometry>
        </mxCell>
        <mxCell id="w9iqEN3ytlrPj38V60GT-2" value="Consists / included" style="edgeLabel;html=1;align=center;verticalAlign=middle;resizable=0;points=[];fontFamily=Poppins;" parent="eKXbSN614G5rHu4DSbe3-219" vertex="1" connectable="0">
          <mxGeometry x="-0.3647" y="2" relative="1" as="geometry">
            <mxPoint x="-2" y="22" as="offset" />
          </mxGeometry>
        </mxCell>
        <mxCell id="eKXbSN614G5rHu4DSbe3-119" value="Attendance" style="shape=table;startSize=30;container=1;collapsible=1;childLayout=tableLayout;fixedRows=1;rowLines=0;fontStyle=1;align=center;resizeLast=1;html=1;rounded=0;verticalAlign=middle;fontFamily=Poppins;fontSize=12;fontColor=default;fillColor=none;gradientColor=none;" parent="1" vertex="1">
          <mxGeometry x="410" y="650" width="180" height="210" as="geometry" />
        </mxCell>
        <mxCell id="eKXbSN614G5rHu4DSbe3-120" value="" style="shape=tableRow;horizontal=0;startSize=0;swimlaneHead=0;swimlaneBody=0;fillColor=none;collapsible=0;dropTarget=0;points=[[0,0.5],[1,0.5]];portConstraint=eastwest;top=0;left=0;right=0;bottom=1;rounded=0;align=center;verticalAlign=middle;fontFamily=Poppins;fontSize=12;fontColor=default;html=1;" parent="eKXbSN614G5rHu4DSbe3-119" vertex="1">
          <mxGeometry y="30" width="180" height="30" as="geometry" />
        </mxCell>
        <mxCell id="eKXbSN614G5rHu4DSbe3-121" value="PK" style="shape=partialRectangle;connectable=0;fillColor=none;top=0;left=0;bottom=0;right=0;fontStyle=1;overflow=hidden;whiteSpace=wrap;html=1;rounded=0;align=center;verticalAlign=middle;fontFamily=Poppins;fontSize=12;fontColor=default;" parent="eKXbSN614G5rHu4DSbe3-120" vertex="1">
          <mxGeometry width="30" height="30" as="geometry">
            <mxRectangle width="30" height="30" as="alternateBounds" />
          </mxGeometry>
        </mxCell>
        <mxCell id="eKXbSN614G5rHu4DSbe3-122" value="AttendanceID" style="shape=partialRectangle;connectable=0;fillColor=none;top=0;left=0;bottom=0;right=0;align=left;spacingLeft=6;fontStyle=5;overflow=hidden;whiteSpace=wrap;html=1;rounded=0;verticalAlign=middle;fontFamily=Poppins;fontSize=12;fontColor=default;" parent="eKXbSN614G5rHu4DSbe3-120" vertex="1">
          <mxGeometry x="30" width="150" height="30" as="geometry">
            <mxRectangle width="150" height="30" as="alternateBounds" />
          </mxGeometry>
        </mxCell>
        <mxCell id="eKXbSN614G5rHu4DSbe3-123" value="" style="shape=tableRow;horizontal=0;startSize=0;swimlaneHead=0;swimlaneBody=0;fillColor=none;collapsible=0;dropTarget=0;points=[[0,0.5],[1,0.5]];portConstraint=eastwest;top=0;left=0;right=0;bottom=0;rounded=0;align=center;verticalAlign=middle;fontFamily=Poppins;fontSize=12;fontColor=default;html=1;" parent="eKXbSN614G5rHu4DSbe3-119" vertex="1">
          <mxGeometry y="60" width="180" height="30" as="geometry" />
        </mxCell>
        <mxCell id="eKXbSN614G5rHu4DSbe3-124" value="" style="shape=partialRectangle;connectable=0;fillColor=none;top=0;left=0;bottom=0;right=0;editable=1;overflow=hidden;whiteSpace=wrap;html=1;rounded=0;align=center;verticalAlign=middle;fontFamily=Poppins;fontSize=12;fontColor=default;" parent="eKXbSN614G5rHu4DSbe3-123" vertex="1">
          <mxGeometry width="30" height="30" as="geometry">
            <mxRectangle width="30" height="30" as="alternateBounds" />
          </mxGeometry>
        </mxCell>
        <mxCell id="eKXbSN614G5rHu4DSbe3-125" value="AttendanceDate" style="shape=partialRectangle;connectable=0;fillColor=none;top=0;left=0;bottom=0;right=0;align=left;spacingLeft=6;overflow=hidden;whiteSpace=wrap;html=1;rounded=0;verticalAlign=middle;fontFamily=Poppins;fontSize=12;fontColor=default;" parent="eKXbSN614G5rHu4DSbe3-123" vertex="1">
          <mxGeometry x="30" width="150" height="30" as="geometry">
            <mxRectangle width="150" height="30" as="alternateBounds" />
          </mxGeometry>
        </mxCell>
        <mxCell id="eKXbSN614G5rHu4DSbe3-126" value="" style="shape=tableRow;horizontal=0;startSize=0;swimlaneHead=0;swimlaneBody=0;fillColor=none;collapsible=0;dropTarget=0;points=[[0,0.5],[1,0.5]];portConstraint=eastwest;top=0;left=0;right=0;bottom=0;rounded=0;align=center;verticalAlign=middle;fontFamily=Poppins;fontSize=12;fontColor=default;html=1;" parent="eKXbSN614G5rHu4DSbe3-119" vertex="1">
          <mxGeometry y="90" width="180" height="30" as="geometry" />
        </mxCell>
        <mxCell id="eKXbSN614G5rHu4DSbe3-127" value="" style="shape=partialRectangle;connectable=0;fillColor=none;top=0;left=0;bottom=0;right=0;editable=1;overflow=hidden;whiteSpace=wrap;html=1;rounded=0;align=center;verticalAlign=middle;fontFamily=Poppins;fontSize=12;fontColor=default;" parent="eKXbSN614G5rHu4DSbe3-126" vertex="1">
          <mxGeometry width="30" height="30" as="geometry">
            <mxRectangle width="30" height="30" as="alternateBounds" />
          </mxGeometry>
        </mxCell>
        <mxCell id="eKXbSN614G5rHu4DSbe3-128" value="AttendanceTime" style="shape=partialRectangle;connectable=0;fillColor=none;top=0;left=0;bottom=0;right=0;align=left;spacingLeft=6;overflow=hidden;whiteSpace=wrap;html=1;rounded=0;verticalAlign=middle;fontFamily=Poppins;fontSize=12;fontColor=default;" parent="eKXbSN614G5rHu4DSbe3-126" vertex="1">
          <mxGeometry x="30" width="150" height="30" as="geometry">
            <mxRectangle width="150" height="30" as="alternateBounds" />
          </mxGeometry>
        </mxCell>
        <mxCell id="eKXbSN614G5rHu4DSbe3-129" value="" style="shape=tableRow;horizontal=0;startSize=0;swimlaneHead=0;swimlaneBody=0;fillColor=none;collapsible=0;dropTarget=0;points=[[0,0.5],[1,0.5]];portConstraint=eastwest;top=0;left=0;right=0;bottom=0;rounded=0;align=center;verticalAlign=middle;fontFamily=Poppins;fontSize=12;fontColor=default;html=1;" parent="eKXbSN614G5rHu4DSbe3-119" vertex="1">
          <mxGeometry y="120" width="180" height="30" as="geometry" />
        </mxCell>
        <mxCell id="eKXbSN614G5rHu4DSbe3-130" value="" style="shape=partialRectangle;connectable=0;fillColor=none;top=0;left=0;bottom=0;right=0;editable=1;overflow=hidden;whiteSpace=wrap;html=1;rounded=0;align=center;verticalAlign=middle;fontFamily=Poppins;fontSize=12;fontColor=default;" parent="eKXbSN614G5rHu4DSbe3-129" vertex="1">
          <mxGeometry width="30" height="30" as="geometry">
            <mxRectangle width="30" height="30" as="alternateBounds" />
          </mxGeometry>
        </mxCell>
        <mxCell id="eKXbSN614G5rHu4DSbe3-131" value="AttendanceStatus" style="shape=partialRectangle;connectable=0;fillColor=none;top=0;left=0;bottom=0;right=0;align=left;spacingLeft=6;overflow=hidden;whiteSpace=wrap;html=1;rounded=0;verticalAlign=middle;fontFamily=Poppins;fontSize=12;fontColor=default;" parent="eKXbSN614G5rHu4DSbe3-129" vertex="1">
          <mxGeometry x="30" width="150" height="30" as="geometry">
            <mxRectangle width="150" height="30" as="alternateBounds" />
          </mxGeometry>
        </mxCell>
        <mxCell id="eKXbSN614G5rHu4DSbe3-132" value="" style="shape=tableRow;horizontal=0;startSize=0;swimlaneHead=0;swimlaneBody=0;fillColor=none;collapsible=0;dropTarget=0;points=[[0,0.5],[1,0.5]];portConstraint=eastwest;top=0;left=0;right=0;bottom=0;rounded=0;align=center;verticalAlign=middle;fontFamily=Poppins;fontSize=12;fontColor=default;html=1;" parent="eKXbSN614G5rHu4DSbe3-119" vertex="1">
          <mxGeometry y="150" width="180" height="30" as="geometry" />
        </mxCell>
        <mxCell id="eKXbSN614G5rHu4DSbe3-133" value="FK" style="shape=partialRectangle;connectable=0;fillColor=none;top=0;left=0;bottom=0;right=0;editable=1;overflow=hidden;whiteSpace=wrap;html=1;rounded=0;align=center;verticalAlign=middle;fontFamily=Poppins;fontSize=12;fontColor=default;" parent="eKXbSN614G5rHu4DSbe3-132" vertex="1">
          <mxGeometry width="30" height="30" as="geometry">
            <mxRectangle width="30" height="30" as="alternateBounds" />
          </mxGeometry>
        </mxCell>
        <mxCell id="eKXbSN614G5rHu4DSbe3-134" value="LectureID" style="shape=partialRectangle;connectable=0;fillColor=none;top=0;left=0;bottom=0;right=0;align=left;spacingLeft=6;overflow=hidden;whiteSpace=wrap;html=1;rounded=0;verticalAlign=middle;fontFamily=Poppins;fontSize=12;fontColor=default;" parent="eKXbSN614G5rHu4DSbe3-132" vertex="1">
          <mxGeometry x="30" width="150" height="30" as="geometry">
            <mxRectangle width="150" height="30" as="alternateBounds" />
          </mxGeometry>
        </mxCell>
        <mxCell id="eKXbSN614G5rHu4DSbe3-135" value="" style="shape=tableRow;horizontal=0;startSize=0;swimlaneHead=0;swimlaneBody=0;fillColor=none;collapsible=0;dropTarget=0;points=[[0,0.5],[1,0.5]];portConstraint=eastwest;top=0;left=0;right=0;bottom=0;rounded=0;align=center;verticalAlign=middle;fontFamily=Poppins;fontSize=12;fontColor=default;html=1;" parent="eKXbSN614G5rHu4DSbe3-119" vertex="1">
          <mxGeometry y="180" width="180" height="30" as="geometry" />
        </mxCell>
        <mxCell id="eKXbSN614G5rHu4DSbe3-136" value="FK" style="shape=partialRectangle;connectable=0;fillColor=none;top=0;left=0;bottom=0;right=0;editable=1;overflow=hidden;whiteSpace=wrap;html=1;rounded=0;align=center;verticalAlign=middle;fontFamily=Poppins;fontSize=12;fontColor=default;" parent="eKXbSN614G5rHu4DSbe3-135" vertex="1">
          <mxGeometry width="30" height="30" as="geometry">
            <mxRectangle width="30" height="30" as="alternateBounds" />
          </mxGeometry>
        </mxCell>
        <mxCell id="eKXbSN614G5rHu4DSbe3-137" value="StudentID" style="shape=partialRectangle;connectable=0;fillColor=none;top=0;left=0;bottom=0;right=0;align=left;spacingLeft=6;overflow=hidden;whiteSpace=wrap;html=1;rounded=0;verticalAlign=middle;fontFamily=Poppins;fontSize=12;fontColor=default;" parent="eKXbSN614G5rHu4DSbe3-135" vertex="1">
          <mxGeometry x="30" width="150" height="30" as="geometry">
            <mxRectangle width="150" height="30" as="alternateBounds" />
          </mxGeometry>
        </mxCell>
        <mxCell id="eKXbSN614G5rHu4DSbe3-211" style="edgeStyle=orthogonalEdgeStyle;rounded=0;orthogonalLoop=1;jettySize=auto;html=1;entryX=0.5;entryY=0;entryDx=0;entryDy=0;fontFamily=Poppins;fontSize=12;fontColor=default;dashed=1;strokeWidth=2;startArrow=ERoneToMany;startFill=0;endArrow=ERmandOne;endFill=0;" parent="1" source="eKXbSN614G5rHu4DSbe3-141" target="eKXbSN614G5rHu4DSbe3-41" edge="1">
          <mxGeometry relative="1" as="geometry" />
        </mxCell>
        <mxCell id="w9iqEN3ytlrPj38V60GT-5" value="Given by / Gives" style="edgeLabel;html=1;align=center;verticalAlign=middle;resizable=0;points=[];" parent="eKXbSN614G5rHu4DSbe3-211" vertex="1" connectable="0">
          <mxGeometry x="-0.0467" relative="1" as="geometry">
            <mxPoint as="offset" />
          </mxGeometry>
        </mxCell>
        <mxCell id="eKXbSN614G5rHu4DSbe3-141" value="Assignment" style="shape=table;startSize=30;container=1;collapsible=1;childLayout=tableLayout;fixedRows=1;rowLines=0;fontStyle=1;align=center;resizeLast=1;html=1;rounded=0;verticalAlign=middle;fontFamily=Poppins;fontSize=12;fontColor=default;fillColor=none;gradientColor=none;" parent="1" vertex="1">
          <mxGeometry x="700" y="420" width="200" height="180" as="geometry" />
        </mxCell>
        <mxCell id="eKXbSN614G5rHu4DSbe3-142" value="" style="shape=tableRow;horizontal=0;startSize=0;swimlaneHead=0;swimlaneBody=0;fillColor=none;collapsible=0;dropTarget=0;points=[[0,0.5],[1,0.5]];portConstraint=eastwest;top=0;left=0;right=0;bottom=1;rounded=0;align=center;verticalAlign=middle;fontFamily=Poppins;fontSize=12;fontColor=default;html=1;" parent="eKXbSN614G5rHu4DSbe3-141" vertex="1">
          <mxGeometry y="30" width="200" height="30" as="geometry" />
        </mxCell>
        <mxCell id="eKXbSN614G5rHu4DSbe3-143" value="PK" style="shape=partialRectangle;connectable=0;fillColor=none;top=0;left=0;bottom=0;right=0;fontStyle=1;overflow=hidden;whiteSpace=wrap;html=1;rounded=0;align=center;verticalAlign=middle;fontFamily=Poppins;fontSize=12;fontColor=default;" parent="eKXbSN614G5rHu4DSbe3-142" vertex="1">
          <mxGeometry width="30" height="30" as="geometry">
            <mxRectangle width="30" height="30" as="alternateBounds" />
          </mxGeometry>
        </mxCell>
        <mxCell id="eKXbSN614G5rHu4DSbe3-144" value="AssignmentID" style="shape=partialRectangle;connectable=0;fillColor=none;top=0;left=0;bottom=0;right=0;align=left;spacingLeft=6;fontStyle=5;overflow=hidden;whiteSpace=wrap;html=1;rounded=0;verticalAlign=middle;fontFamily=Poppins;fontSize=12;fontColor=default;" parent="eKXbSN614G5rHu4DSbe3-142" vertex="1">
          <mxGeometry x="30" width="170" height="30" as="geometry">
            <mxRectangle width="170" height="30" as="alternateBounds" />
          </mxGeometry>
        </mxCell>
        <mxCell id="eKXbSN614G5rHu4DSbe3-145" value="" style="shape=tableRow;horizontal=0;startSize=0;swimlaneHead=0;swimlaneBody=0;fillColor=none;collapsible=0;dropTarget=0;points=[[0,0.5],[1,0.5]];portConstraint=eastwest;top=0;left=0;right=0;bottom=0;rounded=0;align=center;verticalAlign=middle;fontFamily=Poppins;fontSize=12;fontColor=default;html=1;" parent="eKXbSN614G5rHu4DSbe3-141" vertex="1">
          <mxGeometry y="60" width="200" height="30" as="geometry" />
        </mxCell>
        <mxCell id="eKXbSN614G5rHu4DSbe3-146" value="" style="shape=partialRectangle;connectable=0;fillColor=none;top=0;left=0;bottom=0;right=0;editable=1;overflow=hidden;whiteSpace=wrap;html=1;rounded=0;align=center;verticalAlign=middle;fontFamily=Poppins;fontSize=12;fontColor=default;" parent="eKXbSN614G5rHu4DSbe3-145" vertex="1">
          <mxGeometry width="30" height="30" as="geometry">
            <mxRectangle width="30" height="30" as="alternateBounds" />
          </mxGeometry>
        </mxCell>
        <mxCell id="eKXbSN614G5rHu4DSbe3-147" value="AssignmentName" style="shape=partialRectangle;connectable=0;fillColor=none;top=0;left=0;bottom=0;right=0;align=left;spacingLeft=6;overflow=hidden;whiteSpace=wrap;html=1;rounded=0;verticalAlign=middle;fontFamily=Poppins;fontSize=12;fontColor=default;" parent="eKXbSN614G5rHu4DSbe3-145" vertex="1">
          <mxGeometry x="30" width="170" height="30" as="geometry">
            <mxRectangle width="170" height="30" as="alternateBounds" />
          </mxGeometry>
        </mxCell>
        <mxCell id="eKXbSN614G5rHu4DSbe3-148" value="" style="shape=tableRow;horizontal=0;startSize=0;swimlaneHead=0;swimlaneBody=0;fillColor=none;collapsible=0;dropTarget=0;points=[[0,0.5],[1,0.5]];portConstraint=eastwest;top=0;left=0;right=0;bottom=0;rounded=0;align=center;verticalAlign=middle;fontFamily=Poppins;fontSize=12;fontColor=default;html=1;" parent="eKXbSN614G5rHu4DSbe3-141" vertex="1">
          <mxGeometry y="90" width="200" height="30" as="geometry" />
        </mxCell>
        <mxCell id="eKXbSN614G5rHu4DSbe3-149" value="" style="shape=partialRectangle;connectable=0;fillColor=none;top=0;left=0;bottom=0;right=0;editable=1;overflow=hidden;whiteSpace=wrap;html=1;rounded=0;align=center;verticalAlign=middle;fontFamily=Poppins;fontSize=12;fontColor=default;" parent="eKXbSN614G5rHu4DSbe3-148" vertex="1">
          <mxGeometry width="30" height="30" as="geometry">
            <mxRectangle width="30" height="30" as="alternateBounds" />
          </mxGeometry>
        </mxCell>
        <mxCell id="eKXbSN614G5rHu4DSbe3-150" value="AssignmentDesc" style="shape=partialRectangle;connectable=0;fillColor=none;top=0;left=0;bottom=0;right=0;align=left;spacingLeft=6;overflow=hidden;whiteSpace=wrap;html=1;rounded=0;verticalAlign=middle;fontFamily=Poppins;fontSize=12;fontColor=default;" parent="eKXbSN614G5rHu4DSbe3-148" vertex="1">
          <mxGeometry x="30" width="170" height="30" as="geometry">
            <mxRectangle width="170" height="30" as="alternateBounds" />
          </mxGeometry>
        </mxCell>
        <mxCell id="eKXbSN614G5rHu4DSbe3-164" value="" style="shape=tableRow;horizontal=0;startSize=0;swimlaneHead=0;swimlaneBody=0;fillColor=none;collapsible=0;dropTarget=0;points=[[0,0.5],[1,0.5]];portConstraint=eastwest;top=0;left=0;right=0;bottom=0;rounded=0;align=center;verticalAlign=middle;fontFamily=Poppins;fontSize=12;fontColor=default;html=1;" parent="eKXbSN614G5rHu4DSbe3-141" vertex="1">
          <mxGeometry y="120" width="200" height="30" as="geometry" />
        </mxCell>
        <mxCell id="eKXbSN614G5rHu4DSbe3-165" value="" style="shape=partialRectangle;connectable=0;fillColor=none;top=0;left=0;bottom=0;right=0;editable=1;overflow=hidden;whiteSpace=wrap;html=1;rounded=0;align=center;verticalAlign=middle;fontFamily=Poppins;fontSize=12;fontColor=default;" parent="eKXbSN614G5rHu4DSbe3-164" vertex="1">
          <mxGeometry width="30" height="30" as="geometry">
            <mxRectangle width="30" height="30" as="alternateBounds" />
          </mxGeometry>
        </mxCell>
        <mxCell id="eKXbSN614G5rHu4DSbe3-166" value="AssignmentDueDateTime" style="shape=partialRectangle;connectable=0;fillColor=none;top=0;left=0;bottom=0;right=0;align=left;spacingLeft=6;overflow=hidden;whiteSpace=wrap;html=1;rounded=0;verticalAlign=middle;fontFamily=Poppins;fontSize=12;fontColor=default;" parent="eKXbSN614G5rHu4DSbe3-164" vertex="1">
          <mxGeometry x="30" width="170" height="30" as="geometry">
            <mxRectangle width="170" height="30" as="alternateBounds" />
          </mxGeometry>
        </mxCell>
        <mxCell id="eKXbSN614G5rHu4DSbe3-167" value="" style="shape=tableRow;horizontal=0;startSize=0;swimlaneHead=0;swimlaneBody=0;fillColor=none;collapsible=0;dropTarget=0;points=[[0,0.5],[1,0.5]];portConstraint=eastwest;top=0;left=0;right=0;bottom=0;rounded=0;align=center;verticalAlign=middle;fontFamily=Poppins;fontSize=12;fontColor=default;html=1;" parent="eKXbSN614G5rHu4DSbe3-141" vertex="1">
          <mxGeometry y="150" width="200" height="30" as="geometry" />
        </mxCell>
        <mxCell id="eKXbSN614G5rHu4DSbe3-168" value="FK" style="shape=partialRectangle;connectable=0;fillColor=none;top=0;left=0;bottom=0;right=0;editable=1;overflow=hidden;whiteSpace=wrap;html=1;rounded=0;align=center;verticalAlign=middle;fontFamily=Poppins;fontSize=12;fontColor=default;" parent="eKXbSN614G5rHu4DSbe3-167" vertex="1">
          <mxGeometry width="30" height="30" as="geometry">
            <mxRectangle width="30" height="30" as="alternateBounds" />
          </mxGeometry>
        </mxCell>
        <mxCell id="eKXbSN614G5rHu4DSbe3-169" value="SubjectID" style="shape=partialRectangle;connectable=0;fillColor=none;top=0;left=0;bottom=0;right=0;align=left;spacingLeft=6;overflow=hidden;whiteSpace=wrap;html=1;rounded=0;verticalAlign=middle;fontFamily=Poppins;fontSize=12;fontColor=default;" parent="eKXbSN614G5rHu4DSbe3-167" vertex="1">
          <mxGeometry x="30" width="170" height="30" as="geometry">
            <mxRectangle width="170" height="30" as="alternateBounds" />
          </mxGeometry>
        </mxCell>
        <mxCell id="eKXbSN614G5rHu4DSbe3-207" style="edgeStyle=orthogonalEdgeStyle;rounded=0;orthogonalLoop=1;jettySize=auto;html=1;entryX=0.5;entryY=0;entryDx=0;entryDy=0;fontFamily=Poppins;fontSize=12;fontColor=default;strokeWidth=2;startArrow=ERoneToMany;startFill=0;endArrow=ERmandOne;endFill=0;" parent="1" source="eKXbSN614G5rHu4DSbe3-151" target="eKXbSN614G5rHu4DSbe3-75" edge="1">
          <mxGeometry relative="1" as="geometry" />
        </mxCell>
        <mxCell id="w9iqEN3ytlrPj38V60GT-46" value="Enrolled by" style="edgeLabel;html=1;align=center;verticalAlign=middle;resizable=0;points=[];fontSize=12;fontFamily=Poppins;fontColor=default;" parent="eKXbSN614G5rHu4DSbe3-207" vertex="1" connectable="0">
          <mxGeometry x="-0.1316" y="-2" relative="1" as="geometry">
            <mxPoint as="offset" />
          </mxGeometry>
        </mxCell>
        <mxCell id="eKXbSN614G5rHu4DSbe3-151" value="Enrollment" style="shape=table;startSize=30;container=1;collapsible=1;childLayout=tableLayout;fixedRows=1;rowLines=0;fontStyle=1;align=center;resizeLast=1;html=1;whiteSpace=wrap;rounded=0;verticalAlign=middle;fontFamily=Poppins;fontSize=12;fontColor=default;fillColor=none;gradientColor=none;" parent="1" vertex="1">
          <mxGeometry x="90" y="230" width="180" height="150" as="geometry" />
        </mxCell>
        <mxCell id="eKXbSN614G5rHu4DSbe3-152" value="" style="shape=tableRow;horizontal=0;startSize=0;swimlaneHead=0;swimlaneBody=0;fillColor=none;collapsible=0;dropTarget=0;points=[[0,0.5],[1,0.5]];portConstraint=eastwest;top=0;left=0;right=0;bottom=0;html=1;rounded=0;align=center;verticalAlign=middle;fontFamily=Poppins;fontSize=12;fontColor=default;" parent="eKXbSN614G5rHu4DSbe3-151" vertex="1">
          <mxGeometry y="30" width="180" height="30" as="geometry" />
        </mxCell>
        <mxCell id="eKXbSN614G5rHu4DSbe3-153" value="PK,FK1" style="shape=partialRectangle;connectable=0;fillColor=none;top=0;left=0;bottom=0;right=0;fontStyle=1;overflow=hidden;html=1;whiteSpace=wrap;rounded=0;align=center;verticalAlign=middle;fontFamily=Poppins;fontSize=12;fontColor=default;" parent="eKXbSN614G5rHu4DSbe3-152" vertex="1">
          <mxGeometry width="60" height="30" as="geometry">
            <mxRectangle width="60" height="30" as="alternateBounds" />
          </mxGeometry>
        </mxCell>
        <mxCell id="eKXbSN614G5rHu4DSbe3-154" value="StudentID" style="shape=partialRectangle;connectable=0;fillColor=none;top=0;left=0;bottom=0;right=0;align=left;spacingLeft=6;fontStyle=5;overflow=hidden;html=1;whiteSpace=wrap;rounded=0;verticalAlign=middle;fontFamily=Poppins;fontSize=12;fontColor=default;" parent="eKXbSN614G5rHu4DSbe3-152" vertex="1">
          <mxGeometry x="60" width="120" height="30" as="geometry">
            <mxRectangle width="120" height="30" as="alternateBounds" />
          </mxGeometry>
        </mxCell>
        <mxCell id="eKXbSN614G5rHu4DSbe3-155" value="" style="shape=tableRow;horizontal=0;startSize=0;swimlaneHead=0;swimlaneBody=0;fillColor=none;collapsible=0;dropTarget=0;points=[[0,0.5],[1,0.5]];portConstraint=eastwest;top=0;left=0;right=0;bottom=1;html=1;rounded=0;align=center;verticalAlign=middle;fontFamily=Poppins;fontSize=12;fontColor=default;" parent="eKXbSN614G5rHu4DSbe3-151" vertex="1">
          <mxGeometry y="60" width="180" height="30" as="geometry" />
        </mxCell>
        <mxCell id="eKXbSN614G5rHu4DSbe3-156" value="PK,FK2" style="shape=partialRectangle;connectable=0;fillColor=none;top=0;left=0;bottom=0;right=0;fontStyle=1;overflow=hidden;html=1;whiteSpace=wrap;rounded=0;align=center;verticalAlign=middle;fontFamily=Poppins;fontSize=12;fontColor=default;" parent="eKXbSN614G5rHu4DSbe3-155" vertex="1">
          <mxGeometry width="60" height="30" as="geometry">
            <mxRectangle width="60" height="30" as="alternateBounds" />
          </mxGeometry>
        </mxCell>
        <mxCell id="eKXbSN614G5rHu4DSbe3-157" value="SubjectID" style="shape=partialRectangle;connectable=0;fillColor=none;top=0;left=0;bottom=0;right=0;align=left;spacingLeft=6;fontStyle=5;overflow=hidden;html=1;whiteSpace=wrap;rounded=0;verticalAlign=middle;fontFamily=Poppins;fontSize=12;fontColor=default;" parent="eKXbSN614G5rHu4DSbe3-155" vertex="1">
          <mxGeometry x="60" width="120" height="30" as="geometry">
            <mxRectangle width="120" height="30" as="alternateBounds" />
          </mxGeometry>
        </mxCell>
        <mxCell id="eKXbSN614G5rHu4DSbe3-158" value="" style="shape=tableRow;horizontal=0;startSize=0;swimlaneHead=0;swimlaneBody=0;fillColor=none;collapsible=0;dropTarget=0;points=[[0,0.5],[1,0.5]];portConstraint=eastwest;top=0;left=0;right=0;bottom=0;html=1;rounded=0;align=center;verticalAlign=middle;fontFamily=Poppins;fontSize=12;fontColor=default;" parent="eKXbSN614G5rHu4DSbe3-151" vertex="1">
          <mxGeometry y="90" width="180" height="30" as="geometry" />
        </mxCell>
        <mxCell id="eKXbSN614G5rHu4DSbe3-159" value="" style="shape=partialRectangle;connectable=0;fillColor=none;top=0;left=0;bottom=0;right=0;editable=1;overflow=hidden;html=1;whiteSpace=wrap;rounded=0;align=center;verticalAlign=middle;fontFamily=Poppins;fontSize=12;fontColor=default;" parent="eKXbSN614G5rHu4DSbe3-158" vertex="1">
          <mxGeometry width="60" height="30" as="geometry">
            <mxRectangle width="60" height="30" as="alternateBounds" />
          </mxGeometry>
        </mxCell>
        <mxCell id="eKXbSN614G5rHu4DSbe3-160" value="EnrollTime" style="shape=partialRectangle;connectable=0;fillColor=none;top=0;left=0;bottom=0;right=0;align=left;spacingLeft=6;overflow=hidden;html=1;whiteSpace=wrap;rounded=0;verticalAlign=middle;fontFamily=Poppins;fontSize=12;fontColor=default;" parent="eKXbSN614G5rHu4DSbe3-158" vertex="1">
          <mxGeometry x="60" width="120" height="30" as="geometry">
            <mxRectangle width="120" height="30" as="alternateBounds" />
          </mxGeometry>
        </mxCell>
        <mxCell id="eKXbSN614G5rHu4DSbe3-161" value="" style="shape=tableRow;horizontal=0;startSize=0;swimlaneHead=0;swimlaneBody=0;fillColor=none;collapsible=0;dropTarget=0;points=[[0,0.5],[1,0.5]];portConstraint=eastwest;top=0;left=0;right=0;bottom=0;html=1;rounded=0;align=center;verticalAlign=middle;fontFamily=Poppins;fontSize=12;fontColor=default;" parent="eKXbSN614G5rHu4DSbe3-151" vertex="1">
          <mxGeometry y="120" width="180" height="30" as="geometry" />
        </mxCell>
        <mxCell id="eKXbSN614G5rHu4DSbe3-162" value="" style="shape=partialRectangle;connectable=0;fillColor=none;top=0;left=0;bottom=0;right=0;editable=1;overflow=hidden;html=1;whiteSpace=wrap;rounded=0;align=center;verticalAlign=middle;fontFamily=Poppins;fontSize=12;fontColor=default;" parent="eKXbSN614G5rHu4DSbe3-161" vertex="1">
          <mxGeometry width="60" height="30" as="geometry">
            <mxRectangle width="60" height="30" as="alternateBounds" />
          </mxGeometry>
        </mxCell>
        <mxCell id="eKXbSN614G5rHu4DSbe3-163" value="EnrollDate" style="shape=partialRectangle;connectable=0;fillColor=none;top=0;left=0;bottom=0;right=0;align=left;spacingLeft=6;overflow=hidden;html=1;whiteSpace=wrap;rounded=0;verticalAlign=middle;fontFamily=Poppins;fontSize=12;fontColor=default;" parent="eKXbSN614G5rHu4DSbe3-161" vertex="1">
          <mxGeometry x="60" width="120" height="30" as="geometry">
            <mxRectangle width="120" height="30" as="alternateBounds" />
          </mxGeometry>
        </mxCell>
        <mxCell id="eKXbSN614G5rHu4DSbe3-216" style="edgeStyle=orthogonalEdgeStyle;rounded=0;orthogonalLoop=1;jettySize=auto;html=1;entryX=0.5;entryY=0;entryDx=0;entryDy=0;fontFamily=Poppins;fontSize=12;fontColor=default;strokeWidth=2;endArrow=ERmandOne;endFill=0;startArrow=ERoneToMany;startFill=0;" parent="1" source="eKXbSN614G5rHu4DSbe3-186" target="eKXbSN614G5rHu4DSbe3-141" edge="1">
          <mxGeometry relative="1" as="geometry" />
        </mxCell>
        <mxCell id="w9iqEN3ytlrPj38V60GT-4" value="&lt;font face=&quot;Poppins&quot;&gt;Included / Includes&lt;/font&gt;" style="edgeLabel;html=1;align=center;verticalAlign=middle;resizable=0;points=[];" parent="eKXbSN614G5rHu4DSbe3-216" vertex="1" connectable="0">
          <mxGeometry x="-0.3238" y="-1" relative="1" as="geometry">
            <mxPoint as="offset" />
          </mxGeometry>
        </mxCell>
        <mxCell id="eKXbSN614G5rHu4DSbe3-186" value="Submission" style="shape=table;startSize=30;container=1;collapsible=1;childLayout=tableLayout;fixedRows=1;rowLines=0;fontStyle=1;align=center;resizeLast=1;html=1;whiteSpace=wrap;rounded=0;verticalAlign=middle;fontFamily=Poppins;fontSize=12;fontColor=default;fillColor=none;gradientColor=none;" parent="1" vertex="1">
          <mxGeometry x="700" y="230" width="200" height="120" as="geometry" />
        </mxCell>
        <mxCell id="eKXbSN614G5rHu4DSbe3-187" value="" style="shape=tableRow;horizontal=0;startSize=0;swimlaneHead=0;swimlaneBody=0;fillColor=none;collapsible=0;dropTarget=0;points=[[0,0.5],[1,0.5]];portConstraint=eastwest;top=0;left=0;right=0;bottom=0;html=1;rounded=0;align=center;verticalAlign=middle;fontFamily=Poppins;fontSize=12;fontColor=default;" parent="eKXbSN614G5rHu4DSbe3-186" vertex="1">
          <mxGeometry y="30" width="200" height="30" as="geometry" />
        </mxCell>
        <mxCell id="eKXbSN614G5rHu4DSbe3-188" value="PK,FK1" style="shape=partialRectangle;connectable=0;fillColor=none;top=0;left=0;bottom=0;right=0;fontStyle=1;overflow=hidden;html=1;whiteSpace=wrap;rounded=0;align=center;verticalAlign=middle;fontFamily=Poppins;fontSize=12;fontColor=default;" parent="eKXbSN614G5rHu4DSbe3-187" vertex="1">
          <mxGeometry width="60" height="30" as="geometry">
            <mxRectangle width="60" height="30" as="alternateBounds" />
          </mxGeometry>
        </mxCell>
        <mxCell id="eKXbSN614G5rHu4DSbe3-189" value="AssignmentID" style="shape=partialRectangle;connectable=0;fillColor=none;top=0;left=0;bottom=0;right=0;align=left;spacingLeft=6;fontStyle=5;overflow=hidden;html=1;whiteSpace=wrap;rounded=0;verticalAlign=middle;fontFamily=Poppins;fontSize=12;fontColor=default;" parent="eKXbSN614G5rHu4DSbe3-187" vertex="1">
          <mxGeometry x="60" width="140" height="30" as="geometry">
            <mxRectangle width="140" height="30" as="alternateBounds" />
          </mxGeometry>
        </mxCell>
        <mxCell id="eKXbSN614G5rHu4DSbe3-190" value="" style="shape=tableRow;horizontal=0;startSize=0;swimlaneHead=0;swimlaneBody=0;fillColor=none;collapsible=0;dropTarget=0;points=[[0,0.5],[1,0.5]];portConstraint=eastwest;top=0;left=0;right=0;bottom=1;html=1;rounded=0;align=center;verticalAlign=middle;fontFamily=Poppins;fontSize=12;fontColor=default;" parent="eKXbSN614G5rHu4DSbe3-186" vertex="1">
          <mxGeometry y="60" width="200" height="30" as="geometry" />
        </mxCell>
        <mxCell id="eKXbSN614G5rHu4DSbe3-191" value="PK,FK2" style="shape=partialRectangle;connectable=0;fillColor=none;top=0;left=0;bottom=0;right=0;fontStyle=1;overflow=hidden;html=1;whiteSpace=wrap;rounded=0;align=center;verticalAlign=middle;fontFamily=Poppins;fontSize=12;fontColor=default;" parent="eKXbSN614G5rHu4DSbe3-190" vertex="1">
          <mxGeometry width="60" height="30" as="geometry">
            <mxRectangle width="60" height="30" as="alternateBounds" />
          </mxGeometry>
        </mxCell>
        <mxCell id="eKXbSN614G5rHu4DSbe3-192" value="StudentID" style="shape=partialRectangle;connectable=0;fillColor=none;top=0;left=0;bottom=0;right=0;align=left;spacingLeft=6;fontStyle=5;overflow=hidden;html=1;whiteSpace=wrap;rounded=0;verticalAlign=middle;fontFamily=Poppins;fontSize=12;fontColor=default;" parent="eKXbSN614G5rHu4DSbe3-190" vertex="1">
          <mxGeometry x="60" width="140" height="30" as="geometry">
            <mxRectangle width="140" height="30" as="alternateBounds" />
          </mxGeometry>
        </mxCell>
        <mxCell id="eKXbSN614G5rHu4DSbe3-193" value="" style="shape=tableRow;horizontal=0;startSize=0;swimlaneHead=0;swimlaneBody=0;fillColor=none;collapsible=0;dropTarget=0;points=[[0,0.5],[1,0.5]];portConstraint=eastwest;top=0;left=0;right=0;bottom=0;html=1;rounded=0;align=center;verticalAlign=middle;fontFamily=Poppins;fontSize=12;fontColor=default;" parent="eKXbSN614G5rHu4DSbe3-186" vertex="1">
          <mxGeometry y="90" width="200" height="30" as="geometry" />
        </mxCell>
        <mxCell id="eKXbSN614G5rHu4DSbe3-194" value="" style="shape=partialRectangle;connectable=0;fillColor=none;top=0;left=0;bottom=0;right=0;editable=1;overflow=hidden;html=1;whiteSpace=wrap;rounded=0;align=center;verticalAlign=middle;fontFamily=Poppins;fontSize=12;fontColor=default;" parent="eKXbSN614G5rHu4DSbe3-193" vertex="1">
          <mxGeometry width="60" height="30" as="geometry">
            <mxRectangle width="60" height="30" as="alternateBounds" />
          </mxGeometry>
        </mxCell>
        <mxCell id="eKXbSN614G5rHu4DSbe3-195" value="SubmissionStatus" style="shape=partialRectangle;connectable=0;fillColor=none;top=0;left=0;bottom=0;right=0;align=left;spacingLeft=6;overflow=hidden;html=1;whiteSpace=wrap;rounded=0;verticalAlign=middle;fontFamily=Poppins;fontSize=12;fontColor=default;" parent="eKXbSN614G5rHu4DSbe3-193" vertex="1">
          <mxGeometry x="60" width="140" height="30" as="geometry">
            <mxRectangle width="140" height="30" as="alternateBounds" />
          </mxGeometry>
        </mxCell>
        <mxCell id="eKXbSN614G5rHu4DSbe3-206" style="edgeStyle=orthogonalEdgeStyle;rounded=0;orthogonalLoop=1;jettySize=auto;html=1;entryX=0;entryY=0.5;entryDx=0;entryDy=0;fontFamily=Poppins;fontSize=12;fontColor=default;strokeWidth=2;endArrow=ERmandOne;endFill=0;startArrow=ERoneToMany;startFill=0;endSize=11;startSize=10;" parent="1" source="eKXbSN614G5rHu4DSbe3-155" target="eKXbSN614G5rHu4DSbe3-5" edge="1">
          <mxGeometry relative="1" as="geometry" />
        </mxCell>
        <mxCell id="w9iqEN3ytlrPj38V60GT-45" value="Enroll" style="edgeLabel;html=1;align=center;verticalAlign=middle;resizable=0;points=[];fontSize=12;fontFamily=Poppins;fontColor=default;" parent="eKXbSN614G5rHu4DSbe3-206" vertex="1" connectable="0">
          <mxGeometry x="-0.0406" y="1" relative="1" as="geometry">
            <mxPoint as="offset" />
          </mxGeometry>
        </mxCell>
        <mxCell id="w9iqEN3ytlrPj38V60GT-21" value="Lecture" style="shape=table;startSize=30;container=1;collapsible=1;childLayout=tableLayout;fixedRows=1;rowLines=0;fontStyle=1;align=center;resizeLast=1;html=1;whiteSpace=wrap;rounded=0;strokeColor=default;verticalAlign=middle;fontFamily=Poppins;fontSize=12;fontColor=default;fillColor=none;gradientColor=none;" parent="1" vertex="1">
          <mxGeometry x="410" y="960" width="180" height="240" as="geometry" />
        </mxCell>
        <mxCell id="w9iqEN3ytlrPj38V60GT-22" value="" style="shape=tableRow;horizontal=0;startSize=0;swimlaneHead=0;swimlaneBody=0;fillColor=none;collapsible=0;dropTarget=0;points=[[0,0.5],[1,0.5]];portConstraint=eastwest;top=0;left=0;right=0;bottom=0;html=1;rounded=0;strokeColor=default;align=center;verticalAlign=middle;fontFamily=Poppins;fontSize=12;fontColor=default;" parent="w9iqEN3ytlrPj38V60GT-21" vertex="1">
          <mxGeometry y="30" width="180" height="30" as="geometry" />
        </mxCell>
        <mxCell id="w9iqEN3ytlrPj38V60GT-23" value="PK" style="shape=partialRectangle;connectable=0;fillColor=none;top=0;left=0;bottom=0;right=0;fontStyle=1;overflow=hidden;html=1;whiteSpace=wrap;rounded=0;strokeColor=default;align=center;verticalAlign=middle;fontFamily=Poppins;fontSize=12;fontColor=default;startSize=30;" parent="w9iqEN3ytlrPj38V60GT-22" vertex="1">
          <mxGeometry width="60" height="30" as="geometry">
            <mxRectangle width="60" height="30" as="alternateBounds" />
          </mxGeometry>
        </mxCell>
        <mxCell id="w9iqEN3ytlrPj38V60GT-24" value="LectureID" style="shape=partialRectangle;connectable=0;fillColor=none;top=0;left=0;bottom=0;right=0;align=left;spacingLeft=6;fontStyle=5;overflow=hidden;html=1;whiteSpace=wrap;rounded=0;strokeColor=default;verticalAlign=middle;fontFamily=Poppins;fontSize=12;fontColor=default;startSize=30;" parent="w9iqEN3ytlrPj38V60GT-22" vertex="1">
          <mxGeometry x="60" width="120" height="30" as="geometry">
            <mxRectangle width="120" height="30" as="alternateBounds" />
          </mxGeometry>
        </mxCell>
        <mxCell id="novxVzTpgfSCEXgnaY3T-10" value="" style="shape=tableRow;horizontal=0;startSize=0;swimlaneHead=0;swimlaneBody=0;fillColor=none;collapsible=0;dropTarget=0;points=[[0,0.5],[1,0.5]];portConstraint=eastwest;top=0;left=0;right=0;bottom=0;html=1;rounded=0;strokeColor=default;align=center;verticalAlign=middle;fontFamily=Poppins;fontSize=12;fontColor=default;" vertex="1" parent="w9iqEN3ytlrPj38V60GT-21">
          <mxGeometry y="60" width="180" height="30" as="geometry" />
        </mxCell>
        <mxCell id="novxVzTpgfSCEXgnaY3T-11" value="PK,FK1" style="shape=partialRectangle;connectable=0;fillColor=none;top=0;left=0;bottom=0;right=0;fontStyle=1;overflow=hidden;html=1;whiteSpace=wrap;rounded=0;strokeColor=default;align=center;verticalAlign=middle;fontFamily=Poppins;fontSize=12;fontColor=default;startSize=30;" vertex="1" parent="novxVzTpgfSCEXgnaY3T-10">
          <mxGeometry width="60" height="30" as="geometry">
            <mxRectangle width="60" height="30" as="alternateBounds" />
          </mxGeometry>
        </mxCell>
        <mxCell id="novxVzTpgfSCEXgnaY3T-12" value="LecturerID" style="shape=partialRectangle;connectable=0;fillColor=none;top=0;left=0;bottom=0;right=0;align=left;spacingLeft=6;fontStyle=5;overflow=hidden;html=1;whiteSpace=wrap;rounded=0;strokeColor=default;verticalAlign=middle;fontFamily=Poppins;fontSize=12;fontColor=default;startSize=30;" vertex="1" parent="novxVzTpgfSCEXgnaY3T-10">
          <mxGeometry x="60" width="120" height="30" as="geometry">
            <mxRectangle width="120" height="30" as="alternateBounds" />
          </mxGeometry>
        </mxCell>
        <mxCell id="w9iqEN3ytlrPj38V60GT-25" value="" style="shape=tableRow;horizontal=0;startSize=0;swimlaneHead=0;swimlaneBody=0;fillColor=none;collapsible=0;dropTarget=0;points=[[0,0.5],[1,0.5]];portConstraint=eastwest;top=0;left=0;right=0;bottom=1;html=1;rounded=0;strokeColor=default;align=center;verticalAlign=middle;fontFamily=Poppins;fontSize=12;fontColor=default;" parent="w9iqEN3ytlrPj38V60GT-21" vertex="1">
          <mxGeometry y="90" width="180" height="30" as="geometry" />
        </mxCell>
        <mxCell id="w9iqEN3ytlrPj38V60GT-26" value="PK,FK2" style="shape=partialRectangle;connectable=0;fillColor=none;top=0;left=0;bottom=0;right=0;fontStyle=1;overflow=hidden;html=1;whiteSpace=wrap;rounded=0;strokeColor=default;align=center;verticalAlign=middle;fontFamily=Poppins;fontSize=12;fontColor=default;startSize=30;" parent="w9iqEN3ytlrPj38V60GT-25" vertex="1">
          <mxGeometry width="60" height="30" as="geometry">
            <mxRectangle width="60" height="30" as="alternateBounds" />
          </mxGeometry>
        </mxCell>
        <mxCell id="w9iqEN3ytlrPj38V60GT-27" value="SubjectID" style="shape=partialRectangle;connectable=0;fillColor=none;top=0;left=0;bottom=0;right=0;align=left;spacingLeft=6;fontStyle=5;overflow=hidden;html=1;whiteSpace=wrap;rounded=0;strokeColor=default;verticalAlign=middle;fontFamily=Poppins;fontSize=12;fontColor=default;startSize=30;" parent="w9iqEN3ytlrPj38V60GT-25" vertex="1">
          <mxGeometry x="60" width="120" height="30" as="geometry">
            <mxRectangle width="120" height="30" as="alternateBounds" />
          </mxGeometry>
        </mxCell>
        <mxCell id="w9iqEN3ytlrPj38V60GT-28" value="" style="shape=tableRow;horizontal=0;startSize=0;swimlaneHead=0;swimlaneBody=0;fillColor=none;collapsible=0;dropTarget=0;points=[[0,0.5],[1,0.5]];portConstraint=eastwest;top=0;left=0;right=0;bottom=0;html=1;rounded=0;strokeColor=default;align=center;verticalAlign=middle;fontFamily=Poppins;fontSize=12;fontColor=default;" parent="w9iqEN3ytlrPj38V60GT-21" vertex="1">
          <mxGeometry y="120" width="180" height="30" as="geometry" />
        </mxCell>
        <mxCell id="w9iqEN3ytlrPj38V60GT-29" value="" style="shape=partialRectangle;connectable=0;fillColor=none;top=0;left=0;bottom=0;right=0;editable=1;overflow=hidden;html=1;whiteSpace=wrap;rounded=0;strokeColor=default;align=center;verticalAlign=middle;fontFamily=Poppins;fontSize=12;fontColor=default;startSize=30;" parent="w9iqEN3ytlrPj38V60GT-28" vertex="1">
          <mxGeometry width="60" height="30" as="geometry">
            <mxRectangle width="60" height="30" as="alternateBounds" />
          </mxGeometry>
        </mxCell>
        <mxCell id="w9iqEN3ytlrPj38V60GT-30" value="LectureDate" style="shape=partialRectangle;connectable=0;fillColor=none;top=0;left=0;bottom=0;right=0;align=left;spacingLeft=6;overflow=hidden;html=1;whiteSpace=wrap;rounded=0;strokeColor=default;verticalAlign=middle;fontFamily=Poppins;fontSize=12;fontColor=default;startSize=30;" parent="w9iqEN3ytlrPj38V60GT-28" vertex="1">
          <mxGeometry x="60" width="120" height="30" as="geometry">
            <mxRectangle width="120" height="30" as="alternateBounds" />
          </mxGeometry>
        </mxCell>
        <mxCell id="w9iqEN3ytlrPj38V60GT-31" value="" style="shape=tableRow;horizontal=0;startSize=0;swimlaneHead=0;swimlaneBody=0;fillColor=none;collapsible=0;dropTarget=0;points=[[0,0.5],[1,0.5]];portConstraint=eastwest;top=0;left=0;right=0;bottom=0;html=1;rounded=0;strokeColor=default;align=center;verticalAlign=middle;fontFamily=Poppins;fontSize=12;fontColor=default;" parent="w9iqEN3ytlrPj38V60GT-21" vertex="1">
          <mxGeometry y="150" width="180" height="30" as="geometry" />
        </mxCell>
        <mxCell id="w9iqEN3ytlrPj38V60GT-32" value="" style="shape=partialRectangle;connectable=0;fillColor=none;top=0;left=0;bottom=0;right=0;editable=1;overflow=hidden;html=1;whiteSpace=wrap;rounded=0;strokeColor=default;align=center;verticalAlign=middle;fontFamily=Poppins;fontSize=12;fontColor=default;startSize=30;" parent="w9iqEN3ytlrPj38V60GT-31" vertex="1">
          <mxGeometry width="60" height="30" as="geometry">
            <mxRectangle width="60" height="30" as="alternateBounds" />
          </mxGeometry>
        </mxCell>
        <mxCell id="w9iqEN3ytlrPj38V60GT-33" value="LectureStartTime" style="shape=partialRectangle;connectable=0;fillColor=none;top=0;left=0;bottom=0;right=0;align=left;spacingLeft=6;overflow=hidden;html=1;whiteSpace=wrap;rounded=0;strokeColor=default;verticalAlign=middle;fontFamily=Poppins;fontSize=12;fontColor=default;startSize=30;" parent="w9iqEN3ytlrPj38V60GT-31" vertex="1">
          <mxGeometry x="60" width="120" height="30" as="geometry">
            <mxRectangle width="120" height="30" as="alternateBounds" />
          </mxGeometry>
        </mxCell>
        <mxCell id="w9iqEN3ytlrPj38V60GT-37" value="" style="shape=tableRow;horizontal=0;startSize=0;swimlaneHead=0;swimlaneBody=0;fillColor=none;collapsible=0;dropTarget=0;points=[[0,0.5],[1,0.5]];portConstraint=eastwest;top=0;left=0;right=0;bottom=0;html=1;rounded=0;strokeColor=default;align=center;verticalAlign=middle;fontFamily=Poppins;fontSize=12;fontColor=default;" parent="w9iqEN3ytlrPj38V60GT-21" vertex="1">
          <mxGeometry y="180" width="180" height="30" as="geometry" />
        </mxCell>
        <mxCell id="w9iqEN3ytlrPj38V60GT-38" value="" style="shape=partialRectangle;connectable=0;fillColor=none;top=0;left=0;bottom=0;right=0;editable=1;overflow=hidden;html=1;whiteSpace=wrap;rounded=0;strokeColor=default;align=center;verticalAlign=middle;fontFamily=Poppins;fontSize=12;fontColor=default;startSize=30;" parent="w9iqEN3ytlrPj38V60GT-37" vertex="1">
          <mxGeometry width="60" height="30" as="geometry">
            <mxRectangle width="60" height="30" as="alternateBounds" />
          </mxGeometry>
        </mxCell>
        <mxCell id="w9iqEN3ytlrPj38V60GT-39" value="LectureEndTime" style="shape=partialRectangle;connectable=0;fillColor=none;top=0;left=0;bottom=0;right=0;align=left;spacingLeft=6;overflow=hidden;html=1;whiteSpace=wrap;rounded=0;strokeColor=default;verticalAlign=middle;fontFamily=Poppins;fontSize=12;fontColor=default;startSize=30;" parent="w9iqEN3ytlrPj38V60GT-37" vertex="1">
          <mxGeometry x="60" width="120" height="30" as="geometry">
            <mxRectangle width="120" height="30" as="alternateBounds" />
          </mxGeometry>
        </mxCell>
        <mxCell id="w9iqEN3ytlrPj38V60GT-40" value="" style="shape=tableRow;horizontal=0;startSize=0;swimlaneHead=0;swimlaneBody=0;fillColor=none;collapsible=0;dropTarget=0;points=[[0,0.5],[1,0.5]];portConstraint=eastwest;top=0;left=0;right=0;bottom=0;html=1;rounded=0;strokeColor=default;align=center;verticalAlign=middle;fontFamily=Poppins;fontSize=12;fontColor=default;" parent="w9iqEN3ytlrPj38V60GT-21" vertex="1">
          <mxGeometry y="210" width="180" height="30" as="geometry" />
        </mxCell>
        <mxCell id="w9iqEN3ytlrPj38V60GT-41" value="" style="shape=partialRectangle;connectable=0;fillColor=none;top=0;left=0;bottom=0;right=0;editable=1;overflow=hidden;html=1;whiteSpace=wrap;rounded=0;strokeColor=default;align=center;verticalAlign=middle;fontFamily=Poppins;fontSize=12;fontColor=default;startSize=30;" parent="w9iqEN3ytlrPj38V60GT-40" vertex="1">
          <mxGeometry width="60" height="30" as="geometry">
            <mxRectangle width="60" height="30" as="alternateBounds" />
          </mxGeometry>
        </mxCell>
        <mxCell id="w9iqEN3ytlrPj38V60GT-42" value="LectureStatus" style="shape=partialRectangle;connectable=0;fillColor=none;top=0;left=0;bottom=0;right=0;align=left;spacingLeft=6;overflow=hidden;html=1;whiteSpace=wrap;rounded=0;strokeColor=default;verticalAlign=middle;fontFamily=Poppins;fontSize=12;fontColor=default;startSize=30;" parent="w9iqEN3ytlrPj38V60GT-40" vertex="1">
          <mxGeometry x="60" width="120" height="30" as="geometry">
            <mxRectangle width="120" height="30" as="alternateBounds" />
          </mxGeometry>
        </mxCell>
      </root>
    </mxGraphModel>
  </diagram>
</mxfile>
